<?xml version="1.0" encoding="utf-8"?>
<!-- Generator: Adobe Illustrator 27.0.1, SVG Export Plug-In . SVG Version: 6.00 Build 0)  -->
<svg version="1.1" id="Capa_1" xmlns="http://www.w3.org/2000/svg" xmlns:xlink="http://www.w3.org/1999/xlink" x="0px" y="0px"
	 viewBox="0 0 700 700" style="enable-background:new 0 0 700 700;" xml:space="preserve">
<style type="text/css">
	.st0{fill:#243271;}
</style>
<path class="st0" d="M678.1,610.8L393.3,41.4l-0.3-0.5c-19.1-33.1-66.8-33.1-85.9,0l-0.2,0.3l-285,569.7
	c-18.8,33,5.1,74.1,43.1,74.1h570C673,684.9,696.9,643.9,678.1,610.8L678.1,610.8z M634.4,644.9H65.6c-7.9,0-12.8-8.5-8.8-15.3
	l0.2-0.3L341.3,61c4-6.5,13.5-6.5,17.5,0l284.2,568.1l0.3,0.5C647.2,636.5,642.2,644.9,634.4,644.9z"/>
<path class="st0" d="M350,212.9L350,212.9c10.9,0,19.7,10.9,19.7,24.4v219.9c0,13.5-8.8,24.4-19.7,24.4h0
	c-10.9,0-19.7-10.9-19.7-24.4V237.4C330.3,223.9,339.1,212.9,350,212.9z"/>
<path class="st0" d="M350,513.9L350,513.9c10.9,0,19.7,8.8,19.7,19.7v0c0,10.9-8.8,19.7-19.7,19.7h0c-10.9,0-19.7-8.8-19.7-19.7v0
	C330.3,522.7,339.1,513.9,350,513.9z"/>
</svg>
