<?xml version="1.0" encoding="utf-8"?>
<!-- Generator: Adobe Illustrator 27.0.1, SVG Export Plug-In . SVG Version: 6.00 Build 0)  -->
<svg version="1.1" id="Capa_1" xmlns="http://www.w3.org/2000/svg" xmlns:xlink="http://www.w3.org/1999/xlink" x="0px" y="0px"
	 viewBox="0 0 700 700" style="enable-background:new 0 0 700 700;" xml:space="preserve">
<style type="text/css">
	.st0{fill:#FFFFFF;}
</style>
<g>
	<path class="st0" d="M330.6,429.4H266v-64.5c0-10.8-7.5-19.6-20.6-19.6c-10.8,0-19.6,8.8-19.6,19.6v64.5h-65.5
		c-10.8,0-19.6,9.8-19.6,20.6c0,10.8,8.8,19.6,19.6,19.6h65.5v65.5c0,10.8,8.8,19.6,19.6,19.6c13.3,0,20.6-8.8,20.6-19.6v-65.5h64.5
		c10.8,0,19.6-8.8,19.6-19.6C350.2,439.2,341.4,429.4,330.6,429.4z"/>
	<path class="st0" d="M659.3,409.7l-6.8-6.8c-32.7-32.7-85.8-34-119.9-2.3c-2.3,2.2,3.7-3.8-58.4,58.3V270.6
		c0-29.4-27.7-55.3-59.3-55.3h-24.3v-44.4h12.9c21,0,39.4-18,39.4-38.6V56.4c0-19.4-16.8-41.1-39.4-41.1H87.4
		C64.9,15.3,48,37,48,56.4v75.9c0,20.6,18.4,38.6,39.4,38.6h10.3v44.4H77.3c-30.6,0-61.9,25.2-61.9,55.3v356.5
		c0,29,30.7,56.5,61.9,56.5h337.6c8.4,0,17-1,24.9-4.8c33.1,9.1,65.6,4.5,92.4-19.5l127.2-127.2
		C693.1,498.4,693.1,443.5,659.3,409.7L659.3,409.7z M557.9,430.7c18.3-18.4,48.4-18.5,66.9,0l6.8,6.8c17.7,17.7,18.5,46.3,1.8,65
		c-1.4,1.6,3.7-3.6-50.1,50.2L509.6,479L557.9,430.7z M265,130.7V55.6h48.2v75.1H265z M175.5,130.7V55.6h50.3v75.1H175.5z
		 M402.6,56.8v73.5c-0.6,0.6,4.2,0.4-50.2,0.4V55.6h49.6c0.6,0.6,1.3,0.6,1.6,1.3L402.6,56.8z M88.3,130.3V56.8
		c0.2-0.7-0.1-0.7,0.6-1.3h46.5v75.1C84.5,130.7,88.9,130.9,88.3,130.3z M137.9,170.9h212.4v43.4H137.9V170.9z M55.6,627.1V270.6
		c0-5.7,10.5-16,21.7-16h337.6c10.2,0,19.1,9.2,19.1,16v227.6l-31,32c-31.5,31.5-33.6,81.3-6.4,115.3H77.3
		C66.6,645.4,55.6,633.5,55.6,627.1L55.6,627.1z M504.4,631.6c-18.5,18.5-48.5,18.5-66.9,0l-6.8-6.8c-18.5-18.5-18.5-48.4,0-66.9
		c44.2-44.2,5.1-5.1,51.2-51.2l73.7,73.7L504.4,631.6z"/>
</g>
</svg>
