<?xml version="1.0" encoding="utf-8"?>
<!-- Generator: Adobe Illustrator 27.0.1, SVG Export Plug-In . SVG Version: 6.00 Build 0)  -->
<svg version="1.1" id="regular" xmlns="http://www.w3.org/2000/svg" xmlns:xlink="http://www.w3.org/1999/xlink" x="0px" y="0px"
	 viewBox="0 0 700 700" style="enable-background:new 0 0 700 700;" xml:space="preserve">
<style type="text/css">
	.st0{fill:#243271;}
</style>
<g>
	<path class="st0" d="M412.7,601H287.3c-11.5,0-20.9-9.4-20.9-20.9c0-11.5,9.4-20.9,20.9-20.9h125.5c11.5,0,20.9,9.4,20.9,20.9
		C433.7,591.6,424.3,601,412.7,601z"/>
</g>
<g>
	<path class="st0" d="M350,108.6c-11,0-20-9-20-20V36.5c0-11,9-20,20-20s20,9,20,20v52.1C370,99.6,361,108.6,350,108.6z"/>
</g>
<g>
	<path class="st0" d="M107.4,363.9c0,11-9,20-20,20H35.3c-11,0-20-9-20-20c0-11,9-20,20-20h52.1C98.5,344,107.4,352.9,107.4,363.9z"
		/>
</g>
<g>
	<path class="st0" d="M683.9,363.9c0,11-9,20-20,20h-52.1c-11,0-20-9-20-20c0-11,9-20,20-20h52.1C674.9,344,683.9,352.9,683.9,363.9
		z"/>
</g>
<g>
	<g>
		<path class="st0" d="M159.6,187.4c-7.8,7.8-20.5,7.8-28.3,0l-36.9-36.9c-7.8-7.8-7.8-20.5,0-28.3s20.5-7.8,28.3,0l36.9,36.9
			C167.4,166.9,167.4,179.6,159.6,187.4z"/>
	</g>
	<g>
		<path class="st0" d="M540.4,187.4c-7.8-7.8-7.8-20.5,0-28.3l36.9-36.9c7.8-7.8,20.5-7.8,28.3,0c7.8,7.8,7.8,20.5,0,28.3
			l-36.9,36.9C560.9,195.2,548.2,195.2,540.4,187.4z"/>
	</g>
</g>
<g>
	<path class="st0" d="M454.6,363.9c-11.5,0-20.9-9.4-20.9-20.9c0-42.3-34.4-76.7-76.7-76.7c-11.5,0-20.9-9.4-20.9-20.9
		c0-11.5,9.4-20.9,20.9-20.9c65.3,0,118.5,53.2,118.5,118.5C475.5,354.6,466.1,363.9,454.6,363.9z"/>
</g>
<g>
	<path class="st0" d="M384.9,684.7h-69.7c-23.5,0-48.8-17.8-48.8-57v-49.2c0-29.6-12.6-56.8-33.7-72.6
		c-60.9-45.9-89.1-121.3-73.6-196.9c15.2-74.1,75.1-134.2,149.1-149.7c58.8-12.4,119,2,164.9,39.3c45.8,37.3,72.1,92.5,72.1,151.6
		c0,60.2-27.2,116-74.6,153.3c-23.5,18.5-37,44.2-37,70.5v62C433.7,662.8,411.8,684.7,384.9,684.7L384.9,684.7z M349.6,196.7
		c-10.9,0-21.9,1.1-33,3.4c-57.9,12.1-104.8,59.2-116.7,117.2c-12.2,59.6,9.9,119.1,57.8,155.1c31.5,23.8,50.4,63.4,50.4,106.1v49.2
		c0,2.5,0.3,15.2,7,15.2h69.7c3.8,0,7-3.1,7-7v-62c0-39.3,19.3-77,52.9-103.4c37.3-29.3,58.6-73.2,58.6-120.4
		c0-46.4-20.7-89.8-56.7-119.1C419.1,208.5,384.9,196.7,349.6,196.7L349.6,196.7z"/>
</g>
<g>
	<g>
		<path class="st0" d="M159.6,546.4l-36.9,36.9c-7.8,7.8-20.5,7.8-28.3,0c-7.8-7.8-7.8-20.5,0-28.3l36.9-36.9
			c7.8-7.8,20.5-7.8,28.3,0C167.4,525.9,167.4,538.6,159.6,546.4z"/>
	</g>
	<g>
		<path class="st0" d="M568.7,518.1l36.9,36.9c7.8,7.8,7.8,20.5,0,28.3c-7.8,7.8-20.5,7.8-28.3,0l-36.9-36.9
			c-7.8-7.8-7.8-20.5,0-28.3C548.2,510.3,560.9,510.3,568.7,518.1z"/>
	</g>
</g>
</svg>
