<?xml version="1.0" encoding="utf-8"?>
<!-- Generator: Adobe Illustrator 27.0.1, SVG Export Plug-In . SVG Version: 6.00 Build 0)  -->
<svg version="1.1" id="Layer_1" xmlns="http://www.w3.org/2000/svg" xmlns:xlink="http://www.w3.org/1999/xlink" x="0px" y="0px"
	 viewBox="0 0 700 700" style="enable-background:new 0 0 700 700;" xml:space="preserve">
<style type="text/css">
	.st0{fill:#FFFFFF;}
</style>
<path class="st0" d="M416.9,15.3H283.1c-55.4,0-100.4,44.9-100.4,100.4v33.5h-66.9c-55.4,0-100.4,44.9-100.4,100.4v334.7
	c0,55.4,44.9,100.4,100.4,100.4h468.5c55.4,0,100.4-44.9,100.4-100.4V249.6c0-55.4-44.9-100.4-100.4-100.4h-66.9v-33.5
	C517.3,60.3,472.4,15.3,416.9,15.3z M222.6,115.7c0-18.5,0-66,60.5-60.5h133.9c56.8,4.1,59.5,42,59.5,60.5v33.5H222.6V115.7z
	 M643.7,249.6v334.7c0.9,51.7-41,60.5-59.5,60.5H115.7c-18.5,0-60.4-9.9-60.5-60.5V249.6c0-18.5,15.2-62,60.5-60.5h468.5
	C637.5,189.2,643.7,231.1,643.7,249.6z"/>
<path class="st0" d="M461.2,389.2h-90.5V288.8c0-16.7-0.5-30.2-20.8-30.2c-16.7,0-20.2,13.5-20.2,30.2v100.5h-91
	c-16.7,0-30.2,4.1-30.2,20.8s13.5,20.2,30.2,20.2h91v91c0,16.7,3.5,30.2,20.2,30.2c20.5,0,20.8-13.5,20.8-30.2v-91h90.5
	c16.7,0,30.2-3.5,30.2-20.2S477.9,389.2,461.2,389.2z"/>
</svg>
