<?xml version="1.0" encoding="utf-8"?>
<!-- Generator: Adobe Illustrator 27.0.1, SVG Export Plug-In . SVG Version: 6.00 Build 0)  -->
<svg version="1.1" id="svg1371" xmlns:svg="http://www.w3.org/2000/svg"
	 xmlns="http://www.w3.org/2000/svg" xmlns:xlink="http://www.w3.org/1999/xlink" x="0px" y="0px" viewBox="0 0 700 700"
	 style="enable-background:new 0 0 700 700;" xml:space="preserve">
<style type="text/css">
	.st0{fill:none;stroke:#FFFFFF;stroke-width:40;stroke-linecap:round;stroke-miterlimit:13.3333;}
	.st1{fill:#FFFFFF;}
	.st2{fill:none;stroke:#FFFFFF;stroke-width:40;stroke-miterlimit:13.3333;}
</style>
<g id="g1379" transform="translate(268,132)">
	<path id="path1381" class="st0" d="M98,383.3H7.3"/>
</g>
<g id="g1391" transform="translate(100,132)">
	<path id="path1393" class="st1" d="M45.3,383.3c0-16.6,13.4-30,30-30s30,13.4,30,30c0,16.6-13.4,30-30,30S45.3,399.9,45.3,383.3"/>
</g>
<g id="g1395" transform="translate(402,259)">
	<path id="path1397" class="st0" d="M142.7,87h-269.3"/>
</g>
<g id="g1399" transform="translate(100,259)">
	<path id="path1401" class="st1" d="M45.3,87c0-16.6,13.4-30,30-30s30,13.4,30,30s-13.4,30-30,30S45.3,103.6,45.3,87"/>
</g>
<g id="g1403" transform="translate(402,379)">
	<path id="path1405" class="st0" d="M142.7-193h-269.3"/>
</g>
<g id="g1407" transform="translate(100,379)">
	<path id="path1409" class="st1" d="M45.3-193c0-16.6,13.4-30,30-30s30,13.4,30,30s-13.4,30-30,30S45.3-176.4,45.3-193"/>
</g>
<g id="g1411" transform="translate(398,187)">
	<path id="path1413" class="st2" d="M141.3,255C89.8,255,48,296.8,48,348.3s41.8,93.3,93.3,93.3s93.3-41.8,93.3-93.3
		S192.9,255,141.3,255z"/>
</g>
<g id="g1415" transform="translate(291,20)">
	<path id="path1417" class="st0" d="M105.7,644.7h-308c-29.5,0-53.3-23.9-53.3-53.3V68.7c0-29.5,23.9-53.3,53.3-53.3h522.7
		c29.5,0,53.3,23.9,53.3,53.3V370"/>
</g>
<g id="g1419" transform="translate(433,79)">
	<path id="path1421" class="st0" d="M171.7,525.7l54.2,54.2"/>
</g>
</svg>
