<?xml version="1.0" encoding="utf-8"?>
<!-- Generator: Adobe Illustrator 27.0.1, SVG Export Plug-In . SVG Version: 6.00 Build 0)  -->
<svg version="1.1" id="Layer_1" xmlns="http://www.w3.org/2000/svg" xmlns:xlink="http://www.w3.org/1999/xlink" x="0px" y="0px"
	 viewBox="0 0 700 700" style="enable-background:new 0 0 700 700;" xml:space="preserve">
<style type="text/css">
	.st0{fill:#FFFFFF;}
</style>
<path class="st0" d="M132.5,584.3c-1.4,0-2.8-0.2-4.2-0.5c-6.8-1.8-11.7-7.6-12.4-14.5l-15.1-150.8c-0.1-0.9-0.8-1.5-1.7-1.5
	c-46.2,0-83.7-37.5-83.7-83.7V99C15.4,52.8,52.8,15.4,99,15.3h334.7c46.2,0.1,83.6,37.5,83.7,83.7v234.3
	c-0.1,46.2-37.5,83.6-83.7,83.7H267c-5.5,0-10.6,2.7-13.7,7.1L146.2,577.1C143.1,581.6,138,584.3,132.5,584.3z M103.5,55.3
	c-26.9,0-48.7,21.8-48.7,48.7v227.3c0,26.9,21.8,48.7,48.7,48.7c17.6-0.1,34.2,7.4,37,30.5l9.9,90.6l70.3-100.4
	c17.7-20.2,30-23.8,45.9-23.8h161.7c26.9,0,48.7-18.8,48.7-45.7V104.1c0-26.9-21.8-48.7-48.7-48.7H103.5z"/>
<path class="st0" d="M263.3,297.6c-11.2,0-20.4-9.1-20.4-20.4v-28.9c-0.4-24.1,13.8-46.1,35.9-55.6c17.8-7.4,28-26.2,24.4-45.2
	c-3.2-16.5-16.1-29.4-32.6-32.6c-22.1-4.1-43.4,10.5-47.5,32.6c-0.5,2.5-0.7,5-0.7,7.5c0,11.2-9.1,20.4-20.4,20.4
	c-11.2,0-20.4-9.1-20.4-20.4c0-45,36.5-81.4,81.5-81.4c45,0,81.4,36.5,81.4,81.5c0,32.9-19.9,62.6-50.4,75.2
	c-6.8,3.3-11,10.3-10.7,17.9v28.9C283.7,288.5,274.6,297.6,263.3,297.6z"/>
<circle class="st0" cx="263.3" cy="338.3" r="20.4"/>
<path class="st0" d="M600.2,115.6h-82.9v40h78.3c26.9,0,48.7,21.8,48.7,48.7v227.3c0,26.9-21.8,48.7-48.7,48.7
	c-17.6-0.1-34.2,7.4-37,30.5l-9.9,90.6l-70.3-100.4c-17.7-20.2-30-23.8-45.9-23.8H270.9c-16.7,0-31.4-7.2-40.2-19.2h-45.1
	c10.6,34.1,42.3,58.9,79.9,59h166.6c5.5,0,10.6,2.7,13.7,7.1L553,677.4c3.1,4.5,8.3,7.2,13.8,7.1c1.4,0,2.8-0.2,4.2-0.5
	c6.8-1.8,11.7-7.6,12.4-14.5l15.1-150.8c0.1-0.9,0.8-1.5,1.7-1.5c46.2,0,83.7-37.5,83.7-83.7V199.2
	C683.8,153.1,646.4,115.6,600.2,115.6z"/>
</svg>
