<?xml version="1.0" encoding="utf-8"?>
<!-- Generator: Adobe Illustrator 27.0.1, SVG Export Plug-In . SVG Version: 6.00 Build 0)  -->
<svg version="1.1" id="svg8" xmlns:svg="http://www.w3.org/2000/svg"
	 xmlns="http://www.w3.org/2000/svg" xmlns:xlink="http://www.w3.org/1999/xlink" x="0px" y="0px" viewBox="0 0 700 700"
	 style="enable-background:new 0 0 700 700;" xml:space="preserve">
<style type="text/css">
	.st0{fill-rule:evenodd;clip-rule:evenodd;fill:#FFFFFF;}
</style>
<g id="layer1" transform="translate(0 -288.533)">
	<path id="rect825" vector-effect="none" class="st0" d="M127,303.9c-36.7,0-67.2,30.2-67.2,66.9V907c0,36.7,30.4,67.1,67.2,67.1
		v-40.7c-12.8,0-26.4-13.7-26.4-26.4V370.8c0-12.8,13.7-26.4,26.4-26.4h290.4v115.8c0,36.7,30.3,67,67,67h115.8V907
		c0,12.8-13.7,26.4-26.5,26.4H127v30.2v10.5h446.7c36.7,0,67.2-30.4,67.2-67.1V504.9c0-5.9-2.4-11.6-6.6-15.8L455.6,310.3
		c-4.2-4.2-9.9-6.5-15.8-6.4H127z M457.2,368.6l118.5,118.5h-91.3c-12.8,0-27.2-14.2-27.2-26.9L457.2,368.6z M216.4,529.5
		c-12.4,0-22.4,9-22.4,20c0,11,10,20,22.4,20h133.9c12.4,0,22.4-9,22.4-20c0-11-10-20-22.4-20l0,0H216.4z M216.4,618.9
		c-12.3-0.2-22.6,8.5-22.8,19.5c-0.3,11,9.5,20.2,21.8,20.4c0.3,0,0.7,0,1,0h268c12.3,0.2,22.6-8.5,22.8-19.5
		c0.3-11-9.5-20.2-21.8-20.4c-0.3,0-0.7,0-1,0H216.4z M214.1,708.3c-12.4,0.6-21.8,10-21.2,21c0.6,11,11.2,19.5,23.5,18.9l0,0h268
		c12.4,0,22.4-8.9,22.4-20s-10-20-22.4-20h-268C215.6,708.3,214.9,708.3,214.1,708.3z M484.5,797.6c-11,0-20,9-20,20l0,0
		c0,11,9,20,20,20l0,0c11,0,20-9,20-20l0,0C504.5,806.6,495.5,797.6,484.5,797.6L484.5,797.6z M214.1,797.7
		c-12.3,0.8-21.6,10.4-20.7,21.4c0.9,10.7,11,18.8,23,18.5H395c12.3,0.2,22.6-8.5,22.8-19.5c0.3-11-9.5-20.2-21.8-20.4
		c-0.3,0-0.7,0-1,0H216.4C215.6,797.7,214.9,797.7,214.1,797.7z"/>
</g>
</svg>
