<?xml version="1.0" encoding="utf-8"?>
<!-- Generator: Adobe Illustrator 27.7.0, SVG Export Plug-In . SVG Version: 6.00 Build 0)  -->
<svg version="1.1" id="Layer_1" xmlns="http://www.w3.org/2000/svg" xmlns:xlink="http://www.w3.org/1999/xlink" x="0px" y="0px"
	 viewBox="0 0 150 150" style="enable-background:new 0 0 150 150;" xml:space="preserve">
<style type="text/css">
	.st0{fill-rule:evenodd;clip-rule:evenodd;fill:#27336E;}
</style>
<g>
	<path class="st0" d="M30.4,25.9c-9.9,0-17.9,8-17.9,17.9v62.5c0,9.9,8,17.9,17.9,17.9h89.3c9.9,0,17.9-8,17.9-17.9V43.8
		c0-9.9-8-17.9-17.9-17.9H30.4z M54.9,43.8c-7.4,0-13.4,6-13.4,13.4s6,13.4,13.4,13.4s13.4-6,13.4-13.4S62.3,43.8,54.9,43.8z
		 M31.9,95.5c3.4-9.4,12.5-16.1,23-16.1s19.6,6.7,23,16.1c0.8,2.1-0.1,4.4-2.1,5.5c-6.3,3.3-13.4,5.2-21,5.2s-14.7-1.9-21-5.2
		C32,100,31.1,97.6,31.9,95.5z M92.9,52.7c-2.5,0-4.5,2-4.5,4.5s2,4.5,4.5,4.5h22.3c2.5,0,4.5-2,4.5-4.5s-2-4.5-4.5-4.5H92.9z
		 M88.4,75c0-2.5,2-4.5,4.5-4.5h22.3c2.5,0,4.5,2,4.5,4.5s-2,4.5-4.5,4.5H92.9C90.4,79.5,88.4,77.5,88.4,75z M92.9,88.4
		c-2.5,0-4.5,2-4.5,4.5s2,4.5,4.5,4.5h22.3c2.5,0,4.5-2,4.5-4.5s-2-4.5-4.5-4.5H92.9z"/>
</g>
</svg>
