<?xml version="1.0" encoding="utf-8"?>
<!-- Generator: Adobe Illustrator 27.7.0, SVG Export Plug-In . SVG Version: 6.00 Build 0)  -->
<svg version="1.1" id="Layer_1" xmlns="http://www.w3.org/2000/svg" xmlns:xlink="http://www.w3.org/1999/xlink" x="0px" y="0px"
	 viewBox="0 0 150 150" style="enable-background:new 0 0 150 150;" xml:space="preserve">
<style type="text/css">
	.st0{fill:#27336E;}
</style>
<g>
	<path class="st0" d="M71.8,26.8c1.7-1.7,4.6-1.7,6.3,0l51.7,51.7c1.7,1.7,4.6,1.7,6.3,0s1.7-4.6,0-6.3L84.5,20.5
		c-5.2-5.2-13.7-5.2-18.9,0L13.8,72.2c-1.7,1.7-1.7,4.6,0,6.3c1.7,1.7,4.6,1.7,6.3,0L71.8,26.8z"/>
	<path class="st0" d="M75,36.3l48.6,48.6c0.2,0.2,0.4,0.3,0.5,0.5v36.9c0,6.2-5,11.2-11.2,11.2h-20c-2.5,0-4.5-2-4.5-4.5v-26.8
		c0-2.5-2-4.5-4.5-4.5H66.1c-2.5,0-4.5,2-4.5,4.5V129c0,2.5-2,4.5-4.5,4.5h-20c-6.2,0-11.2-5-11.2-11.2V85.4
		c0.2-0.2,0.4-0.3,0.5-0.5L75,36.3z"/>
</g>
</svg>
