<?xml version="1.0" encoding="utf-8"?>
<!-- Generator: Adobe Illustrator 26.5.0, SVG Export Plug-In . SVG Version: 6.00 Build 0)  -->
<svg version="1.1" id="Layer_1" xmlns="http://www.w3.org/2000/svg" xmlns:xlink="http://www.w3.org/1999/xlink" x="0px" y="0px"
	 viewBox="0 0 100 100" style="enable-background:new 0 0 100 100;" xml:space="preserve">
<style type="text/css">
	.st0{fill:#DCDBDB;}
	.st1{fill:#BBBBBA;}
</style>
<g>
	<rect x="0.16" y="0.09" class="st0" width="100" height="100"/>
	<path class="st1" d="M79.61,95.84l-6.51-3.6c0,0-3.47-0.6-4.63-1.8c-1.16-1.2-1.12,0.63-1.12,0.63l-0.33-1.24
		c0,0-4.35-1.48-5.6-2.61c-3.27-2.96-3.41-9.09-2.86-14.06c2.33-2.08,5.26-5.06,5.35-6.95c0.14-3.14,1.13-4.17,1.13-4.17
		s2.3-0.4,3.52-5.05c0.39-1.47,0.58-5.6-1.17-4.9c0.45-2.19,1.08-4.86,1.94-9.73c0.61-3.43,0.5-6.39-0.13-8.94
		c0.83,2.22,1.04,4.06,1.04,4.06c0-4.01-1.45-6.8-2.95-8.61c-1.8-2.89-4.43-5-7.37-6.46c3,0.79,4.11,1.68,4.11,1.68
		c-1.96-1.85-5.29-2.75-7.91-3.19c-2.7-0.84-5.46-1.24-7.92-1.31c-0.89-0.02-1.71,0-2.46,0.07c3.25-1.15,5.68-0.97,5.68-0.97
		c-3.03-0.32-5.85,0.56-7.48,1.23c-1.5,0.31-2.67,0.8-3.57,1.36c1.29-2.09,2.35-2.49,2.35-2.49c-1.25,0.21-2.49,1.79-3.4,3.26
		c-1.65,1.44-1.97,2.97-1.97,2.97s-0.39-0.13-1.03-0.19c-1.29-0.26-4.03-0.67-5.3,0.15c0,0,1.99-0.32,3.7-0.09
		c-1.37,0.23-3.08,0.96-4.65,2.91c-1.01,0.88-2.7,2.55-3.05,4.08c0,0,0.66-0.76,1.44-1.49c-0.12,0.26-0.22,0.54-0.31,0.83
		c-0.44,0.39-0.79,0.93-0.83,1.66c0,0,0.25-0.44,0.64-0.93c-0.11,0.54-0.18,1.11-0.2,1.71c-0.43,1.05-0.76,2.56-0.64,4.72
		c0,0,0.08-1.77,0.63-3.53c0.02,0.77,0.09,1.57,0.2,2.4c-0.16,0.89-0.25,2.09-0.13,3.63c0,0,0.08-1.35,0.31-2.51
		c0.78,4.51,2.6,9.5,4.03,12.99c-0.87-0.26-2.42-0.22-2.14,3.02c0.29,3.28-0.56,1.14,1.88,6.84c1.03,2.42,1.63,1.76,1.88,1.22
		c-0.26,1.06-0.35,4.27,5.12,10.09c0.12,3.84-0.08,9.07-1.8,11.8c-1.55,2.48-8.19,5.53-8.19,5.53l-1.56,1.47c0,0,0,0-0.87-0.3
		c-0.87-0.3-2.6,1.8-2.6,1.8l-5.06,1.2l-6.65,5.86h71.44c0,0,0,0,0-0.9C83.66,98.09,79.61,95.84,79.61,95.84z"/>
</g>
</svg>
