<?xml version="1.0" encoding="utf-8"?>
<!-- Generator: Adobe Illustrator 27.2.0, SVG Export Plug-In . SVG Version: 6.00 Build 0)  -->
<svg version="1.1" id="svg8" xmlns:svg="http://www.w3.org/2000/svg"
	 xmlns="http://www.w3.org/2000/svg" xmlns:xlink="http://www.w3.org/1999/xlink" x="0px" y="0px" viewBox="0 0 700 700"
	 style="enable-background:new 0 0 700 700;" xml:space="preserve">
<style type="text/css">
	.st0{fill:#FFFFFF;}
</style>
<g>
	<path class="st0" d="M111.9,121.9c-28.6,0-51.9,23.2-51.9,51.9v197h331.8v-197c0-28.6-23.2-51.9-51.9-51.9L111.9,121.9L111.9,121.9
		z"/>
	<path class="st0" d="M391.9,412.2H60.1v72.6c0,28.6,23.2,51.9,51.9,51.9h10.4c0-45.8,37.1-83,83-83s83,37.1,83,83h83
		c11.5,0,20.7-9.3,20.7-20.7V412.2H391.9z"/>
	<path class="st0" d="M246.7,536.7c0-22.9-18.6-41.5-41.5-41.5s-41.5,18.6-41.5,41.5s18.6,41.5,41.5,41.5S246.7,559.6,246.7,536.7z"
		/>
	<path class="st0" d="M454.2,184.1c-11.5,0-20.7,9.3-20.7,20.7v311.1c0,2.4,0.4,4.7,1.2,6.8c6.6-39.2,40.7-69.1,81.8-69.1
		c45.5,0,82.4,36.6,83,81.9c23.6-4.8,42.1-25.9,40.5-52.1c-6.4-104.5-43.9-200.7-103.2-279.4c-9.8-13-25.1-20-40.7-20h-41.9V184.1z"
		/>
	<path class="st0" d="M557.9,536.7c0-22.9-18.6-41.5-41.5-41.5c-22.9,0-41.5,18.6-41.5,41.5s18.6,41.5,41.5,41.5
		C539.3,578.1,557.9,559.6,557.9,536.7z"/>
</g>
</svg>
