<?xml version="1.0" encoding="utf-8"?>
<!-- Generator: Adobe Illustrator 27.1.1, SVG Export Plug-In . SVG Version: 6.00 Build 0)  -->
<svg version="1.1" id="Layer_1" xmlns="http://www.w3.org/2000/svg" xmlns:xlink="http://www.w3.org/1999/xlink" x="0px" y="0px"
	 viewBox="0 0 62 62" style="enable-background:new 0 0 62 62;" xml:space="preserve">
<style type="text/css">
	.st0{fill:#FFFFFF;}
</style>
<g>
	<path class="st0" d="M51.4,15.4C51.4,15.4,51.3,15.3,51.4,15.4c-0.1-0.1-0.1-0.1-0.1-0.1C51.4,15.4,51.4,15.4,51.4,15.4
		C51.4,15.5,51.4,15.4,51.4,15.4z"/>
	<path class="st0" d="M41.1,2.8c-5.8-2.1-12.4-2.3-18.3-0.6c-5.8,1.6-11.1,5-14.9,9.7c-2,2.5-3.6,5.1-4.8,8.1
		c-1.2,2.9-1.8,5.9-2.1,9c-0.5,6.1,1,12.4,4.2,17.6c3.1,5.1,7.7,9.3,13.2,11.8c3,1.3,6,2.2,9.3,2.6c3.1,0.4,6.3,0.2,9.4-0.5
		c5.9-1.2,11.3-4.3,15.5-8.6c4.2-4.4,7-10,8-16c0.2-1.6,0.4-3.2,0.4-4.8c0-6.1-1.9-12.3-5.5-17.2C51.9,8.7,47,4.9,41.1,2.8z
		 M56.4,34.5c-0.3,2.2-0.9,4.4-1.8,6.5c-0.5,1.2-1.1,2.4-1.8,3.5c-0.4,0.6-0.7,1.2-1.1,1.7c-0.1,0.1-0.2,0.3-0.3,0.4c0,0,0,0,0,0
		c-0.2,0.3-0.4,0.5-0.6,0.8c-0.9,1-1.9,2-2.9,3c-0.2,0.2-0.5,0.4-0.8,0.7c-0.1,0.1-0.2,0.2-0.3,0.3c0,0,0.1,0,0.1-0.1
		c0,0-0.1,0.1-0.1,0.1c0,0,0,0,0,0c-0.1,0.1-0.3,0.2-0.2,0.1c-0.5,0.4-1.1,0.8-1.7,1.2c-1.2,0.8-2.6,1.5-3.9,2.1
		c-2.1,0.8-4.3,1.4-6.5,1.8c-2.3,0.3-4.6,0.3-6.9,0c-2.2-0.3-4.4-0.9-6.5-1.8c-1.2-0.5-2.4-1.1-3.5-1.8c-0.6-0.4-1.1-0.7-1.7-1.1
		c-0.1-0.1-0.3-0.2-0.4-0.3c0,0,0,0-0.1,0c-0.3-0.2-0.5-0.4-0.8-0.6c-1.1-0.9-2-1.9-2.9-2.9c-0.2-0.2-0.4-0.5-0.6-0.8
		c-0.1-0.1-0.2-0.2-0.3-0.3c0,0,0.1,0.1,0.1,0.1c0,0-0.1-0.1-0.1-0.1c0,0,0,0,0,0c-0.1-0.1-0.2-0.3-0.1-0.2
		c-0.4-0.5-0.8-1.1-1.1-1.7c-0.8-1.2-1.5-2.6-2.1-3.9c-0.8-2.1-1.4-4.3-1.8-6.5c-0.3-2.3-0.3-4.6,0-6.9c0.3-2.2,0.9-4.4,1.8-6.5
		c0.5-1.2,1.1-2.4,1.8-3.5c0.4-0.6,0.7-1.1,1.1-1.7c0.1-0.1,0.2-0.3,0.3-0.4c0,0,0,0,0-0.1c0.2-0.3,0.4-0.5,0.6-0.8
		c0.9-1.1,1.9-2,2.9-2.9c0.2-0.2,0.5-0.4,0.8-0.6c0.1-0.1,0.2-0.2,0.3-0.3c0,0-0.1,0.1-0.1,0.1c0.1,0,0.1-0.1,0.1-0.1c0,0,0,0,0,0
		c0.1-0.1,0.3-0.2,0.2-0.1c0.5-0.4,1.1-0.8,1.6-1.1c1.2-0.8,2.6-1.5,3.9-2.1c2.1-0.8,4.3-1.4,6.5-1.8c2.3-0.3,4.6-0.3,6.9,0
		c2.2,0.3,4.4,0.9,6.5,1.8c1.2,0.5,2.4,1.1,3.5,1.8c0.6,0.4,1.2,0.7,1.7,1.1c0.1,0.1,0.3,0.2,0.4,0.3c0,0,0,0,0,0
		c0.3,0.2,0.5,0.4,0.8,0.6c1,0.9,2,1.9,3,2.9c0.2,0.2,0.4,0.5,0.7,0.8c0.1,0.1,0.2,0.2,0.3,0.3c0,0,0-0.1-0.1-0.1
		c0,0.1,0.1,0.1,0.1,0.1c0,0,0,0,0,0c0.1,0.1,0.2,0.3,0.1,0.2c0.4,0.5,0.8,1.1,1.2,1.6c0.8,1.2,1.5,2.6,2.1,3.9
		c0.8,2.1,1.4,4.3,1.8,6.5c0.1,1.1,0.2,2.3,0.2,3.5C56.6,32.2,56.6,33.3,56.4,34.5z"/>
	<path class="st0" d="M46.6,51.4C46.6,51.4,46.7,51.3,46.6,51.4c0.1-0.1,0.1-0.1,0.1-0.1C46.6,51.4,46.5,51.4,46.6,51.4
		C46.5,51.4,46.6,51.4,46.6,51.4z"/>
	<path class="st0" d="M15.4,10.6C15.4,10.6,15.3,10.7,15.4,10.6c-0.1,0.1-0.1,0.1-0.1,0.1C15.4,10.6,15.4,10.6,15.4,10.6
		C15.5,10.6,15.4,10.6,15.4,10.6z"/>
	<path class="st0" d="M10.6,46.6C10.6,46.6,10.7,46.7,10.6,46.6c0.1,0.1,0.1,0.1,0.1,0.1C10.6,46.6,10.6,46.5,10.6,46.6
		C10.6,46.5,10.6,46.6,10.6,46.6z"/>
	<path class="st0" d="M47,29.5c-2-2.3-4.1-4.6-6.1-6.9c-0.3-0.3-0.6-0.6-0.9-1c-0.8-0.9-2.3-0.8-3.1,0c-0.8,0.9-0.8,2.2,0,3.1
		c1.2,1.4,2.5,2.8,3.7,4.2c-1.7,0-3.4,0-5,0c-2.7,0-5.4,0-8.2,0c-2.3,0-4.7,0-7,0c-1.1,0-2.3,0-3.4,0c0,0,0,0,0,0
		c-1.1,0-2.2,1-2.2,2.2c0.1,1.2,1,2.2,2.2,2.2c0.9,0,1.9,0,2.8,0c2.2,0,4.5,0,6.7,0c2.7,0,5.4,0,8.2,0c2,0,4,0,6,0
		c-0.9,1.1-1.9,2.1-2.8,3.2c-0.3,0.3-0.6,0.7-0.9,1c-0.4,0.4-0.6,1-0.6,1.5c0,0.5,0.2,1.2,0.6,1.5c0.8,0.8,2.3,0.9,3.1,0
		c2-2.3,4.1-4.6,6.1-6.9c0.3-0.3,0.6-0.7,0.9-1c0.1-0.1,0.2-0.3,0.3-0.4c0.2-0.3,0.3-0.7,0.3-1.1C47.6,30.5,47.4,29.8,47,29.5z"/>
</g>
</svg>
