<?xml version="1.0" encoding="utf-8"?>
<!-- Generator: Adobe Illustrator 26.5.0, SVG Export Plug-In . SVG Version: 6.00 Build 0)  -->
<svg version="1.1" id="Layer_1" xmlns="http://www.w3.org/2000/svg" xmlns:xlink="http://www.w3.org/1999/xlink" x="0px" y="0px"
	 viewBox="0 0 62 62" style="enable-background:new 0 0 62 62;" xml:space="preserve">
<g>
	<path d="M51.38,15.41c-0.02-0.03-0.05-0.06-0.07-0.09c-0.01-0.01-0.02-0.02-0.02-0.03c0.07,0.1,0.12,0.16,0.15,0.19
		C51.41,15.46,51.39,15.43,51.38,15.41z"/>
	<path d="M41.13,2.76c-5.81-2.12-12.36-2.31-18.3-0.63C17.06,3.76,11.77,7.17,7.97,11.8c-2.02,2.46-3.61,5.14-4.82,8.09
		c-1.17,2.86-1.83,5.9-2.06,8.98C0.62,34.98,2.13,41.25,5.31,46.5c3.09,5.09,7.73,9.3,13.17,11.76c2.97,1.34,6.05,2.18,9.29,2.56
		c3.13,0.36,6.32,0.18,9.41-0.45c5.86-1.2,11.34-4.27,15.47-8.59c4.17-4.36,7.05-9.99,7.96-15.96C60.85,34.21,61,32.61,61,31
		c-0.01-6.13-1.9-12.26-5.46-17.25C51.94,8.71,46.95,4.88,41.13,2.76z M56.43,34.45c-0.33,2.23-0.92,4.42-1.77,6.51
		c-0.53,1.21-1.13,2.38-1.82,3.51c-0.36,0.58-0.74,1.15-1.14,1.71c-0.1,0.14-0.21,0.28-0.31,0.42c-0.01,0.02-0.03,0.03-0.04,0.05
		c-0.21,0.26-0.41,0.52-0.63,0.77c-0.89,1.05-1.86,2.04-2.9,2.95c-0.25,0.22-0.5,0.44-0.76,0.65c-0.11,0.09-0.22,0.18-0.34,0.27
		c0.03-0.02,0.07-0.05,0.11-0.08c-0.05,0.03-0.09,0.07-0.13,0.1c0,0,0,0-0.01,0c-0.09,0.07-0.28,0.21-0.16,0.12
		c-0.54,0.4-1.09,0.78-1.65,1.15c-1.25,0.8-2.57,1.49-3.93,2.08c-2.09,0.85-4.26,1.44-6.49,1.77c-2.29,0.28-4.61,0.28-6.9,0
		c-2.23-0.33-4.42-0.92-6.5-1.77c-1.21-0.53-2.38-1.13-3.51-1.82c-0.58-0.36-1.15-0.74-1.71-1.14c-0.14-0.1-0.28-0.21-0.42-0.31
		c-0.02-0.01-0.03-0.03-0.05-0.04c-0.26-0.21-0.52-0.41-0.77-0.63c-1.05-0.89-2.04-1.86-2.95-2.9c-0.22-0.25-0.44-0.5-0.65-0.76
		c-0.09-0.11-0.18-0.22-0.27-0.34c0.02,0.03,0.05,0.07,0.08,0.11c-0.03-0.05-0.07-0.09-0.1-0.13c0,0,0,0,0-0.01
		c-0.07-0.09-0.21-0.28-0.12-0.16c-0.4-0.54-0.78-1.09-1.15-1.65c-0.8-1.25-1.49-2.57-2.08-3.93c-0.85-2.09-1.44-4.26-1.77-6.49
		c-0.28-2.29-0.28-4.61,0-6.9c0.33-2.23,0.92-4.42,1.77-6.5c0.53-1.21,1.13-2.38,1.82-3.51c0.36-0.58,0.74-1.15,1.14-1.71
		c0.1-0.14,0.21-0.28,0.31-0.42c0.01-0.02,0.03-0.03,0.04-0.05c0.21-0.26,0.41-0.52,0.63-0.77c0.89-1.05,1.86-2.04,2.9-2.95
		c0.25-0.22,0.5-0.44,0.76-0.65c0.11-0.09,0.22-0.18,0.34-0.27c-0.03,0.02-0.07,0.05-0.11,0.08c0.05-0.03,0.09-0.07,0.13-0.1
		c0,0,0,0,0.01,0c0.09-0.07,0.28-0.21,0.16-0.12c0.54-0.4,1.09-0.78,1.65-1.15c1.25-0.8,2.57-1.49,3.93-2.08
		c2.09-0.85,4.26-1.44,6.49-1.77c2.29-0.28,4.61-0.28,6.9,0c2.23,0.33,4.42,0.92,6.5,1.77c1.21,0.53,2.38,1.13,3.51,1.82
		c0.58,0.36,1.15,0.74,1.71,1.14c0.14,0.1,0.28,0.21,0.42,0.31c0.02,0.01,0.03,0.03,0.05,0.04c0.26,0.21,0.52,0.41,0.77,0.63
		c1.05,0.89,2.04,1.86,2.95,2.9c0.22,0.25,0.44,0.5,0.65,0.76c0.09,0.11,0.18,0.22,0.27,0.34c-0.02-0.03-0.05-0.07-0.08-0.11
		c0.03,0.05,0.07,0.09,0.1,0.13c0,0,0,0,0,0.01c0.07,0.09,0.21,0.28,0.12,0.16c0.4,0.54,0.78,1.09,1.15,1.65
		c0.8,1.25,1.49,2.57,2.08,3.93c0.85,2.09,1.44,4.26,1.77,6.49c0.14,1.14,0.21,2.29,0.22,3.45C56.64,32.15,56.56,33.3,56.43,34.45z"
		/>
	<path d="M46.59,51.38c0.03-0.02,0.06-0.05,0.09-0.07c0.01-0.01,0.02-0.02,0.03-0.02c-0.1,0.07-0.16,0.12-0.19,0.15
		C46.54,51.41,46.57,51.4,46.59,51.38z"/>
	<path d="M15.41,10.62c-0.03,0.02-0.06,0.05-0.09,0.07c-0.01,0.01-0.02,0.02-0.03,0.02c0.1-0.07,0.16-0.12,0.19-0.15
		C15.46,10.59,15.43,10.61,15.41,10.62z"/>
	<path d="M10.62,46.59c0.02,0.03,0.05,0.06,0.07,0.09c0.01,0.01,0.02,0.02,0.02,0.03c-0.07-0.1-0.12-0.16-0.15-0.19
		C10.59,46.55,10.61,46.57,10.62,46.59z"/>
	<path d="M46.97,29.46c-2.03-2.31-4.06-4.62-6.1-6.93c-0.29-0.33-0.58-0.65-0.86-0.98c-0.76-0.86-2.32-0.83-3.08,0
		c-0.84,0.92-0.81,2.17,0,3.08c1.23,1.39,2.46,2.79,3.68,4.18c-1.68,0-3.36,0-5.05,0c-2.72,0-5.44,0-8.16,0c-2.34,0-4.68,0-7.02,0
		c-1.14,0-2.28-0.02-3.41,0c-0.02,0-0.03,0-0.05,0c-1.14,0-2.23,1-2.18,2.18c0.05,1.18,0.96,2.18,2.18,2.18c0.93,0,1.86,0,2.79,0
		c2.24,0,4.47,0,6.71,0c2.72,0,5.44,0,8.16,0c2.01,0,4.02,0,6.02,0c-0.94,1.07-1.88,2.14-2.82,3.2c-0.29,0.33-0.58,0.65-0.86,0.98
		c-0.38,0.44-0.64,0.95-0.64,1.54c0,0.53,0.24,1.17,0.64,1.54c0.82,0.76,2.28,0.91,3.08,0c2.03-2.31,4.06-4.62,6.1-6.93
		c0.29-0.33,0.58-0.65,0.86-0.98c0.13-0.14,0.23-0.28,0.32-0.43c0.2-0.33,0.32-0.7,0.32-1.11C47.61,30.47,47.38,29.83,46.97,29.46z"
		/>
</g>
</svg>
