<?xml version="1.0" encoding="utf-8"?>
<!-- Generator: Adobe Illustrator 26.5.0, SVG Export Plug-In . SVG Version: 6.00 Build 0)  -->
<svg version="1.1" id="Layer_1" xmlns="http://www.w3.org/2000/svg" xmlns:xlink="http://www.w3.org/1999/xlink" x="0px" y="0px"
	 viewBox="0 0 42 42" style="enable-background:new 0 0 42 42;" xml:space="preserve">
<style type="text/css">
	.st0{fill:#FFFFFF;}
</style>
<g>
	<g>
		<path class="st0" d="M36.27,23.21L21.62,9.14c-0.38-0.36-0.95-0.36-1.33,0L5.64,23.21c-0.11,0.1-0.17,0.25-0.17,0.41v16.55
			c0,0.3,0.22,0.55,0.5,0.55h10.3c0.28,0,0.5-0.24,0.5-0.55V29.6c0-1.21,0.9-2.18,2.01-2.18h4.35c1.11,0,2.01,0.98,2.01,2.18v10.57
			c0,0.3,0.22,0.55,0.5,0.55h10.3c0.28,0,0.5-0.24,0.5-0.55V23.62C36.44,23.46,36.38,23.31,36.27,23.21z"/>
		<path class="st0" d="M40.31,17.75L23.61,1.8c-1.52-1.45-3.79-1.45-5.3,0L1.6,17.75c-0.82,0.79-0.86,2.17-0.09,3.01v0
			c0.71,0.77,1.84,0.81,2.6,0.09L19.63,5.99c0.76-0.73,1.9-0.73,2.65,0L37.8,20.85c0.75,0.72,1.89,0.68,2.6-0.09
			C41.18,19.92,41.13,18.54,40.31,17.75z"/>
	</g>
</g>
</svg>
