<?xml version="1.0" encoding="utf-8"?>
<!-- Generator: Adobe Illustrator 27.7.0, SVG Export Plug-In . SVG Version: 6.00 Build 0)  -->
<svg version="1.1" id="Layer_1" xmlns="http://www.w3.org/2000/svg" xmlns:xlink="http://www.w3.org/1999/xlink" x="0px" y="0px"
	 viewBox="0 0 150 150" style="enable-background:new 0 0 150 150;" xml:space="preserve">
<style type="text/css">
	.st0{fill:none;stroke:#243271;stroke-width:8;stroke-linecap:round;stroke-linejoin:round;}
	.st1{fill:none;stroke:#243271;stroke-width:8;stroke-linecap:round;}
</style>
<g>
	<path class="st0" d="M98.4,18.1c-1.7-6-7.2-10.4-13.8-10.4H65.4c-6.6,0-12.1,4.4-13.8,10.4 M98.4,18.1c0.4,1.2,0.5,2.6,0.5,3.9l0,0
		c0,2.6-2.1,4.8-4.8,4.8H56c-2.6,0-4.8-2.1-4.8-4.8l0,0c0-1.4,0.2-2.7,0.5-3.9 M98.4,18.1c4.1,0.3,8.2,0.7,12.3,1.2
		c7,0.8,12.2,6.8,12.2,13.8V117c0,7.8-6.4,14.3-14.4,14.3h-67c-7.9,0-14.4-6.4-14.4-14.3V33.1c0-7,5.1-13,12.2-13.8
		c4.1-0.5,8.2-0.9,12.3-1.2"/>
	<path class="st1" d="M49.5,47.4h51.1"/>
	<path class="st1" d="M49.5,66.4h51.1"/>
	<path class="st1" d="M49.5,85.4h51.1"/>
</g>
</svg>
