<?xml version="1.0" encoding="utf-8"?>
<!-- Generator: Adobe Illustrator 27.2.0, SVG Export Plug-In . SVG Version: 6.00 Build 0)  -->
<svg version="1.1" id="svg8" xmlns:svg="http://www.w3.org/2000/svg"
	 xmlns="http://www.w3.org/2000/svg" xmlns:xlink="http://www.w3.org/1999/xlink" x="0px" y="0px" viewBox="0 0 700 700"
	 style="enable-background:new 0 0 700 700;" xml:space="preserve">
<style type="text/css">
	.st0{fill-rule:evenodd;clip-rule:evenodd;}
</style>
<g>
	<path class="st0" d="M235.9,69.9c15.7-7.8,34.2-7.8,49.9,0l148.5,74.2c3.1,1.6,6.8,1.6,10,0l115-57.5c37.1-18.5,80.7,8.4,80.7,49.9
		v371.2c0,21.1-11.9,40.4-30.8,49.9l-144.9,72.5c-15.7,7.8-34.2,7.8-49.9,0l-148.5-74.2c-3.1-1.6-6.8-1.6-10,0l-115,57.5
		c-37.1,18.5-80.7-8.4-80.7-49.9V192.3c0-21.1,11.9-40.4,30.8-49.9L235.9,69.9z M260.8,171.6c12.3,0,22.3,10,22.3,22.3v245.3
		c0,12.3-10,22.3-22.3,22.3c-12.3,0-22.3-10-22.3-22.3V193.9C238.5,181.6,248.5,171.6,260.8,171.6z M461.5,260.8
		c0-12.3-10-22.3-22.3-22.3c-12.3,0-22.3,10-22.3,22.3v245.3c0,12.3,10,22.3,22.3,22.3c12.3,0,22.3-10,22.3-22.3V260.8z"/>
</g>
</svg>
