<?xml version="1.0" encoding="utf-8"?>
<!-- Generator: Adobe Illustrator 27.8.1, SVG Export Plug-In . SVG Version: 6.00 Build 0)  -->
<svg version="1.1" id="Layer_1" xmlns="http://www.w3.org/2000/svg" xmlns:xlink="http://www.w3.org/1999/xlink" x="0px" y="0px"
	 viewBox="0 0 150 150" style="enable-background:new 0 0 150 150;" xml:space="preserve">
<style type="text/css">
	.st0{fill:#A79CA7;}
	.st1{fill:#918291;}
	.st2{fill:none;stroke:#000000;stroke-width:3;stroke-linecap:round;stroke-linejoin:round;stroke-miterlimit:13.3333;}
	.st3{fill:#EAF6FF;}
	.st4{fill:#D8ECFE;}
	.st5{fill:#EAEFFE;}
	.st6{fill:#E2DEE2;}
	.st7{fill:#CBC4CB;}
	.st8{fill:#FED402;}
	.st9{fill:#FAC600;}
	.st10{fill:#27A5FE;}
	.st11{fill:#0593FC;}
	.st12{fill:#FE6C55;}
	.st13{fill:#FD544C;}
	.st14{fill:#F3F0F3;}
	.st15{fill:#FFFFFF;}
</style>
<g>
	<g id="g9706" transform="translate(457.7266,114.4502)">
		<path id="path9708" class="st0" d="M-325.2,0.4h-115.1v-77.1c0-1.6,1.3-2.9,2.9-2.9H-328c1.6,0,2.9,1.3,2.9,2.9V0.4z"/>
	</g>
	<g id="g9710" transform="translate(129,394.5996)">
		<path id="path9712" class="st1" d="M-90.2-359.7h-18.4c-1.6,0-2.9,1.3-2.9,2.9v77.1h18.4v-77.1C-93.1-358.5-91.8-359.7-90.2-359.7
			"/>
	</g>
	<g id="g9714" transform="translate(136,394.5996)">
		<path id="path9716" class="st2" d="M-95.2-359.7h-20.4c-1.6,0-2.9,1.3-2.9,2.9v77.1H-3.4v-77.1c0-1.6-1.3-2.9-2.9-2.9h-79"/>
	</g>
	<g id="g9718" transform="translate(83.6909,166.2861)">
		<path id="path9720" class="st3" d="M-57.9-66.3v-55.3c0-0.8,0.6-1.4,1.4-1.4h95.5c0.8,0,1.4,0.6,1.4,1.4v55.3
			c0,0.8-0.6,1.4-1.4,1.4h-95.5C-57.2-64.8-57.9-65.5-57.9-66.3"/>
	</g>
	<g id="g9722" transform="translate(125.3818,166.2861)">
		<path id="path9724" class="st4" d="M-87.7-66.3v-55.3c0-0.8,0.6-1.4,1.4-1.4h-11.9c-0.8,0-1.4,0.6-1.4,1.4v55.3
			c0,0.8,0.6,1.4,1.4,1.4h11.9C-87-64.8-87.7-65.5-87.7-66.3"/>
	</g>
	<g id="g9726" transform="translate(423.3091,365.2441)">
		<path id="path9728" class="st5" d="M-300.6-322h-45.6v58.2h45.6c0.8,0,1.4-0.6,1.4-1.4v-55.3C-299.1-321.4-299.8-322-300.6-322"/>
	</g>
	<path id="path9730" class="st4" d="M77.1,101.4h9V43.2h-9V101.4z"/>
	<g id="g9732" transform="translate(428.3091,269)">
		<path id="path9734" class="st2" d="M-304.1-198.3v-26c0-0.8-0.6-1.4-1.4-1.4h-45.6v58.2h45.6c0.8,0,1.4-0.6,1.4-1.4v-19.3"/>
	</g>
	<g id="g9736" transform="translate(499.5,131.9824)">
		<path id="path9738" class="st6" d="M-355-22.2h-139c-0.8,0-1.4,0.6-1.4,1.4v7.5c0,0.8,0.6,1.4,1.4,1.4h139c0.8,0,1.4-0.6,1.4-1.4
			v-7.5C-353.6-21.5-354.2-22.2-355-22.2"/>
	</g>
	<g id="g9740" transform="translate(88,100.6445)">
		<path id="path9742" class="st7" d="M-60.9,18.1v-7.5c0-0.8,0.6-1.4,1.4-1.4h-23c-0.8,0-1.4,0.6-1.4,1.4v7.5c0,0.8,0.6,1.4,1.4,1.4
			h23C-60.3,19.5-60.9,18.9-60.9,18.1"/>
	</g>
	<g id="g9744" transform="translate(376,95.6445)">
		<path id="path9746" class="st2" d="M-266.8,24.5h35.2c0.8,0,1.4-0.6,1.4-1.4v-7.5c0-0.8-0.6-1.4-1.4-1.4h-139
			c-0.8,0-1.4,0.6-1.4,1.4v7.5c0,0.8,0.6,1.4,1.4,1.4h93.7"/>
	</g>
	<g id="g9748" transform="translate(263.5,365.2441)">
		<path id="path9750" class="st2" d="M-186.4-322h-49.9c-0.8,0-1.4,0.6-1.4,1.4v55.3c0,0.8,0.6,1.4,1.4,1.4h49.9V-322z"/>
	</g>
	<g id="g9752" transform="translate(499.5,416.3555)">
		<path id="path9754" class="st8" d="M-360.9-386.5h-39.5c-0.8,0-1.4,0.6-1.4,1.4v26.2c0,0.8,0.6,1.4,1.4,1.4h4.2
			c0.8,0,1.4,0.6,1.4,1.4v6.4c0,1.2,1.3,1.8,2.3,1.1l11.5-8.7c0.2-0.2,0.5-0.3,0.9-0.3h19.1c0.8,0,1.4-0.6,1.4-1.4v-26.2
			C-359.5-385.9-360.1-386.5-360.9-386.5"/>
	</g>
	<g id="g9756" transform="translate(412.4526,320.2549)">
		<path id="path9758" class="st9" d="M-298.7-263c0-0.8-0.6-1.4-1.4-1.4h-4.2c-0.8,0-1.4-0.6-1.4-1.4v-24.6h-7.6
			c-0.8,0-1.4,0.6-1.4,1.4v26.2c0,0.8,0.6,1.4,1.4,1.4h4.2c0.8,0,1.4,0.6,1.4,1.4v6.4c0,1.2,1.3,1.8,2.3,1.1l6.7-5V-263z"/>
	</g>
	<g id="g9760" transform="translate(499.5,416.3555)">
		<path id="path9762" class="st2" d="M-360.9-386.5h-39.5c-0.8,0-1.4,0.6-1.4,1.4v26.2c0,0.8,0.6,1.4,1.4,1.4h4.2
			c0.8,0,1.4,0.6,1.4,1.4v6.4c0,1.2,1.3,1.8,2.3,1.1l11.5-8.7c0.2-0.2,0.5-0.3,0.9-0.3h19.1c0.8,0,1.4-0.6,1.4-1.4v-26.2
			C-359.5-385.9-360.1-386.5-360.9-386.5z"/>
	</g>
	<g id="g9764" transform="translate(399.8481,382.1982)">
		<path id="path9766" class="st2" d="M-289.7-342.6h17.4"/>
	</g>
	<g id="g9768" transform="translate(399.8481,348.7676)">
		<path id="path9770" class="st2" d="M-289.7-299.6h17.4"/>
	</g>
	<g id="g9772" transform="translate(173.5957,300.6328)">
		<path id="path9774" class="st10" d="M-122.1-239c-6.1,0-11.1,4.7-11.7,10.7l23.3,0C-111-234.3-116-239-122.1-239"/>
	</g>
	<g id="g9776" transform="translate(173.5957,300.6328)">
		<path id="path9778" class="st11" d="M-122.1-239c-6.1,0-11.1,4.7-11.7,10.7h8.9c0.4-4.4,3.3-8.1,7.2-9.8
			C-119-238.6-120.5-239-122.1-239"/>
	</g>
	<g id="g9780" transform="translate(173.5957,300.6328)">
		<path id="path9782" class="st2" d="M-122.1-239c-6.1,0-11.1,4.7-11.7,10.7l23.3,0C-111-234.3-116-239-122.1-239z"/>
	</g>
	<g id="g9784" transform="translate(195.938,320.2119)">
		<path id="path9786" class="st10" d="M-138.1-264.1c0,3.5-2.9,6.4-6.4,6.4c-3.5,0-6.4-2.9-6.4-6.4c0-3.5,2.9-6.4,6.4-6.4
			C-140.9-270.5-138.1-267.6-138.1-264.1"/>
	</g>
	<g id="g9788" transform="translate(195.938,320.2119)">
		<path id="path9790" class="st2" d="M-138.1-264.1c0,3.5-2.9,6.4-6.4,6.4c-3.5,0-6.4-2.9-6.4-6.4c0-3.5,2.9-6.4,6.4-6.4
			C-140.9-270.5-138.1-267.6-138.1-264.1z"/>
	</g>
	<g id="g9792" transform="translate(173.5957,198.6533)">
		<path id="path9794" class="st12" d="M-122.1-107.9c-6.1,0-11.1,4.7-11.7,10.7h23.3C-111-103.2-116-107.9-122.1-107.9"/>
	</g>
	<g id="g9796" transform="translate(189.25,195.5547)">
		<path id="path9798" class="st13" d="M-133.3-103.9c-1.4-0.6-2.9-0.9-4.5-0.9c-6.1,0-11.1,4.7-11.7,10.7h8.9
			C-140.1-98.5-137.2-102.3-133.3-103.9"/>
	</g>
	<g id="g9800" transform="translate(173.5957,198.6533)">
		<path id="path9802" class="st2" d="M-122.1-107.9c-6.1,0-11.1,4.7-11.7,10.7h23.3C-111-103.2-116-107.9-122.1-107.9z"/>
	</g>
	<g id="g9804" transform="translate(195.938,218.2334)">
		<path id="path9806" class="st12" d="M-138.1-133c0,3.5-2.9,6.4-6.4,6.4c-3.5,0-6.4-2.9-6.4-6.4c0-3.5,2.9-6.4,6.4-6.4
			C-140.9-139.4-138.1-136.6-138.1-133"/>
	</g>
	<g id="g9808" transform="translate(195.938,218.2334)">
		<path id="path9810" class="st2" d="M-138.1-133c0,3.5-2.9,6.4-6.4,6.4c-3.5,0-6.4-2.9-6.4-6.4c0-3.5,2.9-6.4,6.4-6.4
			C-140.9-139.4-138.1-136.6-138.1-133z"/>
	</g>
	<g id="g9812" transform="translate(263.5,365.2441)">
		<path id="path9814" class="st2" d="M-186.4-322h-49.9c-0.8,0-1.4,0.6-1.4,1.4v55.3c0,0.8,0.6,1.4,1.4,1.4h49.9V-322z"/>
	</g>
	<g id="g9816" transform="translate(83.6909,360.2441)">
		<path id="path9818" class="st2" d="M-57.9-315.6v27.7h51.3V-317h-49.9C-57.2-317-57.9-316.4-57.9-315.6z"/>
	</g>
	<g id="g9820" transform="translate(345.9043,209.6924)">
		<path id="path9822" class="st14" d="M-245.2-122.1c-7.9,0-14.4,6.1-15.1,13.8h30.2C-230.8-116-237.3-122.1-245.2-122.1"/>
	</g>
	<g id="g9824" transform="translate(361.4463,207.376)">
		<path id="path9826" class="st6" d="M-256.4-119.1c-1.4-0.4-2.9-0.7-4.4-0.7c-7.9,0-14.4,6.1-15.1,13.8h8.9
			C-266.5-112.2-262.2-117.3-256.4-119.1"/>
	</g>
	<g id="g9828" transform="translate(345.9043,209.6924)">
		<path id="path9830" class="st2" d="M-245.2-122.1c-7.9,0-14.4,6.1-15.1,13.8h30.2C-230.8-116-237.3-122.1-245.2-122.1z"/>
	</g>
	<g id="g9832" transform="translate(374.8477,235.0566)">
		<path id="path9834" class="st15" d="M-265.9-154.7c0,4.6-3.7,8.3-8.3,8.3s-8.3-3.7-8.3-8.3c0-4.6,3.7-8.3,8.3-8.3
			S-265.9-159.2-265.9-154.7"/>
	</g>
	<g id="g9836" transform="translate(337.1138,235.0566)">
		<path id="path9838" class="st14" d="M-239-154.7c0-3.6,2.2-6.6,5.4-7.7c-0.9-0.3-1.9-0.5-2.9-0.5c-4.6,0-8.3,3.7-8.3,8.3
			c0,4.6,3.7,8.3,8.3,8.3c1,0,2-0.2,2.9-0.5C-236.7-148.1-239-151.1-239-154.7"/>
	</g>
	<g id="g9840" transform="translate(374.8477,235.0566)">
		<path id="path9842" class="st2" d="M-265.9-154.7c0,4.6-3.7,8.3-8.3,8.3s-8.3-3.7-8.3-8.3c0-4.6,3.7-8.3,8.3-8.3
			S-265.9-159.2-265.9-154.7z"/>
	</g>
	<g id="g9844" transform="translate(299,337.5)">
		<path id="path9846" d="M-211.7-286.3c0,1.2-1,2.1-2.1,2.1c-1.2,0-2.1-1-2.1-2.1s1-2.1,2.1-2.1
			C-212.7-288.5-211.7-287.5-211.7-286.3"/>
	</g>
	<g id="g9848" transform="translate(320,337.5)">
		<path id="path9850" d="M-226.7-286.3c0,1.2-1,2.1-2.1,2.1c-1.2,0-2.1-1-2.1-2.1s1-2.1,2.1-2.1
			C-227.7-288.5-226.7-287.5-226.7-286.3"/>
	</g>
</g>
</svg>
