<?xml version="1.0" encoding="utf-8"?>
<!-- Generator: Adobe Illustrator 27.2.0, SVG Export Plug-In . SVG Version: 6.00 Build 0)  -->
<svg version="1.1" id="svg8" xmlns:svg="http://www.w3.org/2000/svg"
	 xmlns="http://www.w3.org/2000/svg" xmlns:xlink="http://www.w3.org/1999/xlink" x="0px" y="0px" viewBox="0 0 700 700"
	 style="enable-background:new 0 0 700 700;" xml:space="preserve">
<style type="text/css">
	.st0{fill-rule:evenodd;clip-rule:evenodd;}
</style>
<g>
	<path class="st0" d="M208.3,161c0-78.3,63.5-141.7,141.7-141.7c78.3,0,141.7,63.5,141.7,141.7S428.3,302.8,350,302.8
		S208.3,239.3,208.3,161z"/>
	<path class="st0" d="M90.2,605.3C92.6,463.9,208,350,350,350s257.4,113.9,259.8,255.3c0.2,9.4-5.2,18-13.8,21.9
		c-74.9,34.4-158.3,53.5-246,53.5c-87.8,0-171.1-19.2-246.1-53.5C95.4,623.3,90,614.7,90.2,605.3z"/>
</g>
</svg>
