<?xml version="1.0" encoding="utf-8"?>
<!-- Generator: Adobe Illustrator 27.8.1, SVG Export Plug-In . SVG Version: 6.00 Build 0)  -->
<svg version="1.1" id="Layer_1" xmlns="http://www.w3.org/2000/svg" xmlns:xlink="http://www.w3.org/1999/xlink" x="0px" y="0px"
	 viewBox="0 0 150 150" style="enable-background:new 0 0 150 150;" xml:space="preserve">
<style type="text/css">
	.st0{fill:#243271;}
</style>
<g>
	<g>
		<path class="st0" d="M27.7,57.6H14.8c-2.1,0-3.7,1.7-3.7,3.7v77.6h16.8V57.6H27.7z"/>
		<path class="st0" d="M135.2,57.6h-13.1v81.4h16.8V61.3C138.9,59.3,137.3,57.6,135.2,57.6z"/>
	</g>
	<g>
		<path class="st0" d="M81.5,113.9v25H68.5v-25H81.5z"/>
		<path class="st0" d="M111,26.4H99.2V14.8c0-2.1-1.7-3.7-3.7-3.7H55.1c-2.1,0-3.7,1.7-3.7,3.7v11.6H39c-2.1,0-3.7,1.7-3.7,3.7
			v108.8H61v-28.8c0-2.1,1.7-3.7,3.7-3.7h20.6c2.1,0,3.7,1.7,3.7,3.7v28.8h25.7V30.2C114.8,28.1,113.1,26.4,111,26.4L111,26.4z
			 M58.1,93.5h-4c-2.1,0-3.7-1.7-3.7-3.7S52,86,54.1,86h4c2.1,0,3.7,1.7,3.7,3.7S60.1,93.5,58.1,93.5z M58.1,78.5h-4
			c-2.1,0-3.7-1.7-3.7-3.7S52,71,54.1,71h4c2.1,0,3.7,1.7,3.7,3.7S60.1,78.5,58.1,78.5z M58.1,63.5h-4c-2.1,0-3.7-1.7-3.7-3.7
			c0-2.1,1.7-3.7,3.7-3.7h4c2.1,0,3.7,1.7,3.7,3.7S60.1,63.5,58.1,63.5z M77.1,93.5h-4c-2.1,0-3.7-1.7-3.7-3.7S71,86,73.1,86h4
			c2.1,0,3.7,1.7,3.7,3.7C80.8,91.8,79.1,93.5,77.1,93.5z M77.1,78.5h-4c-2.1,0-3.7-1.7-3.7-3.7S71,71,73.1,71h4
			c2.1,0,3.7,1.7,3.7,3.7S79.1,78.5,77.1,78.5z M77.1,63.5h-4c-2.1,0-3.7-1.7-3.7-3.7c0-2.1,1.7-3.7,3.7-3.7h4
			c2.1,0,3.7,1.7,3.7,3.7C80.8,61.8,79.1,63.5,77.1,63.5z M82.5,41h-3.7v3.7c0,2.1-1.7,3.7-3.7,3.7s-3.7-1.7-3.7-3.7V41h-3.7
			c-2.1,0-3.7-1.7-3.7-3.7c0-2.1,1.7-3.7,3.7-3.7h3.7v-3.7c0-2.1,1.7-3.7,3.7-3.7s3.7,1.7,3.7,3.7v3.7h3.7c2.1,0,3.7,1.7,3.7,3.7
			C86.2,39.3,84.7,41,82.5,41z M96,93.5h-4.1c-2.1,0-3.7-1.7-3.7-3.7s1.7-3.7,3.7-3.7h4c2.1,0,3.7,1.7,3.7,3.7
			C99.8,91.8,98.1,93.5,96,93.5z M96,78.5h-4.1c-2.1,0-3.7-1.7-3.7-3.7s1.7-3.7,3.7-3.7h4c2.1,0,3.7,1.7,3.7,3.7S98.1,78.5,96,78.5z
			 M96,63.5h-4.1c-2.1,0-3.7-1.7-3.7-3.7c0-2.1,1.7-3.7,3.7-3.7h4c2.1,0,3.7,1.7,3.7,3.7C99.8,61.8,98.1,63.5,96,63.5z"/>
	</g>
</g>
</svg>
