<?xml version="1.0" encoding="utf-8"?>
<!-- Generator: Adobe Illustrator 27.8.1, SVG Export Plug-In . SVG Version: 6.00 Build 0)  -->
<svg version="1.1" id="Layer_1" xmlns="http://www.w3.org/2000/svg" xmlns:xlink="http://www.w3.org/1999/xlink" x="0px" y="0px"
	 viewBox="0 0 150 150" style="enable-background:new 0 0 150 150;" xml:space="preserve">
<style type="text/css">
	.st0{fill:#0071BC;}
	.st1{fill:#B2DECF;}
	.st2{fill:#E6E6E6;}
	.st3{fill:#29ABE2;}
	.st4{fill:#455A64;}
	.st5{fill:#FFC107;}
</style>
<g>
	<polygon class="st0" points="120.5,135 135,93.6 97.8,93.6 	"/>
	<rect x="41.9" y="31.5" class="st1" width="72.4" height="95.2"/>
	<rect x="33.6" y="23.3" class="st2" width="72.4" height="86.9"/>
	<polygon class="st3" points="120.5,135 97.8,93.6 15,93.6 37.8,135 	"/>
	<polygon class="st0" points="83.3,41.9 75,41.9 75,33.6 66.7,33.6 66.7,41.9 58.4,41.9 58.4,50.2 66.7,50.2 66.7,58.4 75,58.4 
		75,50.2 83.3,50.2 	"/>
	<path d="M136.7,92.4c-0.4-0.5-1-0.9-1.7-0.9h-18.6v-60c0-1.1-0.9-2.1-2.1-2.1h-6.2v-6.2c0-1.1-0.9-2.1-2.1-2.1H56.4
		c0-4.6-3.7-8.3-8.3-8.3s-8.3,3.7-8.3,8.3h-6.2c-1.1,0-2.1,0.9-2.1,2.1v68.3H15c-1.1,0-2.1,0.9-2.1,2.1c0,0.3,0.1,0.7,0.3,1
		L35.9,136c0.4,0.7,1.1,1.1,1.8,1.1h82.8c0.9,0,1.7-0.5,1.9-1.4h0L137,94.3C137.2,93.7,137.1,93,136.7,92.4z M112.2,33.6v82
		l-4.2-7.6h0V33.6C108.1,33.6,112.2,33.6,112.2,33.6z M48.1,17.1c2.3,0,4.1,1.9,4.1,4.1H44C44,18.9,45.8,17.1,48.1,17.1z M35.7,25.3
		h16.6v6.2c0,1.1-0.9,2.1-2.1,2.1c-1.1,0-2.1-0.9-2.1-2.1v-2.1H44v2.1c0,3.4,2.8,6.2,6.2,6.2c3.4,0,6.2-2.8,6.2-6.2v-6.2H104v75.3
		l-4.4-8c-0.4-0.7-1.1-1.1-1.8-1.1H35.7L35.7,25.3L35.7,25.3z M39,132.9L18.5,95.7h78l20.5,37.2H39z M120.1,129.9l-3.7-6.8V95.7
		h15.7L120.1,129.9z"/>
	<path d="M58.4,52.2h6.2v6.2c0,1.1,0.9,2.1,2.1,2.1H75c1.1,0,2.1-0.9,2.1-2.1v-6.2h6.2c1.1,0,2.1-0.9,2.1-2.1v-8.3
		c0-1.1-0.9-2.1-2.1-2.1h-6.2v-6.2c0-1.1-0.9-2.1-2.1-2.1h-8.3c-1.1,0-2.1,0.9-2.1,2.1v6.2h-6.2c-1.1,0-2.1,0.9-2.1,2.1v8.3
		C56.4,51.3,57.3,52.2,58.4,52.2z M60.5,44h6.2c1.1,0,2.1-0.9,2.1-2.1v-6.2h4.1v6.2c0,1.1,0.9,2.1,2.1,2.1h6.2v4.1H75
		c-1.1,0-2.1,0.9-2.1,2.1v6.2h-4.1v-6.2c0-1.1-0.9-2.1-2.1-2.1h-6.2V44z"/>
	<rect x="54.3" y="64.7" width="43.5" height="4.1"/>
	<rect x="41.9" y="72.9" width="55.9" height="4.1"/>
	<rect x="41.9" y="81.2" width="47.6" height="4.1"/>
	<rect x="95.3" y="31.5" width="4.3" height="4.1"/>
	<rect x="95.7" y="39.8" width="4.1" height="4.1"/>
</g>
<g>
	<path class="st4" d="M38.9,54.8c-10.9,0-19.7,8.8-19.7,19.7v12.1c0,0.8,0.7,1.5,1.5,1.5h6.1c0.8,0,1.5-0.7,1.5-1.5V74.5
		c0-5.9,4.8-10.6,10.6-10.6s10.6,4.8,10.6,10.6v12.1c0,0.8,0.7,1.5,1.5,1.5h6.1c0.8,0,1.5-0.7,1.5-1.5V74.5
		C58.6,63.6,49.7,54.8,38.9,54.8z"/>
	<path class="st5" d="M20.6,85.1h36.4c4.2,0,7.6,3.4,7.6,7.6v27.3c0,4.2-3.4,7.6-7.6,7.6H20.6c-4.2,0-7.6-3.4-7.6-7.6V92.7
		C13.1,88.5,16.5,85.1,20.6,85.1z"/>
	<path class="st4" d="M46.4,101.8c0-4.2-3.4-7.6-7.6-7.6c-4.2,0-7.6,3.4-7.6,7.6c0,2.9,1.6,5.5,4.2,6.8l-1.2,8.2
		c-0.1,0.8,0.5,1.6,1.3,1.7c0.1,0,0.1,0,0.2,0h6.1c0.8,0,1.5-0.7,1.5-1.5c0-0.1,0-0.2,0-0.2l-1.2-8.2
		C44.8,107.3,46.4,104.7,46.4,101.8z"/>
	<path d="M57.1,88.2H51c-0.8,0-1.5-0.7-1.5-1.5V74.5c0-5.9-4.8-10.6-10.6-10.6s-10.6,4.8-10.6,10.6v12.1c0,0.8-0.7,1.5-1.5,1.5h-6.1
		c-0.8,0-1.5-0.7-1.5-1.5V74.5c0-10.9,8.8-19.7,19.7-19.7s19.7,8.8,19.7,19.7v12.1C58.6,87.5,57.9,88.2,57.1,88.2z M52.5,85.1h3
		V74.5c0-9.2-7.5-16.7-16.7-16.7s-16.7,7.5-16.7,16.7v10.6h3V74.5c0-7.5,6.1-13.7,13.7-13.7S52.5,67,52.5,74.5V85.1z"/>
	<path d="M57.1,127.6H20.6c-4.2,0-7.6-3.4-7.6-7.6V92.7c0-4.2,3.4-7.6,7.6-7.6h36.4c4.2,0,7.6,3.4,7.6,7.6v27.3
		C64.7,124.2,61.3,127.6,57.1,127.6z M20.6,88.2c-2.5,0-4.6,2-4.6,4.6v27.3c0,2.5,2,4.6,4.6,4.6h36.4c2.5,0,4.6-2,4.6-4.6V92.7
		c0-2.5-2-4.6-4.6-4.6H20.6L20.6,88.2z"/>
	<path d="M41.9,118.5h-6.1c-0.8,0-1.5-0.7-1.5-1.5c0-0.1,0-0.2,0-0.2l1.2-8.2c-3.8-1.9-5.3-6.4-3.4-10.2c1.9-3.8,6.4-5.3,10.2-3.4
		c3.8,1.9,5.3,6.4,3.4,10.2c-0.7,1.5-1.9,2.7-3.4,3.4l1.2,8.2c0.1,0.8-0.5,1.6-1.3,1.7C42,118.5,42,118.5,41.9,118.5z M37.6,115.5
		h2.6l-1.1-7.6c-0.1-0.7,0.4-1.5,1.1-1.7c1.9-0.5,3.3-2.3,3.3-4.3c0-2.5-2-4.6-4.6-4.6c-2.5,0-4.6,2-4.6,4.6c0,2,1.3,3.8,3.3,4.3
		c0.7,0.2,1.2,0.9,1.1,1.7L37.6,115.5z"/>
</g>
</svg>
