<?xml version="1.0" encoding="utf-8"?>
<!-- Generator: Adobe Illustrator 27.6.1, SVG Export Plug-In . SVG Version: 6.00 Build 0)  -->
<svg version="1.1" id="Layer_1" xmlns="http://www.w3.org/2000/svg" xmlns:xlink="http://www.w3.org/1999/xlink" x="0px" y="0px"
	 viewBox="0 0 150 150" style="enable-background:new 0 0 150 150;" xml:space="preserve">
<style type="text/css">
	.st0{fill-rule:evenodd;clip-rule:evenodd;fill:#0F172A;}
</style>
<path class="st0" d="M74.9,4.3C52.8,4.3,35,20.1,35,39.7v27.5h-4.4c-9.9,0-17.7,7.1-17.7,15.7v47.2c0,8.7,8,15.7,17.7,15.7h88.8
	c9.9,0,17.7-7.1,17.7-15.7V82.8c0-8.7-8-15.7-17.7-15.7h-4.5V39.7C114.9,20.1,97,4.3,74.9,4.3z M101.6,67.2V39.7
	c0-13-12-23.6-26.6-23.6S48.3,26.7,48.3,39.7v27.5H101.6z"/>
</svg>
