<?xml version="1.0" encoding="utf-8"?>
<!-- Generator: Adobe Illustrator 27.6.1, SVG Export Plug-In . SVG Version: 6.00 Build 0)  -->
<svg version="1.1" id="Layer_1" xmlns="http://www.w3.org/2000/svg" xmlns:xlink="http://www.w3.org/1999/xlink" x="0px" y="0px"
	 viewBox="0 0 150 150" style="enable-background:new 0 0 150 150;" xml:space="preserve">
<style type="text/css">
	.st0{fill:#0F172A;}
	.st1{fill-rule:evenodd;clip-rule:evenodd;fill:#0F172A;}
</style>
<g>
	<path class="st0" d="M75,91.4c9.1,0,16.4-7.4,16.4-16.4c0-9.1-7.4-16.4-16.4-16.4c-9.1,0-16.4,7.4-16.4,16.4
		C58.6,84.1,65.9,91.4,75,91.4z"/>
	<path class="st1" d="M13.6,78.9c-1-2.5-1-5.3,0-7.8C23.1,46.4,47,29,75,29c28,0,51.9,17.5,61.4,42.2c1,2.5,1,5.3,0,7.8
		C126.9,103.6,103,121,75,121C47,121,23.1,103.5,13.6,78.9z M101.3,75c0,14.5-11.8,26.3-26.3,26.3c-14.5,0-26.3-11.8-26.3-26.3
		c0-14.5,11.8-26.3,26.3-26.3C89.5,48.7,101.3,60.5,101.3,75z"/>
</g>
</svg>
