<?xml version="1.0" encoding="utf-8"?>
<!-- Generator: Adobe Illustrator 27.4.0, SVG Export Plug-In . SVG Version: 6.00 Build 0)  -->
<svg version="1.1" id="Layer_1" xmlns="http://www.w3.org/2000/svg" xmlns:xlink="http://www.w3.org/1999/xlink" x="0px" y="0px"
	 viewBox="0 0 114.8 108" style="enable-background:new 0 0 114.8 108;" xml:space="preserve">
<style type="text/css">
	.st0{fill:#243271;}
</style>
<g>
	<g>
		<g>
			<path class="st0" d="M96.8,50.2c-2,0-3.6,1.6-3.6,3.6v35.9c0,2-1.6,3.6-3.6,3.6H25.1c-2,0-3.6-1.6-3.6-3.6V17.9
				c0-2,1.6-3.6,3.6-3.6h43c2,0,3.6-1.6,3.6-3.6s-1.6-3.6-3.6-3.6h-43c-5.9,0-10.8,4.8-10.8,10.8v71.7c0,5.9,4.8,10.8,10.8,10.8
				h64.6c5.9,0,10.8-4.8,10.8-10.8V53.8C100.4,51.8,98.8,50.2,96.8,50.2z"/>
		</g>
	</g>
	<g>
		<g>
			<path class="st0" d="M110.8,4c-2.6-2.6-6.1-4-9.7-4c-3.6,0-7.1,1.4-9.7,4L44.1,51.3c-0.4,0.4-0.7,0.9-0.9,1.4l-7.2,21.5
				c-0.6,1.9,0.4,3.9,2.3,4.5c0.4,0.1,0.7,0.2,1.1,0.2c0.4,0,0.8-0.1,1.1-0.2l21.5-7.2c0.5-0.2,1-0.5,1.4-0.9l47.2-47.2
				C116.1,18.1,116.1,9.4,110.8,4z M105.7,18.4L59.1,65l-13.9,4.7l4.6-13.9L96.4,9.1c2.6-2.6,6.7-2.6,9.3,0c1.2,1.2,1.9,2.9,1.9,4.6
				C107.6,15.5,106.9,17.1,105.7,18.4z"/>
		</g>
	</g>
</g>
</svg>
