<?xml version="1.0" encoding="utf-8"?>
<!-- Generator: Adobe Illustrator 27.7.0, SVG Export Plug-In . SVG Version: 6.00 Build 0)  -->
<svg version="1.1" id="Icon" xmlns="http://www.w3.org/2000/svg" xmlns:xlink="http://www.w3.org/1999/xlink" x="0px" y="0px"
	 viewBox="0 0 512 512" style="enable-background:new 0 0 512 512;" xml:space="preserve">
<style type="text/css">
	.st0{fill:#243271;}
</style>
<path id="Shop_2_" class="st0" d="M437.3,245.3V448c0,5.9-4.8,10.7-10.7,10.7h-192v-160c0-5.9-4.8-10.7-10.7-10.7h-85.3
	c-5.9,0-10.7,4.8-10.7,10.7v160H85.3c-5.9,0-10.7-4.8-10.7-10.7V245.3h3.6c15.6,0,29.9-7.6,38.7-19.7c0.2,0.2,0.4,0.5,0.5,0.8
	c9.2,12,23.1,18.9,38.2,18.9h13.4c16.2,0,30.5-8,39.3-20.4c0.7,0.9,1.4,1.8,2.1,2.6c10.1,11.3,24.6,17.8,39.7,17.8h11.3
	c15.1,0,29.7-6.5,39.7-17.8c0.7-0.9,1.4-1.8,2.1-2.6c8.7,12.4,23.1,20.4,39.3,20.4h13.4c15.1,0,29.1-6.9,38.2-18.9
	c0.2-0.3,0.3-0.6,0.5-0.8c8.9,12.1,23.1,19.7,38.7,19.7L437.3,245.3z M384,384v-85.3c0-5.9-4.8-10.7-10.7-10.7h-74.7
	c-5.9,0-10.7,4.8-10.7,10.7V384c0,5.9,4.8,10.7,10.7,10.7h74.7C379.2,394.7,384,389.9,384,384z M116.8,53.3c-8.4,0-16.1,5-19.5,12.7
	L43.7,186.5c-3.9,8.7-2.9,18.3,2.6,26.1C51.5,220,60.2,224,69.2,224h9.1c11.9,0,22.5-8.1,25.7-19.5l24.7-89L146,53.3H116.8z
	 M168.1,53.3l-38,136.9c-2.2,8.1-0.6,16.6,4.5,23.3c5.1,6.7,12.8,10.5,21.2,10.5h13.4c13.7,0,25-10.2,26.5-23.7l16.4-146.9H168.1z
	 M278.5,53.3h-44.9l-15,135.1c-1,9,1.9,18.1,8,24.9c6.1,6.9,14.6,10.7,23.8,10.7h11.3c9.2,0,17.7-3.8,23.8-10.7
	c6.1-6.8,9-15.8,8-24.9L278.5,53.3z M343.9,53.3h-44l16.4,146.9c1.5,13.5,12.9,23.7,26.5,23.7h13.4c8.4,0,16.2-3.8,21.2-10.5
	c5.1-6.7,6.7-15.2,4.5-23.3L343.9,53.3z M414.7,66c-3.4-7.7-11.1-12.7-19.5-12.7H366l17.3,62.1l24.7,89
	c3.2,11.5,13.8,19.5,25.7,19.5h9.1c9,0,17.7-4,22.9-11.4c5.5-7.8,6.4-17.4,2.6-26.1L414.7,66z"/>
</svg>
