<?xml version="1.0" encoding="utf-8"?>
<!-- Generator: Adobe Illustrator 27.8.1, SVG Export Plug-In . SVG Version: 6.00 Build 0)  -->
<svg version="1.1" id="Layer_1" xmlns="http://www.w3.org/2000/svg" xmlns:xlink="http://www.w3.org/1999/xlink" x="0px" y="0px"
	 viewBox="0 0 150 150" style="enable-background:new 0 0 150 150;" xml:space="preserve">
<style type="text/css">
	.st0{fill-rule:evenodd;clip-rule:evenodd;fill:#0F172A;}
</style>
<g>
	<path class="st0" d="M33,20.8c13.7-2,27.7-3.1,42-3.1c14.3,0,28.3,1,42,3.1c11.6,1.7,19.7,11.9,19.7,23.3v35.4
		c0,11.4-8,21.6-19.7,23.3c-6.7,1-13.5,1.7-20.4,2.3c-0.7,0.1-1.4,0.4-1.7,1l-16.2,24.3c-0.8,1.2-2.2,2-3.7,2s-2.8-0.7-3.7-2
		L55.1,106c-0.4-0.6-1-0.9-1.7-1c-6.9-0.5-13.7-1.3-20.4-2.3c-11.6-1.7-19.7-11.9-19.7-23.3V44.1C13.3,32.7,21.4,22.5,33,20.8z
		 M44.2,53c0-2.4,2-4.4,4.4-4.4h52.9c2.4,0,4.4,2,4.4,4.4s-2,4.4-4.4,4.4H48.6C46.1,57.4,44.2,55.4,44.2,53z M48.6,66.2
		c-2.4,0-4.4,2-4.4,4.4s2,4.4,4.4,4.4H75c2.4,0,4.4-2,4.4-4.4s-2-4.4-4.4-4.4H48.6z"/>
</g>
</svg>
