<?xml version="1.0" encoding="utf-8"?>
<!-- Generator: Adobe Illustrator 27.8.1, SVG Export Plug-In . SVG Version: 6.00 Build 0)  -->
<svg version="1.1" id="Layer_1" xmlns="http://www.w3.org/2000/svg" xmlns:xlink="http://www.w3.org/1999/xlink" x="0px" y="0px"
	 viewBox="0 0 150 150" style="enable-background:new 0 0 150 150;" xml:space="preserve">
<style type="text/css">
	.st0{fill:#7FB3FA;}
	.st1{fill:#DBEDFF;}
	.st2{fill:#64A6F4;}
	.st3{fill-rule:evenodd;clip-rule:evenodd;fill:#FFD18D;}
	.st4{fill-rule:evenodd;clip-rule:evenodd;fill:#E6BC7F;}
	.st5{fill-rule:evenodd;clip-rule:evenodd;fill:#ECEAEC;}
	.st6{fill-rule:evenodd;clip-rule:evenodd;fill:#1BADDE;}
	.st7{fill-rule:evenodd;clip-rule:evenodd;fill:#4E3D4D;}
	.st8{fill-rule:evenodd;clip-rule:evenodd;fill:#736572;}
	.st9{fill-rule:evenodd;clip-rule:evenodd;fill:#DBD8DB;}
	.st10{fill-rule:evenodd;clip-rule:evenodd;fill:#463745;}
	.st11{fill-rule:evenodd;clip-rule:evenodd;fill:#D4D3D4;}
</style>
<g>
	<g>
		<path class="st0" d="M14.5,121.8V46.2c0-2.9,2.4-5.3,5.3-5.3l0,0h110.4c2.9,0,5.3,2.4,5.3,5.3l0,0v75.7H90.3v3.1H59.7v-3.1H14.5z"
			/>
		<path class="st1" d="M22.4,48.8h105.2V114H22.4L22.4,48.8z"/>
		<path class="st2" d="M90.3,121.8v3.1H59.7v-3.1h-52v5.1c0,2.9,2.4,5.3,5.3,5.3h124.2c2.9,0,5.3-2.4,5.3-5.3v-5.1H90.3z"/>
		<g>
			<path d="M20.3,48.8V114c0,1.1,0.9,2,2,2h105.2c1.1,0,2-0.9,2-2V48.8c0-1.1-0.9-2-2-2H22.4C21.3,46.7,20.3,47.6,20.3,48.8
				L20.3,48.8z M24.4,50.8h101.1v61.1H24.4L24.4,50.8z"/>
			<path d="M100.5,43h5.3c1.1,0,2-0.9,2-2c0-1.1-0.9-2-2-2h-5.3c-1.1,0-2,0.9-2,2C98.4,42,99.4,43,100.5,43z"/>
			<path d="M142.4,119.8h-4.9V46.2c0-4-3.3-7.3-7.3-7.3H117c-1.1,0-2,0.9-2,2c0,1.1,0.9,2,2,2h13.2c1.8,0,3.2,1.4,3.2,3.2v73.6H90.3
				c-1.1,0-2,0.9-2,2v1.1H61.7v-1.1c0-1.1-0.9-2-2-2H16.6V46.2c0-1.8,1.4-3.2,3.2-3.2h69.9c1.1,0,2-0.9,2-2s-0.9-2-2-2H19.8
				c-4,0-7.3,3.3-7.3,7.3v73.6H7.6c-1.1,0-2,0.9-2,2v5.1c0,4,3.3,7.3,7.3,7.3h16.8c1.1,0,2-0.9,2-2c0-1.1-0.9-2-2-2H12.9
				c-1.8,0-3.2-1.4-3.2-3.2v-3h47.9v1.1c0,1.1,0.9,2,2,2h30.7c1.1,0,2-0.9,2-2v-1.1h47.9v3c0,1.8-1.4,3.2-3.2,3.2H40.6
				c-1.1,0-2,0.9-2,2c0,1.1,0.9,2,2,2h96.5c4,0,7.3-3.3,7.3-7.3v-5.1C144.4,120.7,143.5,119.8,142.4,119.8L142.4,119.8z"/>
		</g>
	</g>
	<g>
		<g>
			<path class="st3" d="M62.9,71.1h24.3v27.2H62.9V71.1z"/>
			<path class="st4" d="M87.1,72.3v3c-3.6,2.1-7.7,3.2-12.1,3.2c-2.5,0-4.9-0.4-7.2-1.1c-1.1-0.3-2.1,0.5-2.1,1.6v8.1h-2.8V72.3
				C66.4,74.6,70.5,76,75,76C79.5,76,83.7,74.6,87.1,72.3z"/>
			<path class="st5" d="M92.6,85.2l17.6,6c3.7,1.3,6,4.6,6,8.4v10.4c0,1.9-1.6,3.5-3.5,3.5H37.3c-1.9,0-3.5-1.6-3.5-3.5V99.7
				c0-3.9,2.4-7.2,6-8.4l17.6-6L75.3,87L92.6,85.2z"/>
			<path class="st6" d="M74.9,113.3l17.7-28.1L75,86.7l-17.6-1.5L74.9,113.3z"/>
			<path class="st7" d="M72.1,11.5h5.7c12.6,0,22.9,10.3,22.9,22.9v9.8c0,7.2-5.9,13.1-13.1,13.1H62.3c-7.2,0-13.1-5.9-13.1-13.1
				v-9.8C49.2,21.8,59.5,11.5,72.1,11.5L72.1,11.5z"/>
			<path class="st3" d="M51.2,46.4H53c1.7,0,2.9-1.4,3.1-3.1v-4.9c0-1.3,1.2-2.2,2.4-1.8c5.8,1.9,15.1,2.6,23-6.8
				c0.7-0.8,2-0.9,2.7-0.1c2,2,5.6,4.4,8.3,5.3c0.8,0.3,1.3,0.9,1.3,1.8v6.5c0,1.7,1.4,3.1,3.1,3.1h1.8c2.5,0,4.5,2,4.5,4.5
				s-2,4.5-4.5,4.5h-2C96.2,66.8,86.6,76,75,76c-11.6,0-21.2-9.1-21.9-20.6h-2c-2.5,0-4.5-2-4.5-4.5C46.7,48.4,48.7,46.4,51.2,46.4
				L51.2,46.4z"/>
			<path class="st8" d="M81.3,86.8l-1.8,8.9c-0.1,0.7-0.5,1.3-1.1,1.7l1.6,7.9l-5.1,8.1l-4.9-7.9l1.6-8.1c-0.5-0.4-0.9-1-1.1-1.7
				l-2.3-8.9L81.3,86.8z"/>
			<path class="st9" d="M57.4,85.2l5.3,8.5c0.6,1,2.1,1.1,3,0.4l9.3-7.4l-12.3-6.6c-1.1-0.6-2.6-0.2-3.2,0.9L57.4,85.2z"/>
			<path class="st9" d="M92.6,85.2l-5.3,8.5c-0.6,1-2.1,1.1-3,0.4L75,86.7l12.3-6.6c1.1-0.6,2.6-0.2,3.2,0.9L92.6,85.2z"/>
			<path class="st4" d="M59.7,57.1V37c-0.4-0.1-0.8-0.2-1.1-0.3c-1.2-0.4-2.4,0.5-2.4,1.8v4.9c-0.2,1.7-1.4,3.1-3.1,3.1h-1.8
				c-0.6,0-1.2,0.1-1.7,0.4c-1.6,0.7-2.7,2.3-2.7,4.1c0,2.5,2,4.5,4.5,4.5h2c0.4,7.1,4.2,13.2,9.7,16.9C66.3,74.6,70.5,76,75,76
				c0.2,0,0.5,0,0.7,0c-4.3-0.2-8.2-2-11.1-4.9c-3-3-4.9-7.2-4.9-11.8L59.7,57.1z"/>
			<path class="st10" d="M56.1,43.3v-4.9c0-1.3,1.2-2.2,2.4-1.8c0.4,0.1,0.7,0.2,1.1,0.3V15.2c-6.3,4.1-10.5,11.2-10.5,19.2v9.8
				c0,0.9,0.1,1.7,0.2,2.5c0.5-0.2,1.1-0.4,1.7-0.4H53C54.7,46.4,55.9,45,56.1,43.3L56.1,43.3z"/>
			<g>
				<path class="st11" d="M43.2,92.6l3.7-1.3v-2.5l-7.1,2.4c-3.7,1.3-6,4.6-6,8.4v10.4c0,1.9,1.6,3.5,3.5,3.5h0.7
					c-0.5-0.6-0.7-1.4-0.7-2.2V101C37.2,97.2,39.5,93.9,43.2,92.6z"/>
				<path class="st11" d="M50.2,88.2v2l8.5-2.9l-1.3-2.1l-7.3,2.5C50.2,87.9,50.2,88,50.2,88.2L50.2,88.2z"/>
			</g>
		</g>
		<path d="M110.8,89.7l-17-5.8l-1.9-3.6c-0.5-0.9-1.3-1.6-2.3-1.9c-0.2-0.1-0.5-0.1-0.7-0.2v-5c0.8-0.6,1.6-1.3,2.4-2
			c4-3.8,6.5-8.8,7.2-14.2h0.4c3.4,0,6.1-2.7,6.1-6.1c0-2.1-1-3.9-2.6-5c0.1-0.6,0.1-1.1,0.1-1.6v-9.8c0-13.6-11-24.6-24.6-24.6
			h-5.7c-13.6,0-24.6,11-24.6,24.6v9.8c0,0.6,0,1.1,0.1,1.6c-1.6,1.1-2.6,2.9-2.6,5c0,3.4,2.7,6.1,6.1,6.1h0.4
			c0.8,6.7,4.4,12.4,9.6,16.2v5c-0.3,0-0.5,0.1-0.8,0.2c-1,0.3-1.8,1-2.3,1.9l-1.9,3.6l-17,5.8c-4.3,1.5-7.2,5.4-7.2,10v10.4
			c0,2.9,2.3,5.2,5.2,5.2h75.5c2.9,0,5.2-2.3,5.2-5.2V99.7C117.9,95.1,115.1,91.2,110.8,89.7L110.8,89.7z M99.5,103.4
			c1.1,0,2,0.9,2,2c0,1.1-0.9,2-2,2c-1.1,0-2-0.9-2-2C97.6,104.3,98.4,103.4,99.5,103.4z M66,95.8c0.3-0.1,0.5-0.3,0.7-0.5l1.7-1.3
			l0.5,2c0.2,0.7,0.5,1.3,0.9,1.8l-0.6,3.2L66,95.8z M71.7,105.1l1.5-7.5c0.1-0.6-0.1-1.3-0.6-1.7c-0.2-0.2-0.4-0.4-0.5-0.7
			l-0.9-3.4l3.8-3l3.6,2.9l-0.7,3.7c-0.1,0.3-0.2,0.5-0.4,0.6c-0.6,0.4-0.8,1-0.7,1.7l1.5,7.3l-3.3,5.3l-2.9-4.6L71.7,105.1z
			 M80.8,100.9l-0.6-3c0.5-0.5,0.8-1.2,0.9-1.9l0.4-2l1.8,1.4c0.2,0.2,0.4,0.3,0.7,0.4L80.8,100.9z M88.9,81.8l1.8,3.3l-4.9,7.6
			c0,0.1-0.1,0.1-0.2,0.1c-0.1,0-0.2,0-0.3-0.1l-3.9-3.1c0,0,0,0,0,0L78,87l9.9-5.3c0,0,0,0,0.1,0l0.1,0c0.2-0.1,0.4-0.1,0.5-0.1
			C88.7,81.5,88.9,81.6,88.9,81.8L88.9,81.8z M50.9,44.2v-9.8c0-11.7,9.5-21.3,21.3-21.3h5.7c11.7,0,21.3,9.5,21.3,21.3v9.8
			c0,0.2,0,0.4,0,0.5c-0.1,0-0.2,0-0.3,0H97c-0.8,0-1.5-0.7-1.5-1.5v-6.5c0-1.5-0.9-2.8-2.4-3.3c-2.4-0.8-5.7-3-7.7-4.9
			c-0.7-0.7-1.7-1.1-2.6-1c-1,0-1.9,0.5-2.5,1.2c-7.6,9-16.6,7.8-21.3,6.3c-1.1-0.3-2.2-0.2-3.1,0.5c-0.9,0.7-1.4,1.7-1.4,2.8v4.8
			c-0.1,0.8-0.6,1.6-1.5,1.6h-1.8c-0.1,0-0.2,0-0.3,0C50.9,44.6,50.9,44.4,50.9,44.2L50.9,44.2z M54.8,55.2c0-0.9-0.8-1.6-1.6-1.6
			h-2c-1.5,0-2.8-1.3-2.8-2.8c0-1.1,0.7-2.1,1.7-2.6c0,0,0,0,0.1,0c0.3-0.1,0.7-0.2,1-0.2H53c2.5,0,4.5-1.9,4.8-4.6
			c0-0.1,0-0.1,0-0.2v-4.9c0,0,0-0.1,0.1-0.2s0.2,0,0.2,0c5.5,1.8,16,3.2,24.8-7.3c0,0,0.1-0.1,0.1-0.1c0.1,0,0.1,0,0.2,0.1
			c2.3,2.3,6.2,4.7,8.9,5.7c0.1,0,0.1,0.1,0.1,0.2v6.5c0,2.6,2.1,4.8,4.8,4.8h1.8c0.4,0,0.7,0.1,1.1,0.2l0.1,0
			c1,0.4,1.7,1.4,1.7,2.6c0,1.6-1.3,2.8-2.8,2.8h-2c-0.9,0-1.6,0.7-1.6,1.6c-0.4,6.5-3.8,12.1-8.8,15.6c-0.1,0.1-0.3,0.2-0.4,0.3
			c-3.2,2.1-7,3.3-11,3.3c-4.1,0-7.8-1.2-11-3.3c-0.1-0.1-0.3-0.2-0.4-0.3C58.6,67.3,55.2,61.7,54.8,55.2L54.8,55.2z M75,77.6
			c3.7,0,7.3-0.9,10.5-2.5v4L75,84.8l-10.5-5.7v-4C67.7,76.7,71.2,77.6,75,77.6L75,77.6z M61.1,81.8c0.1-0.2,0.3-0.3,0.4-0.3
			c0.1,0,0.3-0.1,0.5,0.1l0,0c0,0,0.1,0.1,0.2,0.1L72,87l-7.4,5.8c-0.1,0.1-0.2,0.1-0.3,0.1c-0.1,0-0.1-0.1-0.2-0.1l-4.9-7.6
			L61.1,81.8z M35.4,110.1V99.7c0-3.2,1.9-5.9,4.9-6.9l6.6-2.3v6.9c-2.5,0.7-4.3,3-4.3,5.7v5.5c0,0.9,0.7,1.7,1.7,1.7
			s1.7-0.7,1.7-1.7v-5.5c0-1.4,1.2-2.6,2.6-2.6s2.6,1.2,2.6,2.6v5.5c0,0.9,0.7,1.7,1.7,1.7c0.9,0,1.7-0.7,1.7-1.7v-5.5
			c0-2.7-1.8-5-4.3-5.7v-8.1l6.5-2.2l12.5,20.1l2.9,4.7H37.3C36.2,112,35.4,111.1,35.4,110.1L35.4,110.1z M114.6,110.1
			c0,1-0.8,1.9-1.9,1.9h-35l15.6-24.8l4.6,1.6v11.6c-2.1,0.7-3.6,2.7-3.6,5c0,2.9,2.4,5.3,5.3,5.3c2.9,0,5.3-2.4,5.3-5.3
			c0-2.3-1.5-4.3-3.6-5V89.9l8.5,2.9c3,1,4.9,3.7,4.9,6.9L114.6,110.1z"/>
	</g>
</g>
</svg>
