<?xml version="1.0" encoding="utf-8"?>
<!-- Generator: Adobe Illustrator 27.8.1, SVG Export Plug-In . SVG Version: 6.00 Build 0)  -->
<svg version="1.1" id="Layer_1" xmlns="http://www.w3.org/2000/svg" xmlns:xlink="http://www.w3.org/1999/xlink" x="0px" y="0px"
	 viewBox="0 0 150 150" style="enable-background:new 0 0 150 150;" xml:space="preserve">
<style type="text/css">
	.st0{fill:#0F172A;}
</style>
<g id="g1493">
	<path id="path4020" vector-effect="none" class="st0" d="M35.5,12.9c-3.1,0-5.6,2.6-5.6,5.6v43.6l40.6,31.2c2.7,2.1,6.5,2.1,9.1,0
		l40.6-31.9c0-14.3,0-28.6,0-43c0-3.1-2.6-5.6-5.6-5.6H35.5z M49.6,29.9h50.8c1.6,0,2.8,1.3,2.8,2.8s-1.3,2.8-2.8,2.8H49.6
		c-1.6,0-2.8-1.3-2.8-2.8S48,29.9,49.6,29.9z M49.6,44h50.8c1.6,0,2.8,1.3,2.8,2.8c0,1.6-1.3,2.8-2.8,2.8H49.6
		c-1.6,0-2.8-1.3-2.8-2.8C46.8,45.2,48,44,49.6,44z M24.2,46.2l-8.1,5.4l8.1,6.2V46.2z M125.8,46.2v10.9l7.5-5.9L125.8,46.2z
		 M49.6,58.1h50.8c1.6,0,2.8,1.3,2.8,2.8s-1.3,2.8-2.8,2.8H49.6c-1.6,0-2.8-1.3-2.8-2.8S48,58.1,49.6,58.1z"/>
	<path id="path4037" vector-effect="none" class="st0" d="M89.1,93.1L83,97.8c-4.7,3.7-11.3,3.6-16,0l-6.1-4.7l-42.3,42.3
		c1.7,1,3.6,1.6,5.7,1.6h101.6c2.1,0,4-0.6,5.7-1.6L89.1,93.1z"/>
	<path id="path4035" vector-effect="none" class="st0" d="M12.9,56.2v69.6c0,2.1,0.6,4,1.6,5.7l41.8-41.8L12.9,56.2z"/>
	<path id="path4033" vector-effect="none" class="st0" d="M137.1,55.4L93.6,89.6l41.9,41.9c1-1.7,1.6-3.6,1.6-5.7V55.4z"/>
</g>
</svg>
