<?xml version="1.0" encoding="utf-8"?>
<!-- Generator: Adobe Illustrator 27.2.0, SVG Export Plug-In . SVG Version: 6.00 Build 0)  -->
<svg version="1.1" id="Layer_1" xmlns="http://www.w3.org/2000/svg" xmlns:xlink="http://www.w3.org/1999/xlink" x="0px" y="0px"
	 viewBox="0 0 200 200" style="enable-background:new 0 0 200 200;" xml:space="preserve">
<style type="text/css">
	.st0{fill:#231F20;}
</style>
<path class="st0" d="M179.5,51.7h-159c-3.9,0-7,3.1-7,7v17c0,2.7,1.6,5.1,3.9,6.3c6.5,3.3,10.9,10,10.9,17.8s-4.4,14.5-10.9,17.8
	c-2.4,1.2-3.9,3.6-3.9,6.3v17.4c0,3.9,3.1,7,7,7h158.9c3.9,0,7-3.1,7-7V58.7C186.5,54.8,183.3,51.7,179.5,51.7z M54.3,133.2
	c0,1.3-1.1,2.4-2.4,2.4s-2.4-1.1-2.4-2.4v-5.1c0-1.3,1.1-2.4,2.4-2.4s2.4,1.1,2.4,2.4V133.2z M54.3,117.9c0,1.3-1.1,2.4-2.4,2.4
	s-2.4-1.1-2.4-2.4v-5.1c0-1.3,1.1-2.4,2.4-2.4s2.4,1.1,2.4,2.4V117.9z M54.3,102.6c0,1.3-1.1,2.4-2.4,2.4s-2.4-1.1-2.4-2.4v-5.1
	c0-1.3,1.1-2.4,2.4-2.4s2.4,1.1,2.4,2.4V102.6z M54.3,87.2c0,1.3-1.1,2.4-2.4,2.4s-2.4-1.1-2.4-2.4v-5.1c0-1.3,1.1-2.4,2.4-2.4
	s2.4,1.1,2.4,2.4V87.2z M54.3,71.9c0,1.3-1.1,2.4-2.4,2.4s-2.4-1.1-2.4-2.4v-5.1c0-1.3,1.1-2.4,2.4-2.4s2.4,1.1,2.4,2.4V71.9z
	 M104.9,106.9c-0.2,1.9-0.8,3.7-1.7,5.4c-1.9,3.5-4.6,6.1-8.1,7.9c-1.7,0.9-3.5,1.4-5.4,1.5c-2.6,0.3-5.2,0.1-7.6-0.8
	c-2.6-0.9-4.8-2.4-6.7-4.3c-1.6-1.7-2.9-3.6-3.8-5.8c-0.7-1.7-1.1-3.5-1.2-5.3c-0.1-2.3,0.1-4.6,0.8-6.9c0.8-2.5,2.1-4.7,3.9-6.6
	c1.7-1.8,3.6-3.3,5.8-4.2c1.7-0.8,3.6-1.2,5.4-1.3c2.6-0.2,5.1,0.2,7.5,1.2c1.6,0.6,3.1,1.6,4.5,2.7c0.1,0.1,0.2,0.2,0.2,0.3
	c0,2.1,0,4.1,0,6.2c0,0,0,0,0,0.1c-0.1-0.1-0.1-0.1-0.1-0.2c-1.2-1.8-2.6-3.2-4.5-4.3c-1.6-0.9-3.2-1.4-5-1.5s-3.6,0-5.4,0.6
	c-3.8,1.3-7.6,5.1-8.4,9.8c-0.6,3-0.3,5.9,1.1,8.7c1.6,3.2,4,5.5,7.4,6.8c1.7,0.6,3.6,0.8,5.4,0.7c3.2-0.2,5.9-1.7,8-4.1
	c1.3-1.4,2.2-2.9,2.9-4.7c0.4-1.1,0.6-2.3,0.7-3.4c0-0.5,0-1,0-1.5V75.5h4.5l0,0c0,0.1,0,0.2,0,0.3c0,9.3,0,18.7,0,28.1
	C105,104.9,105,105.9,104.9,106.9z M107.5,103.3L107.5,103.3L107.5,103.3L107.5,103.3c0-1.1,0.1-2.1,0.4-3.2
	c0.7-3.1,2.1-5.8,4.2-8.1c2.7-2.9,6.1-4.8,10-5.5c0.9-0.2,1.9-0.2,2.9-0.3c2.9-0.1,5.6,0.5,8.2,1.8c1.6,0.8,3.1,1.8,4.4,3
	c1.2,1.1,2.2,2.4,3,3.9c0.6,1.2,1,2.5,1.1,3.8c0.2,1.5,0,3.1-0.5,4.5c-0.6,1.9-1.4,3.6-2.5,5.2c-0.7,1-1.4,1.8-2.3,2.6
	c0,0-0.1,0-0.1,0.1c0.1-0.1,0.1-0.2,0.2-0.2c1.1-1.7,1.7-3.5,2-5.4c0.4-3.2-0.3-6.2-2.1-8.8c-2.2-3.1-5.2-5.1-8.9-5.8
	c-2.4-0.5-4.7-0.4-7,0.2c-2.2,0.5-4.3,1.4-6.1,2.8c-2,1.5-3.5,3.3-4.8,5.4C108.5,100.5,107.9,101.9,107.5,103.3L107.5,103.3z
	 M142.6,104.9c0,1.1-0.1,2.1-0.4,3.2c-0.7,3.1-2.1,5.8-4.2,8.1c-2.7,2.9-6.1,4.8-10,5.5c-0.9,0.2-1.9,0.2-2.9,0.3
	c-2.9,0.1-5.6-0.5-8.2-1.8c-1.6-0.8-3-1.8-4.4-3c-1.2-1.1-2.2-2.4-3-3.9c-0.6-1.2-1-2.5-1.1-3.8c-0.2-1.5,0-3.1,0.5-4.5
	c0.6-1.9,1.4-3.6,2.5-5.2c0.7-1,1.4-1.8,2.3-2.6l0.1-0.1c-0.1,0.1-0.1,0.2-0.2,0.2c-1.1,1.7-1.7,3.5-2,5.4c-0.4,3.2,0.3,6.2,2.1,8.8
	c2.2,3.1,5.2,5.1,8.9,5.8c2.4,0.5,4.7,0.3,7-0.2c2.2-0.5,4.3-1.4,6.1-2.8c2-1.5,3.5-3.3,4.8-5.5
	C141.5,107.7,142.1,106.4,142.6,104.9L142.6,104.9L142.6,104.9L142.6,104.9L142.6,104.9z M149.9,109c1.6,3.2,4,5.6,7.4,6.8
	c1.7,0.6,3.6,0.8,5.4,0.7c2.6-0.2,4.9-1.2,6.8-2.9l0,0c0,0,4.5-1.1,2.8,3.4c-1,0.9-2.2,1.6-3.4,2.2c-1.7,0.9-3.5,1.4-5.4,1.6
	c-2.6,0.3-5.2,0.1-7.6-0.8c-2.6-0.9-4.8-2.4-6.7-4.4c-1.6-1.7-2.9-3.6-3.8-5.8c-0.7-1.7-1.1-3.5-1.2-5.4c-0.1-2.4,0.1-4.7,0.8-6.9
	c0.8-2.5,2.1-4.7,3.9-6.6c1.7-1.8,3.6-3.3,5.8-4.3c1.7-0.8,3.6-1.2,5.5-1.3c2.6-0.1,5.1,0.2,7.5,1.2c1.2,0.5,2.3,1.1,3.4,1.9
	c0.4,0.3,0.7,0.6,1.1,0.9c0.1,0.1,0.1,0.1,0.1,0.2c0.5,0.8,1.7,3.2-1.3,3.2c-0.5,0-2.7-1-3.3-1.4c-1.6-0.9-3.2-1.4-5-1.5
	s-3.6,0-5.4,0.7c-3.8,1.3-7.6,5.2-8.4,9.8C148.3,103.3,148.5,106.2,149.9,109z"/>
</svg>
