<?xml version="1.0" encoding="utf-8"?>
<!-- Generator: Adobe Illustrator 27.8.1, SVG Export Plug-In . SVG Version: 6.00 Build 0)  -->
<svg version="1.1" id="Layer_1" xmlns="http://www.w3.org/2000/svg" xmlns:xlink="http://www.w3.org/1999/xlink" x="0px" y="0px"
	 viewBox="0 0 150 150" style="enable-background:new 0 0 150 150;" xml:space="preserve">
<style type="text/css">
	.st0{fill:#0F172A;}
</style>
<g>
	<path class="st0" d="M24.4,37.2c0-15.4,12.5-27.9,27.9-27.9s27.9,12.5,27.9,27.9s-12.6,27.9-28,27.9C36.9,65.1,24.4,52.5,24.4,37.2
		z"/>
	<path class="st0" d="M90.3,52.3c0-12.6,10.3-22.9,22.9-22.9s22.9,10.3,22.9,22.9s-10.4,22.8-23,22.8S90.3,64.9,90.3,52.3z"/>
	<path class="st0" d="M4.1,123.2c0-26.5,21.6-48.2,48-48.2c26.7,0,48,21.6,48,48l0,0c0,0.3,0,0.5,0,0.8c0,1.8-1,3.4-2.5,4.3
		c-13.4,8-29,12.6-45.7,12.6s-32.4-4.6-45.7-12.6c-1.5-0.9-2.4-2.5-2.5-4.3C4.1,123.9,4.1,123.6,4.1,123.2z"/>
	<path class="st0" d="M110.6,123.4c0,0.4,0,0.6,0,1c0,2.3-0.6,4.5-1.6,6.5c1.4,0.1,2.8,0.1,4.1,0.1c10.8,0,21-2.5,30.2-7
		c1.6-0.9,2.8-2.5,2.9-4.4c0-0.5,0-0.9,0-1.4c0-18.3-14.8-33-33-33c-5,0-9.9,1.1-14.1,3.1C106.3,98.1,110.6,110.2,110.6,123.4
		L110.6,123.4z"/>
</g>
</svg>
