<?xml version="1.0" encoding="utf-8"?>
<!-- Generator: Adobe Illustrator 27.6.1, SVG Export Plug-In . SVG Version: 6.00 Build 0)  -->
<svg version="1.1" id="Layer_1" xmlns="http://www.w3.org/2000/svg" xmlns:xlink="http://www.w3.org/1999/xlink" x="0px" y="0px"
	 viewBox="0 0 150 150" style="enable-background:new 0 0 150 150;" xml:space="preserve">
<style type="text/css">
	.st0{fill:#FFFFFF;}
</style>
<path class="st0" d="M136,63.4h-26H76.4V88h33.2c-3,8-8.7,14.6-15.9,18.9l0,0l0,0c-5.5,3.2-11.8,5.1-18.7,5.1
	c-15.8,0-29.3-10-34.6-24l0,0l0,0c-1.5-4-2.3-8.4-2.3-13c0-4.2,0.7-8.2,2-12l0,0l0,0C45,48.5,58.8,38.1,75,38.1
	c7.2,0,13.9,2,19.5,5.6l20.1-16.5C103.9,18.2,90.1,12.9,75,12.9c-24,0-44.8,13.6-55.2,33.6C15.4,55,12.9,64.7,12.9,75
	c0,10.7,2.7,20.7,7.4,29.4h0l0,0c10.5,19.5,31.1,32.7,54.7,32.7c14.7,0,28.2-5.1,38.9-13.7l0,0l0,0h0l0,0
	c10.9-8.8,18.8-21.2,21.9-35.5c0.9-4.2,1.4-8.5,1.4-13C137.1,71,136.7,67.2,136,63.4z"/>
</svg>
