<?xml version="1.0" encoding="utf-8"?>
<!-- Generator: Adobe Illustrator 27.7.0, SVG Export Plug-In . SVG Version: 6.00 Build 0)  -->
<svg version="1.1" id="Layer_1" xmlns="http://www.w3.org/2000/svg" xmlns:xlink="http://www.w3.org/1999/xlink" x="0px" y="0px"
	 viewBox="0 0 150 150" style="enable-background:new 0 0 150 150;" xml:space="preserve">
<style type="text/css">
	.st0{fill:#A0A3B5;}
</style>
<g>
	<path class="st0" d="M94.2,8.8l-5.1,5.1c-2.8,2.8-2.8,7.4,0,10.2s7.4,2.8,10.2,0c2.8-2.8,2.8-7.4,0-10.2L94.2,8.8z"/>
	<path class="st0" d="M75,8.8l-5.1,5.1c-2.8,2.8-2.8,7.4,0,10.2s7.4,2.8,10.2,0c2.8-2.8,2.8-7.4,0-10.2L75,8.8z"/>
	<path class="st0" d="M55.8,8.8l-5.1,5.1c-2.8,2.8-2.8,7.4,0,10.2s7.4,2.8,10.2,0s2.8-7.4,0-10.2L55.8,8.8z"/>
	<path class="st0" d="M60.6,45.6c3.2-0.1,6.4-0.2,9.6-0.3v-4.8c0-2.6,2.1-4.8,4.8-4.8s4.8,2.1,4.8,4.8v4.8c3.2,0,6.4,0.1,9.6,0.3
		v-5.1c0-2.6,2.1-4.8,4.8-4.8s4.8,2.1,4.8,4.8v5.6c0.7,0,1.3,0.1,2,0.1c9.9,0.7,17.2,9.1,17.2,18.8v6.5C104,70.1,89.6,69.3,75,69.3
		s-29,0.8-43.1,2.3v-6.5c0-9.7,7.3-18.1,17.2-18.8c0.7,0,1.3-0.1,2-0.1v-5.6c0-2.6,2.1-4.8,4.8-4.8s4.8,2.1,4.8,4.8v5H60.6z"/>
	<path class="st0" d="M75,78.9c-15.8,0-31.3,1.2-46.5,3.4c-9.3,1.4-15.8,9.5-15.8,18.6v2.5c5.5-1,11.4-0.3,16.5,2.3
		c4.7,2.3,10.2,2.3,14.9,0c7.4-3.7,16.1-3.7,23.5,0c4.7,2.3,10.2,2.3,14.9,0c7.4-3.7,16.1-3.7,23.5,0c4.7,2.3,10.2,2.3,14.9,0
		c5.2-2.6,11-3.4,16.5-2.3V101c0-9.2-6.5-17.2-15.8-18.6C106.3,80.1,90.8,78.9,75,78.9z"/>
	<path class="st0" d="M137.3,113.3c-4-1.2-8.4-0.9-12.2,1.1c-7.4,3.7-16.1,3.7-23.5,0c-4.7-2.3-10.2-2.3-14.9,0
		c-7.4,3.7-16.1,3.7-23.5,0c-4.7-2.3-10.2-2.3-14.9,0c-7.4,3.7-16.1,3.7-23.5,0c-3.8-1.9-8.2-2.3-12.2-1.1v15.9c0,6.6,5.4,12,12,12
		h100.6c6.6,0,12-5.4,12-12v-15.9H137.3z"/>
</g>
</svg>
