<?xml version="1.0" encoding="utf-8"?>
<!-- Generator: Adobe Illustrator 27.2.0, SVG Export Plug-In . SVG Version: 6.00 Build 0)  -->
<svg version="1.1" id="svg8" xmlns:svg="http://www.w3.org/2000/svg"
	 xmlns="http://www.w3.org/2000/svg" xmlns:xlink="http://www.w3.org/1999/xlink" x="0px" y="0px" viewBox="0 0 700 700"
	 style="enable-background:new 0 0 700 700;" xml:space="preserve">
<style type="text/css">
	.st0{fill-rule:evenodd;clip-rule:evenodd;fill:#A0A3B5;}
</style>
<path class="st0" d="M334.8,681.4c1,0.6,1.8,1,2.3,1.3l0.9,0.5c7.4,4.1,16.5,4,23.9,0l1-0.5c0.6-0.3,1.3-0.8,2.3-1.3
	c2-1.2,4.9-2.8,8.5-5.1c7.2-4.4,17.3-11,29.5-19.5c24.2-17.1,56.5-42.5,88.8-75.6c64.4-65.9,131.3-165,131.3-292.4
	C623.3,137.9,501,15.5,350,15.5c-150.9,0-273.3,122.4-273.3,273.3c0,127.4,66.9,226.5,131.3,292.4c32.4,33.1,64.6,58.5,88.8,75.6
	c12.1,8.6,22.3,15.1,29.5,19.5C329.9,678.5,332.8,680.2,334.8,681.4z M350,388.2c54.9,0,99.4-44.5,99.4-99.4s-44.5-99.4-99.4-99.4
	s-99.4,44.5-99.4,99.4C250.7,343.7,295.2,388.2,350,388.2z"/>
</svg>
