<?xml version="1.0" encoding="utf-8"?>
<!-- Generator: Adobe Illustrator 27.2.0, SVG Export Plug-In . SVG Version: 6.00 Build 0)  -->
<svg version="1.1" id="svg8" xmlns:svg="http://www.w3.org/2000/svg"
	 xmlns="http://www.w3.org/2000/svg" xmlns:xlink="http://www.w3.org/1999/xlink" x="0px" y="0px" viewBox="0 0 700 700"
	 style="enable-background:new 0 0 700 700;" xml:space="preserve">
<style type="text/css">
	.st0{fill-rule:evenodd;clip-rule:evenodd;}
</style>
<path class="st0" d="M59.3,143c0-45.9,37.2-83.1,83.1-83.1h38c23.8,0,44.6,16.2,50.4,39.3l30.6,122.5c5.1,20.3-2.5,41.6-19.2,54.1
	l-35.8,26.9c-3.7,2.8-4.5,6.9-3.5,9.7c31.4,85.8,99.6,154,185.4,185.4c2.9,1,6.9,0.2,9.7-3.5l26.9-35.8
	c12.5-16.7,33.9-24.3,54.1-19.2l122.5,30.6c23.1,5.8,39.3,26.5,39.3,50.4v38c0,45.9-37.2,83.1-83.1,83.1h-62.3
	C254.5,641.3,59.3,446.1,59.3,205.2V143z"/>
</svg>
