<?xml version="1.0" encoding="utf-8"?>
<!-- Generator: Adobe Illustrator 27.8.1, SVG Export Plug-In . SVG Version: 6.00 Build 0)  -->
<svg version="1.1" id="Layer_1" xmlns="http://www.w3.org/2000/svg" xmlns:xlink="http://www.w3.org/1999/xlink" x="0px" y="0px"
	 viewBox="0 0 150 150" style="enable-background:new 0 0 150 150;" xml:space="preserve">
<style type="text/css">
	.st0{fill:#0F172A;}
</style>
<g id="Page-1">
	<g id="_x30_01---Care-Package">
		<path id="Shape" class="st0" d="M36.8,72.4h26.4v15.4H36.8c-2.6,0-4.8-2.2-4.8-5.1v-5.1C32,74.7,34.2,72.4,36.8,72.4z"/>
		<path id="Rectangle-path" class="st0" d="M67.9,72.4h14.3v15.4H67.9V72.4z"/>
		<path id="Shape_00000119107075920731793720000014063534977512712117_" class="st0" d="M118.3,77.5v5.1c0,2.8-2.1,5.1-4.8,5.1H87.2
			V72.4h26.4C116.2,72.4,118.3,74.7,118.3,77.5z"/>
		<path id="Shape_00000045581535236111406410000018192584603012569789_" class="st0" d="M36.8,93.1v51.5c0,2.8,2.1,5.1,4.8,5.1h67.1
			c2.6,0,4.8-2.2,4.8-5.1V93.1H36.8z M94.3,121.5c0,2.8-2.1,5.1-4.8,5.1h-7.3v7.8c0,2.8-2.1,5.1-4.8,5.1h-4.8
			c-2.6,0-4.8-2.2-4.8-5.1v-7.8h-7.3c-2.6,0-4.8-2.2-4.8-5.1v-5.3c0-2.8,2.1-5.1,4.8-5.1h7.3v-7.8c0-2.8,2.1-5.1,4.8-5.1h4.8
			c2.6,0,4.8,2.2,4.8,5.1v7.8h7.3c2.6,0,4.8,2.2,4.8,5.1V121.5z"/>
		<path id="Shape_00000086658516574714974900000012284830046713632439_" class="st0" d="M77.6,111.1v-7.8h-4.8v7.8
			c0,2.8-2.1,5.1-4.8,5.1h-7.3v5.1H68c2.6,0,4.8,2.2,4.8,5.1v7.8h4.8v-7.8c0-2.8,2.1-5.1,4.8-5.1h7.3v-5.1h-7.3
			C79.7,116.2,77.6,113.9,77.6,111.1z"/>
		<path id="Shape_00000061430941875550173590000008319717727141286804_" class="st0" d="M48.8,53.6c-6.4-4.8-14.1-7.4-22.1-7.1
			C20.6,46.7,14.5,48.2,9,51c-0.9,0.6-2,0.3-2.7-0.5c-0.8-0.7-1.1-2-0.5-2.9c11-26,33.9-43.9,60.2-47.1
			C58.9,7.6,49.4,22.7,48.8,53.6L48.8,53.6z"/>
		<path id="Shape_00000165194415559574413170000005605923705977665969_" class="st0" d="M96.7,52.6c-6.4-4.2-14-6.3-21.5-6
			c-7.5-0.3-15,1.8-21.5,6c1.2-40,17.8-50.5,21.5-52.3C78.9,2.1,95.6,12.8,96.7,52.6z"/>
		<path id="Shape_00000125575063879044911350000000704896637181597880_" class="st0" d="M141.1,51c-5.5-2.9-11.5-4.5-17.7-4.5
			c-7.8-0.3-15.5,2.2-22.1,7.1c-0.5-31-9.9-46-17.2-52.9c26.4,3.2,49.3,21,60.2,47.1c0.4,1,0.1,2.2-0.5,2.9
			C143.2,51.5,142,51.7,141.1,51L141.1,51z"/>
		<path id="Shape_00000137125654201455543650000010918266560067525034_" class="st0" d="M35.2,67.5c-1.7,0.3-3.5,1.1-4.8,2.4
			L14.5,54.3c1.7-0.7,3.6-1.2,5.4-1.7L35.2,67.5z"/>
		<path id="Shape_00000085239778697855631830000015574106145365698957_" class="st0" d="M58.9,67.2h-5.3l-3-7.8
			c1.4,0,2.9-0.5,4.1-1.5c0.1-0.1,0.2-0.1,0.4-0.3L58.9,67.2z"/>
		<path id="Shape_00000089564459147523425520000001598551020604712621_" class="st0" d="M136.1,54.3l-15.3,16.4
			c-1.1-1.5-2.5-2.4-4.1-2.9l14.1-15.2C132.7,53.1,134.4,53.6,136.1,54.3L136.1,54.3z"/>
		<path id="Shape_00000136406977720111290830000010413179352824007077_" class="st0" d="M99.9,59.5l-3.2,7.8h-5.3l3.8-9.3
			c0.1,0,0.2,0.1,0.4,0.3C96.9,59,98.4,59.5,99.9,59.5L99.9,59.5z"/>
	</g>
</g>
</svg>
