<?xml version="1.0" encoding="utf-8"?>
<!-- Generator: Adobe Illustrator 27.7.0, SVG Export Plug-In . SVG Version: 6.00 Build 0)  -->
<svg version="1.1" id="svg8" xmlns:svg="http://www.w3.org/2000/svg"
	 xmlns="http://www.w3.org/2000/svg" xmlns:xlink="http://www.w3.org/1999/xlink" x="0px" y="0px" viewBox="0 0 700 700"
	 style="enable-background:new 0 0 700 700;" xml:space="preserve">
<path d="M569.7,136.2H130.3c-36,0-65.3,29.3-65.3,65.3v296.9c0,36,29.3,65.3,65.3,65.3h439.4c36,0,65.3-29.3,65.3-65.3V201.6
	C635,165.5,605.7,136.2,569.7,136.2z M243.1,231.2c32.7,0,59.4,26.6,59.4,59.4c0,32.7-26.6,59.4-59.4,59.4s-59.4-26.6-59.4-59.4
	C183.8,257.9,210.4,231.2,243.1,231.2z M350,450.9c0,9.8-8,17.8-17.8,17.8H154.1c-9.8,0-17.8-8-17.8-17.8v-11.9
	c0-36,29.3-65.3,65.3-65.3h83.1c36,0,65.3,29.3,65.3,65.3V450.9z M545.9,468.8H415.3c-9.8,0-17.8-8-17.8-17.8
	c0-9.8,8-17.8,17.8-17.8h130.6c9.8,0,17.8,8,17.8,17.8C563.8,460.8,555.8,468.8,545.9,468.8z M545.9,373.7H415.3
	c-9.8,0-17.8-8-17.8-17.8c0-9.8,8-17.8,17.8-17.8h130.6c9.8,0,17.8,8,17.8,17.8C563.8,365.8,555.8,373.7,545.9,373.7z M545.9,278.8
	H415.3c-9.8,0-17.8-8-17.8-17.8c0-9.8,8-17.8,17.8-17.8h130.6c9.8,0,17.8,8,17.8,17.8C563.8,270.8,555.8,278.8,545.9,278.8z"/>
</svg>
