<?xml version="1.0" encoding="utf-8"?>
<!-- Generator: Adobe Illustrator 27.4.0, SVG Export Plug-In . SVG Version: 6.00 Build 0)  -->
<svg version="1.1" id="Layer_1" xmlns="http://www.w3.org/2000/svg" xmlns:xlink="http://www.w3.org/1999/xlink" x="0px" y="0px"
	 viewBox="0 0 700 700" style="enable-background:new 0 0 700 700;" xml:space="preserve">
<style type="text/css">
	.st0{fill:#243271;}
</style>
<g>
	<path class="st0" d="M340.3,46.2c6.4-3.1,13.8-3.1,19.9,0L633.2,181l-110.4,54.3L244.9,93.1L340.3,46.2z"/>
	<path class="st0" d="M177.6,126.6l15.3-7.8L471,261.1l-15.3,7.8L349.8,321L67.1,181L177.6,126.6z"/>
	<path class="st0" d="M480.2,308.3l15.3-7.4v76.4c0,12.7,10.4,23.3,23,23.3c12.6,0,23-10.6,23-23.3v-99.4l114.7-56.5V494
		c0,8.7-4.9,16.8-12.6,20.8L372.8,656.1l-0.3-294.7L480.2,308.3z"/>
	<path class="st0" d="M204.2,300.9l15.3,7.4l107.7,53.1l-0.3,294.7L56.1,514.8c-7.7-4-12.6-12.1-12.6-20.8V221.3l114.7,56.5"/>
</g>
</svg>
