<?xml version="1.0" encoding="utf-8"?>
<!-- Generator: Adobe Illustrator 27.7.0, SVG Export Plug-In . SVG Version: 6.00 Build 0)  -->
<svg version="1.1" id="Layer_1" xmlns="http://www.w3.org/2000/svg" xmlns:xlink="http://www.w3.org/1999/xlink" x="0px" y="0px"
	 viewBox="0 0 150 150" style="enable-background:new 0 0 150 150;" xml:space="preserve">
<style type="text/css">
	.st0{fill-rule:evenodd;clip-rule:evenodd;fill:#0F172A;}
</style>
<path class="st0" d="M74.9,35c-11.6,0-20.9,8.3-20.9,18.5v14.4h-2.3c-5.2,0-9.3,3.7-9.3,8.2v24.7c0,4.6,4.2,8.2,9.3,8.2h46.5
	c5.2,0,9.3-3.7,9.3-8.2V76.1c0-4.6-4.2-8.2-9.3-8.2h-2.4V53.5C95.9,43.3,86.5,35,74.9,35z M88.9,67.9V53.5c0-6.8-6.3-12.4-13.9-12.4
	s-14,5.5-14,12.4v14.4H88.9z"/>
<g>
	<path d="M74.4,9.5c-19.8,0-38.5,9.2-50.8,24.2l-1.1-4.4c-0.9-3.4-4.3-5.4-7.7-4.6c-3.4,0.9-5.5,4.3-4.6,7.7L14.9,51
		c0.6,2.2,2.3,4,4.5,4.5c0.1,0.8,20.8-1.4,21.7-1.4c3.5-0.3,6.1-3.4,5.8-6.9c-0.3-3.5-3.3-6-6.8-5.8L33.1,42
		c31-38.6,94.1-16.7,94.2,33.1c0,29.2-23.7,52.9-52.9,52.9c-21.9,0-41.2-13.2-49.3-33.6c-3.2-7.7-14.7-3.2-11.8,4.6
		c27.2,66.9,125.6,48.2,126.7-24C140,38.9,110.6,9.5,74.4,9.5L74.4,9.5z"/>
</g>
</svg>
