<?xml version="1.0" encoding="utf-8"?>
<!-- Generator: Adobe Illustrator 27.2.0, SVG Export Plug-In . SVG Version: 6.00 Build 0)  -->
<svg version="1.1" id="svg8" xmlns:svg="http://www.w3.org/2000/svg"
	 xmlns="http://www.w3.org/2000/svg" xmlns:xlink="http://www.w3.org/1999/xlink" x="0px" y="0px" viewBox="0 0 700 700"
	 style="enable-background:new 0 0 700 700;" xml:space="preserve">
<g>
	<path d="M333.7,95c9.2-9.2,24.2-9.2,33.4,0l273.7,273.7c9.2,9.2,24.2,9.2,33.4,0c9.2-9.2,9.2-24.2,0-33.4L400.6,61.6
		c-27.7-27.7-72.6-27.7-100.2,0L26.6,335.3c-9.2,9.2-9.2,24.2,0,33.4c9.2,9.2,24.2,9.2,33.4,0L333.7,95z"/>
	<path d="M350.4,145.1l257,257c0.9,0.9,1.9,1.8,2.9,2.7v195.2c0,32.6-26.4,59.1-59.1,59.1H444.9c-13,0-23.6-10.6-23.6-23.6V493.8
		c0-13-10.6-23.6-23.6-23.6h-94.5c-13,0-23.6,10.6-23.6,23.6v141.7c0,13-10.6,23.6-23.6,23.6H149.6c-32.6,0-59.1-26.4-59.1-59.1
		V404.9c1-0.9,1.9-1.8,2.9-2.7L350.4,145.1z"/>
</g>
</svg>
