<?xml version="1.0" encoding="utf-8"?>
<!-- Generator: Adobe Illustrator 27.8.1, SVG Export Plug-In . SVG Version: 6.00 Build 0)  -->
<svg version="1.1" id="Layer_1" xmlns="http://www.w3.org/2000/svg" xmlns:xlink="http://www.w3.org/1999/xlink" x="0px" y="0px"
	 viewBox="0 0 150 150" style="enable-background:new 0 0 150 150;" xml:space="preserve">
<style type="text/css">
	.st0{fill:#FFEBD2;}
	.st1{fill:#42434D;}
	.st2{fill:#FFDFBA;}
	.st3{fill:#4D4E59;}
	.st4{fill:#FFF3E4;}
	.st5{fill:#2C2C33;}
	.st6{fill:#D6F4FC;}
	.st7{fill:#E8F8FC;}
	.st8{fill:#BDEFFC;}
	.st9{fill:#F18798;}
	.st10{fill:#FFFFFF;}
	.st11{fill:#F8CE7D;}
	.st12{fill:none;stroke:#000000;stroke-width:3;stroke-linecap:round;stroke-linejoin:round;stroke-miterlimit:10;}
</style>
<g>
	<g>
		<path class="st0" d="M101.3,54v-9.3c0-12.6-10.2-22.7-22.7-22.7H67.6c-12.6,0-22.7,10.2-22.7,22.7v17.8c0,3.1,2.5,5.7,5.7,5.7
			v-0.3c0,10,6.3,17.9,14.6,21.1c-0.2-0.1-0.5-0.2-0.7-0.3l0,0.1c0,1.6,0.4,5.6-3.3,8.7c-1.7,1.5-3.9,2.3-6.2,2.3
			c-9.4,0-17,7.6-17,17v7.1c0,2,1.6,3.6,3.6,3.6h62.8c2,0,3.6-1.6,3.6-3.6v-7.1c0-9.4-7.6-17-17-17c-5.2,0-9.4-4.2-9.4-9.4v-1.6
			l0-0.1c5.5-2.3,9.8-6.6,12.1-11.9c2.6,6.2,7.5,10.9,14.3,10.9h2c1,0,1.8-0.8,1.8-1.8V64.7C112,58.8,107.2,54,101.3,54L101.3,54z"
			/>
		<path class="st1" d="M112,64.7v21.1c0,1-0.8,1.8-1.8,1.8h-2c-6.8,0-11.7-4.7-14.3-10.9c1.1-2.6,1.8-5.5,1.8-8.6
			c0-0.1,0,0.5,0-11.2c0-1-0.8-1.8-1.7-1.8c-3.6-0.2-6.7-2.4-7.9-6.7c-0.3-1.2-1.7-1.7-2.8-1c-9.1,6.1-19.9,8.8-30.7,7.8
			c-1.1-0.1-2,0.7-2,1.8v11c-3.1,0-5.7-2.5-5.7-5.7V44.7c0-12.6,10.2-22.7,22.7-22.7h10.9c12.6,0,22.7,10.2,22.7,22.7V54
			C107.2,54,112,58.8,112,64.7z"/>
		<path class="st2" d="M82,92.5c-5.6,2.3-11.8,2.5-17.8,0c0.3-1.3,0.3-2.1,0.3-3.7l0-0.1c5.5,2.3,11.7,2.3,17.2,0l0,0.1
			C81.7,90.4,81.7,91.2,82,92.5L82,92.5z"/>
		<path class="st3" d="M87.1,23.6c2.8,1.1,1.9,5.2-1.1,5.2c-0.5,0-11.7,0-11.5,0c-12.6,0-22.7,10.2-22.7,22.7v2.7
			c0,1.6-1.1,1.7-1.1,3v6.6c0,2.8-3.8,3.8-5.1,1.2c-0.4-0.8-0.6-1.6-0.6-2.5V44.7c0-12.6,10.2-22.7,22.7-22.7h10.9
			C81.5,21.9,84.4,22.5,87.1,23.6L87.1,23.6z"/>
		<path class="st4" d="M68.8,83c3.4,2.3,0.8,7.5-3,6.2c-8.5-3-15.1-10.9-15.1-21.3V57.2c0-1.1,0.9-1.9,2-1.8
			c0.9,0.1,1.8,0.1,2.9,0.2c1.9,0.1,3.3,1.6,3.3,3.5v5.3C58.7,72.2,62.8,79,68.8,83L68.8,83z"/>
		<path class="st5" d="M96.3,81.3c-0.9-1.3-1.8-2.8-2.6-4.6c1.1-2.6,1.8-5.5,1.8-8.6c3.2,0,5.7-2.6,5.7-5.7V54
			c1.5,0,2.9,0.3,4.2,0.9C108,64.5,104.7,74.9,96.3,81.3z"/>
		<path class="st6" d="M108.1,116.7v7.1c0,2-1.6,3.6-3.6,3.6H41.7c-2,0-3.6-1.6-3.6-3.6v-7.1c0-9.4,7.6-17,17-17
			c2.3,0,4.5-0.8,6.2-2.3l8.6,6.5c2,1.5,4.7,1.5,6.6,0l8.6-6.5c3,2.6,6.1,2.2,7.4,2.3C101.2,100.4,108.1,107.7,108.1,116.7z"/>
		<path class="st7" d="M61.4,104.5c-9.4,0-16.9,7.8-16.9,17.2v2.1c0,4.1-6.4,4.4-6.4,0v-7.1c0-9.4,7.6-17,17-17
			c2.3,0,4.5-0.8,6.2-2.3l2.2,1.7C65.5,100.8,64.7,104.5,61.4,104.5z"/>
		<path class="st8" d="M84.8,104.5c9.4,0,16.9,7.8,16.9,17.2v2.1c0,3.7,5.3,4.5,6.2,0.9c0.2-0.6,0.1-0.2,0.1-8c0-9.4-7.6-17-17-17
			c-2.3,0-4.5-0.8-6.2-2.3l-2.2,1.7C80.6,100.8,81.5,104.5,84.8,104.5z"/>
		<path d="M109.9,116.7v10.7c0,1-0.8,1.8-1.8,1.8c-1,0-1.8-0.8-1.8-1.8v-10.7c0-5-2.5-9.7-6.7-12.6c-0.8-0.6-1.1-1.7-0.5-2.5
			c0.6-0.8,1.7-1.1,2.5-0.5C106.8,104.6,109.9,110.4,109.9,116.7z M113.8,64.7v23c0,1-0.8,1.8-1.8,1.8h-3.9c-4.7,0-9.2-2.1-12.2-5.8
			c-0.6-0.8-0.5-1.9,0.2-2.6c0.8-0.6,1.9-0.5,2.6,0.2c2.3,2.8,5.8,4.4,9.4,4.4h2V64.7c0-4.3-3-7.8-7-8.7v6.5c0,1-0.8,1.8-1.8,1.8
			s-1.8-0.8-1.8-1.8V44.7c0-11.5-9.4-20.9-20.9-20.9H67.6c-11.5,0-20.9,9.4-20.9,20.9v17.8c0,1.5,0.8,2.8,2,3.4V55.1
			c0-1,0.8-1.8,1.8-1.8s1.8,0.8,1.8,1.8v12.8c0,11.4,9.3,20.7,20.7,20.7s20.7-9.3,20.7-20.7V57c-4.4-0.2-8.2-3-9.6-8.1
			c-3.9,2.5-8,4.5-12.3,6.1c-6.1,2.2-12.2,3.2-12.9,3.2c-0.9,0-1.7-0.7-1.8-1.6c-0.1-1,0.6-1.9,1.5-2.1c9-1.3,17.9-4.6,25.8-10.2
			c1.2-0.9,2.9,0,2.9,1.5c0,0,0,4.6,3.4,6.6c2.3,1.4,4.4,0.8,5,0.9c0.7,0.1,1.3,0.6,1.5,1.3c0.1,0.3,0.1-0.5,0.1,13.4
			c0,15.8-15.5,27.8-31.2,23.2c-0.2,2.2-1,4.3-2.3,6l9.2,7l4.8-3.7c0.8-0.6,1.9-0.5,2.5,0.3c0.6,0.8,0.5,1.9-0.3,2.5
			c-6.3,4.8-6,4.6-6.2,4.7c-0.5,0.3-1,0.2-0.9,0.2c-0.9,0-0.4,0.2-11.9-8.6c-1.2,0.8-2.4,1.3-3.8,1.6v8.2c2.9,0.8,5,3.4,5,6.6
			c0,3.8-3.1,6.8-6.8,6.8c-3.8,0-6.8-3.1-6.8-6.8c0-3.1,2.1-5.8,5-6.6v-7.9c-7.7,0.6-13.9,7.1-13.9,15.1v10.7c0,1-0.8,1.8-1.8,1.8
			c-1,0-1.8-0.8-1.8-1.8v-10.7c0-10.4,8.4-18.8,18.8-18.8c4.2,0,7.6-3.4,7.6-7.6v-0.5c-7.7-3.7-13.1-11.2-13.8-20.1
			C45.5,69,43,66,43,62.5V44.7c0-13.5,11-24.6,24.6-24.6h10.9c13.5,0,24.6,11,24.6,24.6v7.6C109.1,53.2,113.8,58.4,113.8,64.7
			L113.8,64.7z M55.6,112.9c-1.8,0-3.2,1.4-3.2,3.2c0,1.8,1.4,3.2,3.2,3.2c1.8,0,3.2-1.4,3.2-3.2C58.7,114.3,57.3,112.9,55.6,112.9z
			 M92.4,109.4c0-10.4,0-9.9-0.1-10.3c-0.2-0.7-0.8-1.2-1.6-1.2c-2.7-0.2-4.8-1.6-6.1-3.6c-0.5-0.9-1.6-1.1-2.5-0.6
			c-0.9,0.5-1.1,1.6-0.6,2.5c1.6,2.7,4.2,4.5,7.2,5.1v8.1c-4.5,0.9-8,4.8-8,9.6v8.4c0,1,0.8,1.8,1.8,1.8c1,0,1.8-0.8,1.8-1.8V119
			c0-3.4,2.8-6.1,6.1-6.1s6.1,2.8,6.1,6.1v8.4c0,1,0.8,1.8,1.8,1.8c1,0,1.8-0.8,1.8-1.8V119C100.4,114.3,96.9,110.3,92.4,109.4
			L92.4,109.4z"/>
	</g>
	<g>
		<polygon class="st9" points="122.5,135.5 122.5,110.2 106.6,110.2 106.6,135.5 114.8,130.6 		"/>
		<polygon class="st10" points="114.8,130.6 117.4,132.3 117.4,110.2 112.2,110.2 112.2,132.2 		"/>
		<polygon class="st10" points="112.1,106.5 117.7,106.5 117.7,106.5 		"/>
		<g>
			<circle id="XMLID_48_" class="st10" cx="114.8" cy="100.3" r="12"/>
		</g>
		<path class="st11" d="M116.7,82.9L116.7,82.9c1.8-1.1,4.1-0.5,5.1,1.4l0,0c0.6,1.2,1.9,2,3.3,1.9l0,0c2.1-0.1,3.8,1.6,3.7,3.7l0,0
			c-0.1,1.4,0.7,2.7,1.9,3.3l0,0c1.9,1,2.5,3.3,1.4,5.1l0,0c-0.8,1.2-0.8,2.7,0,3.9l0,0c1.1,1.8,0.5,4.1-1.4,5.1l0,0
			c-1.2,0.6-2,1.9-1.9,3.3l0,0c0.1,2.1-1.6,3.8-3.7,3.7l0,0c-1.4-0.1-2.7,0.7-3.3,1.9l0,0c-1,1.9-3.3,2.5-5.1,1.4l0,0
			c-1.2-0.8-2.7-0.8-3.9,0l0,0c-1.8,1.1-4.1,0.5-5.1-1.4l0,0c-0.6-1.2-1.9-2-3.3-1.9l0,0c-2.1,0.1-3.8-1.6-3.7-3.7l0,0
			c0.1-1.4-0.7-2.7-1.9-3.3l0,0c-1.9-1-2.5-3.3-1.4-5.1l0,0c0.8-1.2,0.8-2.7,0-3.9l0,0c-1.1-1.8-0.5-4.1,1.4-5.1l0,0
			c1.2-0.6,2-1.9,1.9-3.3l0,0c-0.1-2.1,1.6-3.8,3.7-3.7l0,0c1.4,0.1,2.7-0.7,3.3-1.9l0,0c1-1.9,3.3-2.5,5.1-1.4l0,0
			C114,83.6,115.5,83.6,116.7,82.9z"/>
		<g>
			<circle id="XMLID_50_" class="st10" cx="114.8" cy="100.3" r="12"/>
		</g>
		<g>
			<path id="XMLID_00000082357209738022482920000011736695122086660023_" class="st12" d="M110,89.2c-4.3,1.8-7.3,6.1-7.3,11.1
				c0,6.6,5.4,12,12,12s12-5.4,12-12c0-5-3-9.2-7.3-11.1C119.5,89.2,115.1,87.1,110,89.2z"/>
		</g>
		<path class="st12" d="M116.7,82.9L116.7,82.9c1.8-1.1,4.1-0.5,5.1,1.4l0,0c0.6,1.2,1.9,2,3.3,1.9l0,0c2.1-0.1,3.8,1.6,3.7,3.7l0,0
			c-0.1,1.4,0.7,2.7,1.9,3.3l0,0c1.9,1,2.5,3.3,1.4,5.1l0,0c-0.8,1.2-0.8,2.7,0,3.9l0,0c1.1,1.8,0.5,4.1-1.4,5.1l0,0
			c-1.2,0.6-2,1.9-1.9,3.3l0,0c0.1,2.1-1.6,3.8-3.7,3.7l0,0c-1.4-0.1-2.7,0.7-3.3,1.9l0,0c-1,1.9-3.3,2.5-5.1,1.4l0,0
			c-1.2-0.8-2.7-0.8-3.9,0l0,0c-1.8,1.1-4.1,0.5-5.1-1.4l0,0c-0.6-1.2-1.9-2-3.3-1.9l0,0c-2.1,0.1-3.8-1.6-3.7-3.7l0,0
			c0.1-1.4-0.7-2.7-1.9-3.3l0,0c-1.9-1-2.5-3.3-1.4-5.1l0,0c0.8-1.2,0.8-2.7,0-3.9l0,0c-1.1-1.8-0.5-4.1,1.4-5.1l0,0
			c1.2-0.6,2-1.9,1.9-3.3l0,0c-0.1-2.1,1.6-3.8,3.7-3.7l0,0c1.4,0.1,2.7-0.7,3.3-1.9l0,0c1-1.9,3.3-2.5,5.1-1.4l0,0
			C114,83.6,115.5,83.6,116.7,82.9z"/>
		<g>
			<line class="st12" x1="112.2" y1="118.1" x2="112.2" y2="132.1"/>
			<line class="st12" x1="117.4" y1="132.1" x2="117.4" y2="118.1"/>
		</g>
		<polyline class="st12" points="106.6,115.5 106.6,135.5 114.8,130.6 122.5,135.5 122.5,115.5 		"/>
	</g>
</g>
</svg>
