<?xml version="1.0" encoding="utf-8"?>
<!-- Generator: Adobe Illustrator 27.7.0, SVG Export Plug-In . SVG Version: 6.00 Build 0)  -->
<svg version="1.1" id="svg8" xmlns:svg="http://www.w3.org/2000/svg"
	 xmlns="http://www.w3.org/2000/svg" xmlns:xlink="http://www.w3.org/1999/xlink" x="0px" y="0px" viewBox="0 0 700 700"
	 style="enable-background:new 0 0 700 700;" xml:space="preserve">
<g id="_x31_2">
	<path d="M283.6,435.6c-47.3,0-85.7-38.4-85.7-85.7c0-47.3,38.4-85.7,85.7-85.7h107.1v-150c0-11.8-9.6-21.4-21.4-21.4h-85.7
		c0,23.7-19.2,42.9-42.9,42.9s-42.9-19.2-42.9-42.9h-85.7c-11.8,0-21.4,9.6-21.4,21.4v471.4c0,11.8,9.6,21.4,21.4,21.4h257.1
		c11.8,0,21.4-9.6,21.4-21.4v-150H283.6z"/>
	<path d="M412.2,435.6v150c0,23.6-19.2,42.9-42.9,42.9H112.2c-23.6,0-42.9-19.2-42.9-42.9V114.2c0-23.6,19.2-42.9,42.9-42.9h257.1
		c23.6,0,42.9,19.2,42.9,42.9v150h21.4v-150c0-35.4-28.8-64.3-64.3-64.3H112.2c-35.4,0-64.3,28.8-64.3,64.3v471.4
		c0,35.4,28.8,64.3,64.3,64.3h257.1c35.4,0,64.3-28.8,64.3-64.3v-150H412.2z"/>
	<path d="M345.6,318.9c-5.3-10.6-18.2-14.9-28.8-9.6l-11.8,5.9V307c0-11.8-9.6-21.4-21.4-21.4c-11.8,0-21.4,9.6-21.4,21.4v8.2
		l-11.8-5.9c-10.6-5.3-23.5-1-28.8,9.6c-5.3,10.6-1,23.5,9.6,28.8l4.5,2.3l-4.5,2.3c-10.6,5.3-14.9,18.2-9.6,28.8
		c3.8,7.5,11.3,11.8,19.2,11.8c3.2,0,6.5-0.7,9.6-2.3l11.8-5.9v8.2c0,11.8,9.6,21.4,21.4,21.4c11.8,0,21.4-9.6,21.4-21.4v-8.2
		l11.8,5.9c3.1,1.5,6.4,2.3,9.6,2.3c7.9,0,15.4-4.3,19.2-11.8c5.3-10.6,1-23.5-9.6-28.8l-4.5-2.3l4.5-2.3
		C346.6,342.3,350.9,329.5,345.6,318.9z"/>
	<path d="M636,352.1l-4.5-2.3l4.5-2.3c10.6-5.3,14.9-18.2,9.6-28.8c-5.3-10.6-18.1-14.9-28.8-9.6l-11.8,5.9V307
		c0-11.8-9.6-21.4-21.4-21.4s-21.4,9.6-21.4,21.4v8.2l-11.8-5.9c-10.6-5.3-23.5-1-28.8,9.6c-5.3,10.6-1,23.5,9.6,28.8l4.5,2.3
		l-4.5,2.3c-10.6,5.3-14.9,18.2-9.6,28.8c3.8,7.5,11.3,11.8,19.2,11.8c3.2,0,6.5-0.7,9.6-2.3l11.8-5.9v8.2
		c0,11.8,9.6,21.4,21.4,21.4s21.4-9.6,21.4-21.4v-8.2l11.8,5.9c3.1,1.5,6.4,2.3,9.6,2.3c7.9,0,15.4-4.3,19.2-11.8
		C650.9,370.3,646.6,357.4,636,352.1z"/>
	<path d="M486,352.1l-4.5-2.3l4.5-2.3c10.6-5.3,14.9-18.2,9.6-28.8c-5.3-10.6-18.1-14.9-28.8-9.6l-11.8,5.9V307
		c0-11.8-9.6-21.4-21.4-21.4s-21.4,9.6-21.4,21.4v8.2l-11.8-5.9c-10.6-5.3-23.5-1-28.8,9.6c-5.3,10.6-1,23.5,9.6,28.8l4.5,2.3
		l-4.5,2.3c-10.6,5.3-14.9,18.2-9.6,28.8c3.8,7.5,11.3,11.8,19.2,11.8c3.2,0,6.5-0.7,9.6-2.3l11.8-5.9v8.2
		c0,11.8,9.6,21.4,21.4,21.4s21.4-9.6,21.4-21.4v-8.2l11.8,5.9c3.1,1.5,6.4,2.3,9.6,2.3c7.9,0,15.4-4.3,19.2-11.8
		C500.9,370.3,496.6,357.4,486,352.1z"/>
</g>
</svg>
