<?xml version="1.0" encoding="utf-8"?>
<!-- Generator: Adobe Illustrator 27.6.1, SVG Export Plug-In . SVG Version: 6.00 Build 0)  -->
<svg version="1.1" id="Layer_1" xmlns="http://www.w3.org/2000/svg" xmlns:xlink="http://www.w3.org/1999/xlink" x="0px" y="0px"
	 viewBox="0 0 150 150" style="enable-background:new 0 0 150 150;" xml:space="preserve">
<style type="text/css">
	.st0{fill-rule:evenodd;clip-rule:evenodd;fill:#0F172A;}
	.st1{fill:#0F172A;}
</style>
<g>
	<path class="st0" d="M30.8,23.8c-1.9-1.9-5.1-1.9-7,0c-1.9,1.9-1.9,5.1,0,7l95.4,95.4c1.9,1.9,5.1,1.9,7,0c1.9-1.9,1.9-5.1,0-7
		l-11.5-11.5c9.7-7.3,17.3-17.3,21.7-28.8c1-2.5,1-5.3,0-7.8C126.9,46.5,103,29,75,29c-11.3,0-21.9,2.8-31.2,7.9L30.8,23.8z
		 M60.2,53.2l7.2,7.2c2.3-1.2,4.9-1.9,7.6-1.9c9.1,0,16.4,7.4,16.4,16.4c0,2.7-0.7,5.3-1.9,7.6l7.2,7.2c2.9-4.2,4.5-9.3,4.5-14.8
		c0-14.5-11.8-26.3-26.3-26.3C69.5,48.7,64.4,50.4,60.2,53.2z"/>
	<path class="st1" d="M79.9,100.9l16.6,16.6c-6.7,2.3-14,3.6-21.5,3.6c-28,0-51.9-17.5-61.4-42.2c-1-2.5-1-5.3,0-7.8
		c3.2-8.4,8.1-15.9,14.3-22.3l21.3,21.3c-0.3,1.6-0.5,3.2-0.5,4.9c0,14.5,11.8,26.3,26.3,26.3C76.7,101.3,78.3,101.2,79.9,100.9z"/>
</g>
</svg>
