<?xml version="1.0" encoding="utf-8"?>
<!-- Generator: Adobe Illustrator 27.2.0, SVG Export Plug-In . SVG Version: 6.00 Build 0)  -->
<svg version="1.1" id="svg8" xmlns:svg="http://www.w3.org/2000/svg"
	 xmlns="http://www.w3.org/2000/svg" xmlns:xlink="http://www.w3.org/1999/xlink" x="0px" y="0px" viewBox="0 0 700 700"
	 style="enable-background:new 0 0 700 700;" xml:space="preserve">
<style type="text/css">
	.st0{fill:#A0A3B5;}
	.st1{fill-rule:evenodd;clip-rule:evenodd;fill:#A0A3B5;}
</style>
<g>
	<path class="st0" d="M477,223c14,0,25.4,11.4,25.4,25.4c0,37.9-16.7,72-43,95.3c-10.5,9.3-26.6,8.3-35.9-2.2s-8.3-26.6,2.2-35.9
		c15.9-14,25.8-34.4,25.8-57.2C451.6,234.3,463,223,477,223z"/>
	<path class="st1" d="M350,19.7C167.6,19.7,19.7,167.6,19.7,350S167.6,680.3,350,680.3S680.3,532.4,680.3,350S532.4,19.7,350,19.7z
		 M98.5,472c45.3,93.2,140.9,157.5,251.5,157.5c22.4,0,44.3-2.6,65.2-7.6c-9.7-25.9-34.5-43.2-62.4-43.2
		c-16.3,0-30.2-11.8-32.9-27.8l-2.5-14.8c-3.2-19.1,8.5-37.6,27.1-42.9l33.5-9.6c14.5-4.1,26.5-14.2,33.3-27.6l1.2-2.5
		c8.3-16.7,25.4-27.2,44-27.2c13.1,0,25.6,5.2,34.8,14.4l11,11h21.3c28.4,0,54.1,15.7,67.2,40.2c24.5-41.6,38.6-90,38.6-141.8
		c0-145.6-111.4-265.2-253.6-278.3c1.5,8.9,6.1,17.1,13.2,22.9l36.2,30.2c15,12.5,18.1,34.2,7.3,50.4l-17.3,26
		c-9.4,14.1-23.2,24.7-39.3,30l-4.8,1.6c-23.5,7.8-33.1,35.8-19.4,56.4c12.5,18.8,5.7,44.3-14.4,54.4l-89,44.5l14.3,35.9
		c6.3,15.6-0.5,33.5-15.6,41c-14,7-31,3-40.4-9.5l-23-30.7c-17-22.7-51.9-19.5-64.6,5.8L98.5,472z"/>
</g>
</svg>
