<?xml version="1.0" encoding="utf-8"?>
<!-- Generator: Adobe Illustrator 27.2.0, SVG Export Plug-In . SVG Version: 6.00 Build 0)  -->
<svg version="1.1" id="svg8" xmlns:svg="http://www.w3.org/2000/svg"
	 xmlns="http://www.w3.org/2000/svg" xmlns:xlink="http://www.w3.org/1999/xlink" x="0px" y="0px" viewBox="0 0 700 700"
	 style="enable-background:new 0 0 700 700;" xml:space="preserve">
<style type="text/css">
	.st0{fill:#A0A3B5;}
	.st1{fill-rule:evenodd;clip-rule:evenodd;fill:#FFFFFF;stroke:#A0A3B5;stroke-width:40;stroke-miterlimit:10;}
</style>
<g>
	<path class="st0" d="M97.8,363.6v206.2c0,39.8,32.3,72,72,72h360.3c39.8,0,72-32.3,72-72V363.6l-214.4,132
		c-23.1,14.3-52.4,14.3-75.5,0L97.8,363.6z"/>
	<path class="st0" d="M602.2,321.4v-3.8c0-39.8-32.3-72-72-72H169.9c-39.8,0-72,32.3-72,72v3.8L331.1,465c11.6,7.1,26.2,7.1,37.8,0
		L602.2,321.4z"/>
</g>
<circle class="st1" cx="350" cy="238.6" r="157"/>
<g>
	<path class="st0" d="M305.2,265.2c3.5,0,6,0.4,7.6,1.3c1.6,0.8,2.6,2.1,3.2,3.7s0.9,3.7,0.9,6.2s-0.2,4.5-0.7,6
		c-0.4,1.5-1,2.7-1.6,3.5s-1.6,1.4-2.8,1.7c-1.4,0.5-3.7,0.8-6.8,0.8h-55.7c-2.1,0-4-0.5-5.9-1.6c-3.9-2.2-5.9-5.8-5.9-10.6
		c0-2.3,0.5-4.2,1.6-5.6l41.5-57.4h-30.8c-2.1,0-3.7-0.1-4.7-0.2c-1-0.1-2.3-0.5-3.7-1.1c-2.6-1.2-3.9-4.6-3.9-10
		c0-5.7,1.2-9.2,3.6-10.4c1.3-0.7,2.5-1.1,3.5-1.3c1-0.1,2.6-0.2,4.7-0.2h53.8c2.1,0,4,0.5,5.9,1.6s3.3,2.5,4.3,4.3s1.5,3.9,1.5,6.3
		s-0.5,4.3-1.6,5.8l-41.5,57.4h33.5V265.2z"/>
	<path class="st0" d="M338.9,201.8c0-2.1,0.1-3.6,0.2-4.6s0.6-2.2,1.3-3.5c1.2-2.4,4.7-3.6,10.4-3.6c6.2,0,9.9,1.7,11.1,5
		c0.4,1.5,0.7,3.8,0.7,7v74.4c0,2.1-0.1,3.7-0.2,4.7s-0.6,2.1-1.3,3.5c-1.2,2.4-4.7,3.6-10.4,3.6c-6.2,0-9.9-1.7-11-5.1
		c-0.5-1.4-0.8-3.7-0.8-6.8L338.9,201.8L338.9,201.8z"/>
	<path class="st0" d="M459,209.8c2.3,4.7,3.5,10,3.5,15.8s-1.2,11-3.5,15.7s-5.3,8.4-9,11.2c-7.4,5.7-15.1,8.6-23,8.6h-16.7v15.1
		c0,2.1-0.1,3.6-0.2,4.6s-0.6,2.2-1.3,3.5c-1.2,2.4-4.7,3.6-10.4,3.6c-6.2,0-9.9-1.6-11-5c-0.5-1.5-0.8-3.8-0.8-7v-74.3
		c0-2.1,0.1-3.6,0.2-4.6s0.6-2.2,1.3-3.5c1.2-2.4,4.7-3.6,10.4-3.6h28.6c7.8,0,15.5,2.9,22.9,8.6C453.7,201.3,456.7,205.1,459,209.8
		z M435.1,234.4c2.6-2,3.9-4.9,3.9-8.8c0-3.9-1.3-6.9-3.9-8.9s-5.3-3-8-3h-16.7v23.7h16.9C429.9,237.4,432.5,236.4,435.1,234.4z"/>
</g>
</svg>
