<?xml version="1.0" encoding="utf-8"?>
<!-- Generator: Adobe Illustrator 27.8.1, SVG Export Plug-In . SVG Version: 6.00 Build 0)  -->
<svg version="1.1" id="Layer_1" xmlns="http://www.w3.org/2000/svg" xmlns:xlink="http://www.w3.org/1999/xlink" x="0px" y="0px"
	 viewBox="0 0 150 150" style="enable-background:new 0 0 150 150;" xml:space="preserve">
<style type="text/css">
	.st0{fill-rule:evenodd;clip-rule:evenodd;fill:#0F172A;}
</style>
<g>
	<path class="st0" d="M108.9,39.6c-1.7-1-3.9-0.8-5.3,0.7l-3.3,3.3c1.3,0.7,2.4,1.7,3.4,2.6c1,1,2,2.1,2.8,3.4l3.2-3.2
		c1.4-1.4,1.6-3.6,0.7-5.3c0,0,0.1-0.1,0.1-0.1l16.7-16.7c0.4-0.4,0.4-1.1,0-1.5s-1.1-0.4-1.5,0L108.9,39.6
		C108.9,39.6,108.9,39.6,108.9,39.6L108.9,39.6z M97.6,80.9h19.9c0.8,0,1.5,0.7,1.5,1.5v2.2c0,0.8-0.7,1.5-1.5,1.5H97.6
		c-0.8,0-1.5-0.7-1.5-1.5v-2.2C96.1,81.6,96.8,80.9,97.6,80.9L97.6,80.9z M115.2,89.4v-1.2H99.9v1.2c0,5-5,5.3-5,11v23
		c0,2.2,1.8,4.1,4.1,4.1h17.2c2.2,0,4.1-1.8,4.1-4.1v-0.6h-6.8c-0.6,0-1.1-0.5-1.1-1.1s0.5-1.1,1.1-1.1h6.8v-4.6h-6.8
		c-0.6,0-1.1-0.5-1.1-1.1s0.5-1.1,1.1-1.1h6.8v-4.6h-6.8c-0.6,0-1.1-0.5-1.1-1.1s0.5-1.1,1.1-1.1h6.8v-4.6h-6.8
		c-0.6,0-1.1-0.5-1.1-1.1s0.5-1.1,1.1-1.1h6.8v-0.1c0-2.2-0.7-3.5-1.6-4.7c-0.2,0.2-0.4,0.2-0.7,0.2h-4.5c-0.6,0-1.1-0.5-1.1-1.1
		s0.5-1.1,1.1-1.1h3.5C116,92.7,115.2,91.5,115.2,89.4L115.2,89.4z M42,120.6L29.4,108c-1.6-1.6-4.2-1.6-5.7,0s-1.6,4.2,0,5.7
		l12.6,12.6c1.6,1.6,4.2,1.6,5.7,0C43.6,124.7,43.6,122.1,42,120.6z M60.3,110.2c1.6,1.6,1.6,4.2,0,5.7c-1.6,1.6-4.2,1.6-5.7,0
		L34.1,95.4c-1.6-1.6-1.6-4.2,0-5.7c1.6-1.6,4.2-1.6,5.7,0L60.3,110.2L60.3,110.2z M91,45.2c5.6-5.6,19.8,7.8,13.8,13.8l-7.3,7.3
		l-5.1-5.1c-0.4-0.4-1.1-0.4-1.5,0c-0.4,0.4-0.4,1.1,0,1.5l5.1,5.1L89.8,74l-5.1-5.1c-0.4-0.4-1.1-0.4-1.5,0s-0.4,1.1,0,1.5l5.1,5.1
		l-6.2,6.2L77,76.5c-0.4-0.4-1.1-0.4-1.5,0s-0.4,1.1,0,1.5l5.1,5.1l-6.2,6.2l-5.1-5.1c-0.4-0.4-1.1-0.4-1.5,0
		c-0.4,0.4-0.4,1.1,0,1.5l5.1,5.1L66.8,97l-5.1-5.1c-0.4-0.4-1.1-0.4-1.5,0s-0.4,1.1,0,1.5l5.1,5.1l-6.8,6.8L44.7,91.5L91,45.2z
		 M39.8,104.1l6.1,6.1l-5.6,5.6l-6.1-6.1L39.8,104.1z"/>
</g>
</svg>
