<?xml version="1.0" encoding="utf-8"?>
<!-- Generator: Adobe Illustrator 27.7.0, SVG Export Plug-In . SVG Version: 6.00 Build 0)  -->
<svg version="1.1" id="Layer_1" xmlns="http://www.w3.org/2000/svg" xmlns:xlink="http://www.w3.org/1999/xlink" x="0px" y="0px"
	 viewBox="0 0 150 150" style="enable-background:new 0 0 150 150;" xml:space="preserve">
<style type="text/css">
	.st0{fill:#A0A3B5;}
</style>
<g>
	<path class="st0" d="M34,80.4L49.4,65c12.8,9.6,31.1,7,40.7-5.8s7-31.1-5.8-40.7s-31.1-7-40.7,5.8c-7.7,10.3-7.7,24.5,0,34.8
		L28.2,74.6l-5.9-5.9c-1.6-1.6-4.2-1.6-5.9,0s-1.6,4.2,0,5.9l5.9,5.9l-8.2,8.2c-1.6,1.6-1.7,4.2-0.1,5.9c1.6,1.6,4.2,1.7,5.9,0.1
		l0.1-0.1l8.2-8.2l5.9,5.9c1.6,1.6,4.2,1.7,5.9,0.1c1.6-1.6,1.7-4.2,0.1-5.9L40,86.4L34,80.4z M66.7,21.2c11.4,0,20.7,9.3,20.7,20.7
		s-9.3,20.7-20.7,20.7S46,53.3,46,41.9S55.3,21.2,66.7,21.2z"/>
	<path class="st0" d="M133,54.3h-20.7c-2.3,0-4.1,1.9-4.1,4.1c0,2.3,1.9,4.1,4.1,4.1H123l-22.4,22.4c-12.8-9.6-31.1-7-40.7,5.9
		s-7,31.1,5.9,40.7s31.1,7,40.7-5.9c7.7-10.3,7.7-24.5,0-34.8l22.4-22.4v10.7c0,2.3,1.9,4.1,4.1,4.1s4.1-1.9,4.1-4.1V58.4
		C137.1,56.1,135.3,54.3,133,54.3z M83.3,128.8c-11.4,0-20.7-9.3-20.7-20.7s9.3-20.7,20.7-20.7s20.7,9.3,20.7,20.7
		S94.7,128.8,83.3,128.8z"/>
</g>
</svg>
