<?xml version="1.0" encoding="utf-8"?>
<!-- Generator: Adobe Illustrator 27.8.1, SVG Export Plug-In . SVG Version: 6.00 Build 0)  -->
<svg version="1.1" id="Layer_1" xmlns="http://www.w3.org/2000/svg" xmlns:xlink="http://www.w3.org/1999/xlink" x="0px" y="0px"
	 viewBox="0 0 150 150" style="enable-background:new 0 0 150 150;" xml:space="preserve">
<style type="text/css">
	.st0{fill:#FFD700;}
	.st1{fill:#F9F9F9;}
	.st2{fill:#00BFFF;}
	.st3{fill:#FF4040;}
</style>
<g>
	<g id="_x32_1_healthcare">
		<g>
			<g>
				<path class="st0" d="M25.4,42c-1.3,1.3-1.3,3.5,0,4.8c1.3,1.3,3.5,1.3,4.8,0c1.3-1.3,1.3-3.5,0-4.8C28.9,40.6,26.8,40.6,25.4,42
					z"/>
				<path class="st1" d="M98.4,125.6H51.6c-2.8,0-5.1-2.3-5.1-5.1v-91c0-2.8,2.3-5.1,5.1-5.1h46.8c2.8,0,5.1,2.3,5.1,5.1v91
					C103.5,123.3,101.2,125.6,98.4,125.6z"/>
				<path class="st2" d="M90.2,91.3H59.8c-2.8,0-5.1-2.3-5.1-5.1V55.7c0-2.8,2.3-5.1,5.1-5.1h30.5c2.8,0,5.1,2.3,5.1,5.1v30.5
					C95.3,89,93.1,91.3,90.2,91.3z"/>
				<path class="st3" d="M78,61.1l-2.3,2.3c-0.4,0.4-1,0.4-1.4,0L72,61.1c-2.6-2.6-6.9-2.6-9.6,0s-2.6,6.9,0,9.6l11.8,11.8
					c0.4,0.4,1,0.4,1.4,0l11.8-11.8c2.6-2.6,2.6-6.9,0-9.6S80.6,58.5,78,61.1z"/>
				<path class="st2" d="M51.6,125.6h46.8c2.8,0,5.1-2.3,5.1-5.1v-9.8h-57v9.8C46.5,123.3,48.8,125.6,51.6,125.6z"/>
				<g>
					<path class="st0" d="M25.4,100c-1.3-1.3-1.3-3.5,0-4.8s3.5-1.3,4.8,0c1.3,1.3,1.3,3.5,0,4.8S26.8,101.3,25.4,100z"/>
					<path class="st0" d="M124.6,100c1.3-1.3,1.3-3.5,0-4.8s-3.5-1.3-4.8,0s-1.3,3.5,0,4.8S123.2,101.3,124.6,100z"/>
					<path class="st0" d="M124.6,42c1.3,1.3,1.3,3.5,0,4.8c-1.3,1.3-3.5,1.3-4.8,0c-1.3-1.3-1.3-3.5,0-4.8
						C121.1,40.6,123.2,40.6,124.6,42z"/>
				</g>
			</g>
			<g>
				<path d="M68.6,119.7h12.8c0.8,0,1.5-0.7,1.5-1.5s-0.7-1.5-1.5-1.5H68.6c-0.8,0-1.5,0.7-1.5,1.5S67.7,119.7,68.6,119.7z"/>
				<path d="M83.5,29.7H66.5c-0.8,0-1.5,0.7-1.5,1.5c0,0.8,0.7,1.5,1.5,1.5h16.9c0.8,0,1.5-0.7,1.5-1.5C85,30.4,84.3,29.7,83.5,29.7
					z"/>
				<path d="M84.3,99.3c0.8,0,1.5-0.7,1.5-1.5c0-0.8-0.7-1.5-1.5-1.5H65.7c-0.8,0-1.5,0.7-1.5,1.5c0,0.8,0.7,1.5,1.5,1.5H84.3z"/>
				<path d="M61.2,104.2c0,0.8,0.7,1.5,1.5,1.5h24.6c0.8,0,1.5-0.7,1.5-1.5c0-0.8-0.7-1.5-1.5-1.5H62.7
					C61.9,102.7,61.2,103.4,61.2,104.2z"/>
				<path d="M122.2,92.6c-1.3,0-2.6,0.5-3.5,1.4c-0.6,0.6-1,1.2-1.2,2h-4c-0.3,0-0.5-0.2-0.5-0.5v-9.5c0-2-1.6-3.6-3.6-3.6H105V73
					h8.6c0.8,0,1.5-0.7,1.5-1.5c0-0.8-0.7-1.5-1.5-1.5H105V59.4h4.4c2,0,3.6-1.6,3.6-3.6v-9.5c0-0.3,0.2-0.5,0.5-0.5h4
					c0.2,0.7,0.6,1.4,1.2,2c0.9,0.9,2.2,1.4,3.5,1.4c1.3,0,2.6-0.5,3.5-1.4c1.9-1.9,1.9-5.1,0-7c-1.9-1.9-5.1-1.9-7,0
					c-0.6,0.6-1,1.2-1.2,2h-4c-2,0-3.6,1.6-3.6,3.6v9.5c0,0.3-0.2,0.5-0.5,0.5H105V29.5c0-3.6-3-6.6-6.6-6.6H51.6
					c-3.6,0-6.6,3-6.6,6.6v26.9h-4.4c-0.3,0-0.5-0.2-0.5-0.5v-9.5c0-2-1.6-3.6-3.6-3.6h-4c-0.2-0.7-0.6-1.4-1.2-2
					c-1.9-1.9-5.1-1.9-7,0c-1.9,1.9-1.9,5.1,0,7c0.9,0.9,2.2,1.4,3.5,1.4c1.3,0,2.6-0.5,3.5-1.4c0.6-0.6,1-1.2,1.2-2h4
					c0.3,0,0.5,0.2,0.5,0.5v9.5c0,2,1.6,3.6,3.6,3.6H45v9.7h-6.4c-0.8,0-1.5,0.7-1.5,1.5s0.7,1.5,1.5,1.5H45v10.3h-4.4
					c-2,0-3.6,1.6-3.6,3.6v9.5c0,0.3-0.2,0.5-0.5,0.5h-4c-0.2-0.7-0.6-1.4-1.2-2c-0.9-0.9-2.2-1.4-3.5-1.4c-1.3,0-2.6,0.5-3.5,1.4
					c-1.9,1.9-1.9,5.1,0,7c0.9,0.9,2.2,1.4,3.5,1.4c1.3,0,2.6-0.5,3.5-1.4c0.6-0.6,1-1.2,1.2-2h4c2,0,3.6-1.6,3.6-3.6v-9.5
					c0-0.3,0.2-0.5,0.5-0.5H45v34.9c0,3.6,3,6.6,6.6,6.6h46.8c3.6,0,6.6-3,6.6-6.6v-19c0-0.8-0.7-1.5-1.5-1.5s-1.5,0.7-1.5,1.5v7.7
					H48v-37h5.1v14c0,3.6,3,6.6,6.6,6.6h30.5c3.6,0,6.6-3,6.6-6.6V73h5.1v21.9c0,0.8,0.7,1.5,1.5,1.5s1.5-0.7,1.5-1.5v-9.3h4.4
					c0.3,0,0.5,0.2,0.5,0.5v9.5c0,2,1.6,3.6,3.6,3.6h4c0.2,0.7,0.6,1.4,1.2,2c0.9,0.9,2.2,1.4,3.5,1.4c1.3,0,2.6-0.5,3.5-1.4
					c1.9-1.9,1.9-5.1,0-7C124.7,93.1,123.5,92.6,122.2,92.6L122.2,92.6z M120.8,43c0.4-0.4,0.9-0.6,1.3-0.6c0.5,0,1,0.2,1.3,0.6
					c0.7,0.7,0.7,1.9,0,2.7c-0.4,0.4-0.8,0.6-1.3,0.6s-1-0.2-1.3-0.6c-0.4-0.4-0.6-0.8-0.6-1.3C120.3,43.9,120.5,43.4,120.8,43z
					 M29.2,45.7c-0.4,0.4-0.8,0.6-1.3,0.6c-0.5,0-1-0.2-1.3-0.6c-0.7-0.7-0.7-1.9,0-2.7v0c0.7-0.7,1.9-0.7,2.7,0
					c0.4,0.4,0.6,0.8,0.6,1.3C29.7,44.9,29.5,45.4,29.2,45.7z M29.2,98.9c-0.4,0.4-0.8,0.6-1.3,0.6c-0.5,0-1-0.2-1.3-0.6
					c-0.7-0.7-0.7-1.9,0-2.7c0.4-0.4,0.8-0.6,1.3-0.6c0.5,0,1,0.2,1.3,0.6c0.4,0.4,0.6,0.8,0.6,1.3S29.5,98.6,29.2,98.9L29.2,98.9z
					 M102,112.2v8.3c0,2-1.6,3.6-3.6,3.6H51.6c-2,0-3.6-1.6-3.6-3.6v-8.3H102z M93.8,86.2c0,2-1.6,3.6-3.6,3.6H59.8
					c-2,0-3.6-1.6-3.6-3.6v-14h5.6l11.4,11.4c0.5,0.5,1.1,0.7,1.8,0.7s1.3-0.2,1.8-0.7L87.4,73h6.4L93.8,86.2L93.8,86.2z M63.5,62.2
					c1-1,2.4-1.5,3.7-1.5s2.7,0.5,3.7,1.5l2.3,2.3c0.5,0.5,1.1,0.7,1.8,0.7c0.7,0,1.3-0.3,1.8-0.7l2.3-2.3c2-2,5.4-2,7.4,0
					c2,2,2,5.4,0,7.4L86.1,70h-4.4L80,67.4c-0.3-0.5-0.8-0.7-1.4-0.7c-0.5,0-1,0.3-1.3,0.8l-2.3,4.6L72.2,66
					c-0.2-0.5-0.7-0.8-1.3-0.9c-0.6,0-1.1,0.2-1.4,0.7l-2,3.3h-4.4C61.5,67.1,61.6,64.1,63.5,62.2L63.5,62.2z M83.1,73L75,81.1
					l-8.9-8.9h2.2c0.5,0,1-0.3,1.3-0.7l1-1.6l3,6.4c0.2,0.5,0.8,0.9,1.4,0.9c0,0,0,0,0,0c0.6,0,1.1-0.3,1.4-0.8l2.6-5.1l0.7,1.1
					c0.3,0.4,0.8,0.7,1.3,0.7L83.1,73z M96.9,70V55.7c0-3.6-3-6.6-6.6-6.6H71.9c-0.8,0-1.5,0.7-1.5,1.5c0,0.8,0.7,1.5,1.5,1.5h18.3
					c2,0,3.6,1.6,3.6,3.6V70H90c1.8-3.2,1.3-7.2-1.4-9.9c-3.2-3.2-8.5-3.2-11.7,0L75,61.9L73.1,60c-3.2-3.2-8.5-3.2-11.7,0
					c-2.5,2.5-3,6.1-1.8,9.1h-3.4V55.7c0-2,1.6-3.6,3.6-3.6h5.5c0.8,0,1.5-0.7,1.5-1.5c0-0.8-0.7-1.5-1.5-1.5h-5.5
					c-3.6,0-6.6,3-6.6,6.6v13.4H48V29.5c0-2,1.6-3.6,3.6-3.6h46.8c2,0,3.6,1.6,3.6,3.6V70L96.9,70z M123.5,98.9
					c-0.4,0.4-0.8,0.6-1.3,0.6s-1-0.2-1.3-0.6c-0.4-0.4-0.6-0.8-0.6-1.3s0.2-1,0.6-1.3c0.4-0.4,0.8-0.6,1.3-0.6c0.5,0,1,0.2,1.3,0.6
					C124.2,97,124.2,98.2,123.5,98.9L123.5,98.9z"/>
			</g>
		</g>
	</g>
	<g id="_x31__smart_home">
	</g>
</g>
</svg>
