<?xml version="1.0" encoding="utf-8"?>
<!-- Generator: Adobe Illustrator 27.8.1, SVG Export Plug-In . SVG Version: 6.00 Build 0)  -->
<svg version="1.1" id="Layer_1" xmlns="http://www.w3.org/2000/svg" xmlns:xlink="http://www.w3.org/1999/xlink" x="0px" y="0px"
	 viewBox="0 0 150 150" style="enable-background:new 0 0 150 150;" xml:space="preserve">
<style type="text/css">
	.st0{fill:#E1EFFF;}
	.st1{fill:#FFE783;}
	.st2{fill:#212121;}
	.st3{fill:#E95454;}
	.st4{fill:#EC9922;}
	.st5{fill:#FFCC5B;}
	.st6{fill:#F5737F;}
	.st7{fill:none;stroke:#000000;stroke-width:4;stroke-linecap:round;stroke-linejoin:round;stroke-miterlimit:10;}
</style>
<g>
	<path class="st0" d="M135.5,37.1v81.7c0,2.7-2.2,4.9-4.9,4.9H86.2H63.8H19.3c-2.7,0-4.9-2.2-4.9-4.9V37.1H135.5z M68.1,56.8
		c0-1.1-0.2-2.1-0.6-3C67.2,53,66.7,52.4,66,52c-0.7-0.4-1.4-0.6-2.3-0.6c-0.6,0-1.2,0.1-1.7,0.3c-0.5,0.2-1,0.6-1.3,1
		c-0.4,0.4-0.7,1-0.9,1.7c-0.2,0.7-0.3,1.5-0.3,2.4c0,0.9,0.1,1.7,0.3,2.4c0.2,0.7,0.5,1.3,0.9,1.8c0.4,0.5,0.9,0.8,1.4,1
		c0.5,0.2,1.1,0.3,1.7,0.3c0.8,0,1.5-0.2,2.2-0.6c0.7-0.4,1.2-1,1.6-1.8C67.9,59.1,68.1,58,68.1,56.8z"/>
	<path class="st0" d="M67.5,53.8c0.4,0.8,0.6,1.8,0.6,3c0,1.2-0.2,2.3-0.6,3.1c-0.4,0.8-0.9,1.4-1.6,1.8c-0.7,0.4-1.4,0.6-2.2,0.6
		c-0.6,0-1.2-0.1-1.7-0.3c-0.5-0.2-1-0.6-1.4-1c-0.4-0.5-0.7-1.1-0.9-1.8c-0.2-0.7-0.3-1.5-0.3-2.4c0-0.9,0.1-1.7,0.3-2.4
		c0.2-0.7,0.5-1.3,0.9-1.7c0.4-0.4,0.8-0.8,1.3-1c0.5-0.2,1.1-0.3,1.7-0.3c0.9,0,1.6,0.2,2.3,0.6C66.7,52.4,67.2,53,67.5,53.8z"/>
	<path class="st1" d="M135.5,37.1l-121.1,0v0V24.7c0-2.7,2.2-4.9,4.9-4.9h111.3c2.7,0,4.9,2.2,4.9,4.9V37.1z"/>
	<path class="st2" d="M130.7,125.6H86.2c-1.1,0-2-0.9-2-2c0-1.1,0.9-2,2-2h44.5c1.6,0,2.9-1.3,2.9-2.9v-94c0-1.6-1.3-2.9-2.9-2.9
		H19.3c-1.6,0-2.9,1.3-2.9,2.9v94c0,1.6,1.3,2.9,2.9,2.9h44.5c1.1,0,2,0.9,2,2c0,1.1-0.9,2-2,2H19.3c-3.8,0-6.9-3.1-6.9-6.9v-94
		c0-3.8,3.1-6.9,6.9-6.9h111.3c3.8,0,6.9,3.1,6.9,6.9v94C137.5,122.5,134.4,125.6,130.7,125.6z"/>
	<path class="st2" d="M135.5,39.1H14.5c-1.1,0-2-0.9-2-2c0-1.1,0.9-2,2-2h121.1c1.1,0,2,0.9,2,2C137.5,38.2,136.6,39.1,135.5,39.1z"
		/>
	<path class="st2" d="M124.5,30.5H76c-1.1,0-2-0.9-2-2c0-1.1,0.9-2,2-2h48.6c1.1,0,2,0.9,2,2C126.5,29.6,125.6,30.5,124.5,30.5z"/>
	<path class="st2" d="M27.1,31c1.4,0,2.6-1.2,2.6-2.6c0-1.4-1.2-2.6-2.6-2.6c-1.4,0-2.6,1.2-2.6,2.6C24.5,29.9,25.7,31,27.1,31z"/>
	<path class="st2" d="M37.9,31c1.4,0,2.6-1.2,2.6-2.6c0-1.4-1.2-2.6-2.6-2.6c-1.4,0-2.6,1.2-2.6,2.6C35.3,29.9,36.5,31,37.9,31z"/>
	<path class="st2" d="M48.6,31c1.4,0,2.6-1.2,2.6-2.6c0-1.4-1.2-2.6-2.6-2.6c-1.4,0-2.6,1.2-2.6,2.6C46.1,29.9,47.2,31,48.6,31z"/>
	<g>
		<path class="st3" d="M86.2,123.3v10.8L75,124.6l-11.2,9.6v-10.8v-9.7V111v-4.1c1.1,0,2.2,0,3.1,0.4c2.8,1.2,4.9,6.3,8.1,6.3
			c3.2,0,5.3-5.2,8.1-6.3c0.9-0.4,1.9-0.4,3.1-0.4v4.1v2.6V123.3z"/>
		<path class="st4" d="M75,100.9c7.3,0,13.2-5.9,13.2-13.2c0-7.3-5.9-13.2-13.2-13.2c-7.3,0-13.2,5.9-13.2,13.2
			C61.8,95,67.7,100.9,75,100.9z"/>
		<path class="st5" d="M94.6,79.6c1.2,2.8,6.3,4.9,6.3,8.1c0,3.2-5.2,5.3-6.3,8.1c-1.2,2.9,0.9,8-1.3,10.2c-1.5,1.5-4.5,0.9-7.1,0.9
			c-1.1,0-2.2,0-3.1,0.4c-2.8,1.2-4.9,6.3-8.1,6.3c-3.2,0-5.3-5.2-8.1-6.3c-0.9-0.4-1.9-0.4-3.1-0.4c-2.6,0.1-5.6,0.6-7.1-0.9
			c-2.2-2.2-0.1-7.3-1.3-10.2c-1.2-2.8-6.3-4.9-6.3-8.1c0-3.2,5.2-5.3,6.3-8.1c1.2-2.9-0.9-8,1.3-10.2c2.2-2.2,7.3-0.1,10.2-1.3
			c2.8-1.2,4.9-6.3,8.1-6.3c3.2,0,5.3,5.2,8.1,6.3c2.9,1.2,8-0.9,10.2,1.3C95.5,71.5,93.4,76.7,94.6,79.6z M88.2,87.7
			c0-7.3-5.9-13.2-13.2-13.2c-7.3,0-13.2,5.9-13.2,13.2c0,7.3,5.9,13.2,13.2,13.2C82.3,100.9,88.2,95,88.2,87.7z"/>
		<path class="st2" d="M75,115.6c-2.7,0-4.6-2.2-6.3-4.1c-0.9-1-1.8-2.1-2.6-2.4c-0.8-0.3-2.3-0.3-3.7-0.2c-2.5,0.2-5.3,0.3-7.1-1.5
			c-1.9-1.9-1.7-4.7-1.5-7.1c0.1-1.4,0.2-2.9-0.2-3.7c-0.3-0.8-1.4-1.7-2.4-2.6c-1.9-1.7-4-3.5-4-6.3c0-2.7,2.2-4.6,4-6.3
			c1-0.9,2.1-1.8,2.4-2.6c0.3-0.8,0.3-2.3,0.2-3.7c-0.2-2.5-0.3-5.3,1.5-7.1c1.9-1.9,4.7-1.7,7.1-1.5c1.4,0.1,2.9,0.2,3.7-0.2
			c0.8-0.3,1.7-1.4,2.6-2.4c1.7-1.9,3.5-4.1,6.3-4.1c2.7,0,4.6,2.2,6.3,4.1c0.9,1,1.8,2.1,2.6,2.4c0.8,0.3,2.3,0.3,3.7,0.2
			c2.5-0.2,5.3-0.3,7.1,1.5c1.9,1.9,1.7,4.7,1.5,7.1c-0.1,1.4-0.2,2.9,0.2,3.7c0.3,0.8,1.4,1.7,2.4,2.6c1.9,1.7,4.1,3.5,4.1,6.3
			c0,2.7-2.2,4.6-4.1,6.3c-1,0.9-2.1,1.8-2.4,2.6c-0.3,0.8-0.3,2.3-0.2,3.7c0.2,2.5,0.3,5.3-1.5,7.1c-1.9,1.9-4.7,1.7-7.1,1.5
			c-1.4-0.1-2.9-0.2-3.7,0.2c-0.8,0.3-1.7,1.4-2.6,2.4C79.6,113.5,77.7,115.6,75,115.6z M64.3,104.9c1.2,0,2.3,0.1,3.4,0.6
			c1.6,0.7,2.9,2.1,4.1,3.5c1.1,1.3,2.3,2.7,3.3,2.7s2.2-1.4,3.3-2.7c1.2-1.4,2.5-2.8,4.1-3.5c1.7-0.7,3.6-0.6,5.5-0.5
			c1.5,0.1,3.5,0.2,4-0.4c0.6-0.6,0.5-2.5,0.4-4c-0.1-1.9-0.2-3.8,0.5-5.5c0.7-1.6,2.1-2.9,3.5-4.1c1.3-1.1,2.7-2.3,2.7-3.3
			c0-0.9-1.4-2.2-2.7-3.3c-1.4-1.2-2.8-2.5-3.5-4.1c-0.7-1.7-0.6-3.6-0.5-5.5c0.1-1.5,0.2-3.5-0.4-4c-0.6-0.6-2.5-0.5-4-0.4
			C86,70.5,84,70.6,82.3,70c-1.6-0.7-2.9-2.1-4.1-3.5c-1.1-1.3-2.3-2.7-3.3-2.7s-2.2,1.4-3.3,2.7c-1.2,1.4-2.5,2.8-4.1,3.5
			c-1.7,0.7-3.6,0.6-5.5,0.5c-1.5-0.1-3.5-0.2-4,0.4c-0.6,0.6-0.5,2.5-0.4,4c0.1,1.9,0.2,3.8-0.5,5.5c-0.7,1.6-2.1,2.9-3.5,4.1
			c-1.3,1.1-2.7,2.3-2.7,3.3s1.4,2.2,2.7,3.3c1.4,1.2,2.8,2.5,3.5,4.1c0.7,1.7,0.6,3.6,0.5,5.5c-0.1,1.5-0.2,3.5,0.4,4
			c0.6,0.6,2.5,0.5,4,0.4C62.9,104.9,63.6,104.9,64.3,104.9z"/>
		<path class="st2" d="M75,102.9c-8.4,0-15.3-6.8-15.3-15.3S66.6,72.4,75,72.4s15.3,6.8,15.3,15.3S83.4,102.9,75,102.9z M75,76.5
			c-6.2,0-11.2,5-11.2,11.2c0,6.2,5,11.2,11.2,11.2c6.2,0,11.2-5,11.2-11.2C86.2,81.5,81.2,76.5,75,76.5z"/>
		<path class="st2" d="M75.3,95.6c-1.1,0-2-0.9-2-2v-7.2c-0.7,0.3-1.6,0.2-2.2-0.4c-0.8-0.8-0.8-2.1,0-2.8l2.8-2.8
			c0.6-0.6,1.4-0.7,2.2-0.4c0.7,0.3,1.2,1,1.2,1.9v11.9C77.3,94.7,76.4,95.6,75.3,95.6z"/>
		<path class="st2" d="M77.6,95.6H73c-1.1,0-2-0.9-2-2c0-1.1,0.9-2,2-2h4.5c1.1,0,2,0.9,2,2C79.6,94.7,78.7,95.6,77.6,95.6z"/>
		<path class="st2" d="M63.8,136.1c-0.3,0-0.6-0.1-0.8-0.2c-0.7-0.3-1.2-1-1.2-1.8v-27.2c0-1.1,0.9-2,2-2c1.1,0,2,0.9,2,2v22.9
			l7.9-6.7c0.8-0.6,1.9-0.6,2.6,0l7.9,6.7v-22.9c0-1.1,0.9-2,2-2c1.1,0,2,0.9,2,2v27.2c0,0.8-0.5,1.5-1.2,1.8
			c-0.7,0.3-1.5,0.2-2.1-0.3l-9.9-8.4l-9.9,8.4C64.8,136,64.3,136.1,63.8,136.1z"/>
	</g>
	<path class="st2" d="M124.5,50H82c-1.1,0-2-0.9-2-2c0-1.1,0.9-2,2-2h42.5c1.1,0,2,0.9,2,2C126.5,49.1,125.7,50,124.5,50z"/>
	<path class="st2" d="M124.5,58.9H82c-1.1,0-2-0.9-2-2s0.9-2,2-2h42.5c1.1,0,2,0.9,2,2S125.7,58.9,124.5,58.9z"/>
	<path class="st2" d="M124.5,67.7H82c-1.1,0-2-0.9-2-2c0-1.1,0.9-2,2-2h42.5c1.1,0,2,0.9,2,2C126.5,66.9,125.7,67.7,124.5,67.7z"/>
	<path class="st6" d="M57.2,55.1h-8.9v-8.9H37.7v8.9h-8.9v10.6h8.9v8.9h10.6v-8.9h8.9V55.1z"/>
	<path class="st7" d="M57.2,55.1h-8.9v-8.9H37.7v8.9h-8.9v10.6h8.9v8.9h10.6v-8.9h8.9V55.1z"/>
</g>
</svg>
