<?xml version="1.0" encoding="UTF-8"?>
<svg id="Layer_1" data-name="Layer 1" xmlns="http://www.w3.org/2000/svg" width="46" height="46" viewBox="0 0 46 46">
  <defs>
    <style>
      .cls-1 {
        fill: #010101;
      }
    </style>
  </defs>
  <path class="cls-1" d="M38.81,31.62H7.19c-3.96,0-7.19,3.22-7.19,7.19s3.22,7.19,7.19,7.19h31.62c3.96,0,7.19-3.22,7.19-7.19s-3.22-7.19-7.19-7.19Zm0,11.5H7.19c-2.38,0-4.31-1.93-4.31-4.31s1.93-4.31,4.31-4.31h31.62c2.38,0,4.31,1.93,4.31,4.31s-1.93,4.31-4.31,4.31Z"/>
  <path class="cls-1" d="M32.04,37.79c-.54,.57-.57,1.44,0,2.04,.57,.54,1.44,.57,2.04,0,.56-.6,.55-1.46,0-2.04-.53-.53-1.51-.53-2.04,0Z"/>
  <path class="cls-1" d="M21.98,28.35c.56,.56,1.47,.56,2.03,0l11.5-11.5c.41-.41,.53-1.03,.31-1.57-.22-.54-.75-.89-1.33-.89h-5.75V1.44c0-.79-.64-1.44-1.44-1.44h-8.63c-.79,0-1.44,.64-1.44,1.44V14.4h-5.75c-.58,0-1.11,.35-1.33,.89-.22,.54-.1,1.16,.31,1.57l11.5,11.5Zm-3.3-11.08c.79,0,1.44-.64,1.44-1.44V2.88h5.75V15.84c0,.79,.64,1.44,1.44,1.44h3.72l-8.03,8.03-8.03-8.03h3.72Z"/>
</svg>