<svg width="51" height="50" viewBox="0 0 51 50" fill="none" xmlns="http://www.w3.org/2000/svg">
<path d="M47.0654 9.17793V37.9341C47.0654 38.8838 46.2959 39.6532 45.3462 39.6532H29.6865V38.7365V37.29C30.6168 37.3144 31.6677 37.5153 32.2027 36.9803C32.9668 36.2162 32.2295 34.3991 32.6501 33.385C33.0557 32.4068 34.8757 31.6521 34.8757 30.5271C34.8757 29.4021 33.0557 28.6473 32.6501 27.6691C32.2295 26.655 32.9668 24.8379 32.2027 24.0738C31.4386 23.3097 29.6215 24.0468 28.6074 23.6265C27.6292 23.2209 26.8745 21.4009 25.7495 21.4009C24.6245 21.4009 23.8698 23.2209 22.8915 23.6265C21.8774 24.0468 20.0604 23.3097 19.2962 24.0738C18.5321 24.8379 19.2695 26.655 18.8489 27.6691C18.4433 28.6473 16.6233 29.4021 16.6233 30.5271C16.6233 31.6521 18.4433 32.4068 18.8489 33.385C19.2695 34.3991 18.5321 36.2162 19.2962 36.9803C19.8312 37.5153 20.8824 37.3141 21.8127 37.29V38.7365V39.6532H6.15271C5.20301 39.6532 4.43359 38.8838 4.43359 37.9341V9.17793H47.0654ZM23.3183 16.1294C23.3183 15.7259 23.2527 15.3726 23.1233 15.0788C22.9948 14.7871 22.8168 14.5726 22.5801 14.4241C22.3451 14.2771 22.0712 14.2023 21.7657 14.2023C21.5486 14.2023 21.3454 14.2435 21.1618 14.325C20.9795 14.4062 20.8201 14.5256 20.688 14.6806C20.5551 14.8365 20.4483 15.0403 20.3707 15.2859C20.2918 15.5344 20.2521 15.8182 20.2521 16.1294C20.2521 16.4435 20.2921 16.7309 20.3707 16.9829C20.4483 17.2323 20.5589 17.4409 20.6992 17.6032C20.8389 17.7647 21.0012 17.8871 21.1812 17.9671C21.3621 18.0471 21.5642 18.0876 21.7812 18.0876C22.063 18.0876 22.3148 18.0191 22.5507 17.8785C22.7815 17.7406 22.9689 17.5232 23.1068 17.2321C23.2471 16.9368 23.3183 16.5656 23.3183 16.1294Z" fill="#E1EFFF"/>
<path d="M29.6863 43.0638V46.8823L25.7493 43.5191L21.8125 46.8823V43.0638V39.6532V38.7365V37.29C22.211 37.2794 22.5872 37.3015 22.8913 37.4276C23.8696 37.8332 24.6243 39.6532 25.7493 39.6532C26.8743 39.6532 27.629 37.8332 28.6072 37.4276C28.9113 37.3015 29.2878 37.2794 29.6863 37.29V38.7365V39.6532V43.0638Z" fill="#E95454"/>
<path d="M25.7494 35.1915C28.3255 35.1915 30.4138 33.1031 30.4138 30.5271C30.4138 27.951 28.3255 25.8626 25.7494 25.8626C23.1733 25.8626 21.085 27.951 21.085 30.5271C21.085 33.1031 23.1733 35.1915 25.7494 35.1915Z" fill="#EC9922"/>
<path d="M32.6498 27.6691C33.0554 28.6473 34.8754 29.4021 34.8754 30.5271C34.8754 31.6521 33.0554 32.4068 32.6498 33.385C32.2292 34.3991 32.9666 36.2162 32.2025 36.9803C31.6675 37.5153 30.6166 37.3144 29.6863 37.29C29.2878 37.2794 28.9113 37.3015 28.6072 37.4276C27.6289 37.8332 26.8742 39.6532 25.7492 39.6532C24.6242 39.6532 23.8695 37.8332 22.8913 37.4276C22.5872 37.3015 22.211 37.2794 21.8125 37.29C20.8822 37.3141 19.831 37.5153 19.296 36.9803C18.5319 36.2162 19.2692 34.3991 18.8486 33.385C18.443 32.4068 16.623 31.6521 16.623 30.5271C16.623 29.4021 18.443 28.6473 18.8486 27.6691C19.2692 26.655 18.5319 24.8379 19.296 24.0738C20.0601 23.3097 21.8772 24.0468 22.8913 23.6265C23.8695 23.2209 24.6242 21.4009 25.7492 21.4009C26.8742 21.4009 27.6289 23.2209 28.6072 23.6265C29.6213 24.0468 31.4383 23.3097 32.2025 24.0738C32.9666 24.8379 32.2292 26.655 32.6498 27.6691ZM30.4136 30.5271C30.4136 27.9509 28.3251 25.8626 25.7492 25.8626C23.1733 25.8626 21.0848 27.9509 21.0848 30.5271C21.0848 33.1029 23.1733 35.1915 25.7492 35.1915C28.3251 35.1915 30.4136 33.1029 30.4136 30.5271Z" fill="#FFCC5B"/>
<path d="M23.1231 15.0788C23.2525 15.3726 23.3181 15.7259 23.3181 16.1294C23.3181 16.5656 23.247 16.9368 23.1067 17.2321C22.9687 17.5232 22.7814 17.7406 22.5505 17.8785C22.3146 18.0191 22.0628 18.0876 21.7811 18.0876C21.564 18.0876 21.362 18.0471 21.1811 17.9671C21.0011 17.8871 20.8387 17.7647 20.699 17.6032C20.5587 17.4409 20.4481 17.2323 20.3705 16.9829C20.292 16.7309 20.252 16.4435 20.252 16.1294C20.252 15.8182 20.2917 15.5344 20.3705 15.2859C20.4481 15.0403 20.5549 14.8365 20.6878 14.6806C20.8199 14.5256 20.9793 14.4062 21.1617 14.325C21.3452 14.2435 21.5484 14.2023 21.7655 14.2023C22.0711 14.2023 22.3449 14.2771 22.5799 14.4241C22.8167 14.5726 22.9946 14.7871 23.1231 15.0788Z" fill="#E1EFFF"/>
<path d="M47.0654 9.17765L4.43359 9.17794V9.17765V4.83676C4.43359 3.88706 5.20301 3.11765 6.15271 3.11765H45.3462C46.2959 3.11765 47.0654 3.88706 47.0654 4.83676V9.17765Z" fill="#FFE783"/>
<path d="M45.3464 40.3591H29.6867C29.2969 40.3591 28.9808 40.0429 28.9808 39.6532C28.9808 39.2635 29.2969 38.9473 29.6867 38.9473H45.3464C45.9049 38.9473 46.3596 38.4929 46.3596 37.9341V4.83676C46.3596 4.27823 45.9052 3.82352 45.3464 3.82352H6.15254C5.59401 3.82352 5.1393 4.27793 5.1393 4.83676V37.9344C5.1393 38.4929 5.59372 38.9476 6.15254 38.9476H21.8125C22.2022 38.9476 22.5184 39.2638 22.5184 39.6535C22.5184 40.0432 22.2022 40.3594 21.8125 40.3594H6.15254C4.81548 40.3594 3.72754 39.2715 3.72754 37.9344V4.83676C3.72754 3.4997 4.81548 2.41176 6.15254 2.41176H45.3464C46.6834 2.41176 47.7714 3.4997 47.7714 4.83676V37.9344C47.7714 39.2715 46.6837 40.3591 45.3464 40.3591Z" fill="#212121"/>
<path d="M47.0652 9.88381H4.43342C4.04372 9.88381 3.72754 9.56763 3.72754 9.17793C3.72754 8.78822 4.04372 8.47205 4.43342 8.47205H47.0652C47.4549 8.47205 47.7711 8.78822 47.7711 9.17793C47.7711 9.56763 47.4552 9.88381 47.0652 9.88381Z" fill="#212121"/>
<path d="M43.1941 6.85381H26.0897C25.7 6.85381 25.3838 6.53764 25.3838 6.14793C25.3838 5.75822 25.7 5.44205 26.0897 5.44205H43.1941C43.5838 5.44205 43.9 5.75822 43.9 6.14793C43.9 6.53764 43.5841 6.85381 43.1941 6.85381Z" fill="#212121"/>
<path d="M8.8844 7.05381C9.3847 7.05381 9.79028 6.64824 9.79028 6.14793C9.79028 5.64763 9.3847 5.24205 8.8844 5.24205C8.38409 5.24205 7.97852 5.64763 7.97852 6.14793C7.97852 6.64824 8.38409 7.05381 8.8844 7.05381Z" fill="#212121"/>
<path d="M12.6754 7.05381C13.1757 7.05381 13.5813 6.64824 13.5813 6.14793C13.5813 5.64763 13.1757 5.24205 12.6754 5.24205C12.1751 5.24205 11.7695 5.64763 11.7695 6.14793C11.7695 6.64824 12.1751 7.05381 12.6754 7.05381Z" fill="#212121"/>
<path d="M16.4674 7.05381C16.9677 7.05381 17.3733 6.64824 17.3733 6.14793C17.3733 5.64763 16.9677 5.24205 16.4674 5.24205C15.9671 5.24205 15.5615 5.64763 15.5615 6.14793C15.5615 6.64824 15.9671 7.05381 16.4674 7.05381Z" fill="#212121"/>
<path d="M25.75 40.3591C24.7847 40.3591 24.1221 39.6015 23.5371 38.9329C23.2174 38.5674 22.8868 38.1894 22.6215 38.0797C22.3306 37.9591 21.81 37.9912 21.3068 38.0221C20.4383 38.0753 19.4539 38.1359 18.7977 37.4794C18.1415 36.8232 18.2018 35.8388 18.255 34.9703C18.2859 34.4668 18.318 33.9465 18.1974 33.6556C18.0874 33.3906 17.7094 33.0597 17.3441 32.74C16.6756 32.1553 15.918 31.4924 15.918 30.5271C15.918 29.5618 16.6756 28.8991 17.3441 28.3141C17.7097 27.9944 18.0877 27.6638 18.1974 27.3985C18.318 27.1077 18.2859 26.5871 18.255 26.0838C18.2018 25.2153 18.1412 24.2309 18.7977 23.5747C19.4539 22.9185 20.4383 22.9788 21.3068 23.0321C21.8103 23.0629 22.3309 23.095 22.6215 22.9744C22.8865 22.8644 23.2171 22.4865 23.5371 22.1212C24.1218 21.4527 24.7847 20.695 25.75 20.695C26.7153 20.695 27.378 21.4527 27.963 22.1212C28.2827 22.4868 28.6133 22.8647 28.8786 22.9744C29.1694 23.095 29.69 23.0629 30.1933 23.0321C31.0618 22.9788 32.0462 22.9182 32.7027 23.5747C33.3588 24.2309 33.2986 25.2156 33.2453 26.0838C33.2144 26.5874 33.1824 27.1077 33.303 27.3985C33.413 27.6635 33.7909 27.9944 34.1562 28.3141C34.8247 28.8988 35.5824 29.5618 35.5824 30.5268C35.5824 31.4921 34.8247 32.1547 34.1562 32.7397C33.7906 33.0594 33.4127 33.39 33.303 33.6553C33.1824 33.9462 33.2144 34.4668 33.2453 34.97C33.2986 35.8385 33.3591 36.8229 32.7027 37.4794C32.0462 38.1359 31.0621 38.0753 30.1933 38.0221C29.6897 37.9912 29.1694 37.9591 28.8786 38.0797C28.6136 38.1897 28.283 38.5677 27.963 38.9329C27.378 39.6015 26.7153 40.3591 25.75 40.3591ZM21.9806 36.5818C22.3921 36.5818 22.7953 36.6235 23.1624 36.7756C23.7321 37.0118 24.1733 37.5159 24.5997 38.0035C24.9868 38.4459 25.4256 38.9474 25.75 38.9474C26.0744 38.9474 26.5133 38.4459 26.9003 38.0035C27.3268 37.5159 27.768 37.0118 28.3377 36.7756C28.93 36.53 29.6162 36.5721 30.2797 36.6129C30.8224 36.6462 31.4977 36.6877 31.7041 36.4812C31.9106 36.2747 31.8691 35.5994 31.8359 35.0568C31.7953 34.3932 31.753 33.7071 31.9986 33.1147C32.2347 32.545 32.7388 32.1038 33.2265 31.6774C33.6688 31.2903 34.1703 30.8518 34.1703 30.5271C34.1703 30.2027 33.6688 29.7638 33.2265 29.3768C32.7388 28.9503 32.2347 28.5091 31.9986 27.9394C31.753 27.3471 31.795 26.6609 31.8359 25.9974C31.8691 25.4547 31.9106 24.7794 31.7041 24.5729C31.4977 24.3665 30.8224 24.4079 30.2797 24.4412C29.6162 24.4821 28.93 24.5241 28.3377 24.2785C27.768 24.0424 27.3268 23.5382 26.9003 23.0506C26.5133 22.6082 26.0744 22.1068 25.75 22.1068C25.4256 22.1068 24.9868 22.6082 24.5997 23.0506C24.1733 23.5382 23.7321 24.0424 23.1624 24.2785C22.57 24.5241 21.8838 24.4821 21.2203 24.4412C20.6777 24.4079 20.0024 24.3665 19.7959 24.5729C19.5894 24.7794 19.6309 25.4547 19.6641 25.9974C19.7047 26.6609 19.7471 27.3471 19.5015 27.9394C19.2653 28.5091 18.7612 28.9503 18.2736 29.3768C17.8312 29.7638 17.3297 30.2027 17.3297 30.5271C17.3297 30.8515 17.8312 31.2903 18.2736 31.6774C18.7612 32.1038 19.2653 32.545 19.5015 33.1147C19.7471 33.7071 19.705 34.3932 19.6641 35.0568C19.6309 35.5994 19.5894 36.2747 19.7959 36.4812C20.0024 36.6877 20.6777 36.6462 21.2203 36.6129C21.4727 36.5974 21.7283 36.5818 21.9806 36.5818Z" fill="#212121"/>
<path d="M25.7502 35.8971C22.789 35.8971 20.3799 33.488 20.3799 30.5268C20.3799 27.5656 22.789 25.1565 25.7502 25.1565C28.7114 25.1565 31.1205 27.5656 31.1205 30.5268C31.1205 33.488 28.7114 35.8971 25.7502 35.8971ZM25.7502 26.5685C23.5675 26.5685 21.7916 28.3444 21.7916 30.5271C21.7916 32.7097 23.5675 34.4853 25.7502 34.4853C27.9328 34.4853 29.7087 32.7094 29.7087 30.5268C29.7087 28.3441 27.9328 26.5685 25.7502 26.5685Z" fill="#212121"/>
<path d="M25.8496 33.3247C25.4598 33.3247 25.1437 33.0085 25.1437 32.6188V30.0762C24.8834 30.1944 24.5663 30.1465 24.3522 29.9327C24.0766 29.6571 24.0766 29.21 24.3522 28.9344L25.3504 27.9362C25.5522 27.7344 25.856 27.6738 26.1198 27.7832C26.3837 27.8927 26.5557 28.15 26.5557 28.4353V32.6191C26.5554 33.0088 26.2393 33.3247 25.8496 33.3247Z" fill="#212121"/>
<path d="M26.6496 33.3247H25.0496C24.6599 33.3247 24.3438 33.0085 24.3438 32.6188C24.3438 32.2291 24.6599 31.9129 25.0496 31.9129H26.6496C27.0393 31.9129 27.3555 32.2291 27.3555 32.6188C27.3555 33.0085 27.0393 33.3247 26.6496 33.3247Z" fill="#212121"/>
<path d="M21.813 47.5882C21.713 47.5882 21.6121 47.5671 21.5177 47.5235C21.2674 47.4082 21.1074 47.1579 21.1074 46.8824V37.29C21.1074 36.9003 21.4236 36.5841 21.8133 36.5841C22.203 36.5841 22.5192 36.9003 22.5192 37.29V45.3509L25.2915 42.9824C25.5557 42.7568 25.9445 42.7568 26.2086 42.9824L28.9812 45.3509V37.2897C28.9812 36.9 29.2974 36.5838 29.6871 36.5838C30.0768 36.5838 30.393 36.9 30.393 37.2897V46.8824C30.393 47.1579 30.2327 47.4082 29.9827 47.5235C29.7324 47.6388 29.4383 47.5982 29.2286 47.4191L25.7501 44.4474L22.2718 47.4188C22.1412 47.5303 21.978 47.5882 21.813 47.5882Z" fill="#212121"/>
<path d="M43.1961 13.7206H28.2176C27.8279 13.7206 27.5117 13.4044 27.5117 13.0147C27.5117 12.625 27.8279 12.3088 28.2176 12.3088H43.1961C43.5858 12.3088 43.902 12.625 43.902 13.0147C43.902 13.4044 43.5861 13.7206 43.1961 13.7206Z" fill="#212121"/>
<path d="M43.1961 16.8509H28.2176C27.8279 16.8509 27.5117 16.5347 27.5117 16.145C27.5117 15.7553 27.8279 15.4391 28.2176 15.4391H43.1961C43.5858 15.4391 43.902 15.7553 43.902 16.145C43.902 16.5347 43.5861 16.8509 43.1961 16.8509Z" fill="#212121"/>
<path d="M43.1961 19.9815H28.2176C27.8279 19.9815 27.5117 19.6653 27.5117 19.2756C27.5117 18.8859 27.8279 18.5697 28.2176 18.5697H43.1961C43.5858 18.5697 43.902 18.8859 43.902 19.2756C43.902 19.6653 43.5861 19.9815 43.1961 19.9815Z" fill="#212121"/>
<path d="M19.4883 15.5104H16.3633V12.3854H12.6133V15.5104H9.48828V19.2604H12.6133V22.3854H16.3633V19.2604H19.4883V15.5104Z" fill="#F5737F"/>
<path d="M19.4883 15.5104H16.3633V12.3854H12.6133V15.5104H9.48828V19.2604H12.6133V22.3854H16.3633V19.2604H19.4883V15.5104Z" stroke="black" stroke-width="1.3" stroke-miterlimit="10" stroke-linecap="round" stroke-linejoin="round"/>
</svg>
