<?xml version="1.0" encoding="utf-8"?>
<!-- Generator: Adobe Illustrator 27.8.1, SVG Export Plug-In . SVG Version: 6.00 Build 0)  -->
<svg version="1.1" id="Layer_1" xmlns="http://www.w3.org/2000/svg" xmlns:xlink="http://www.w3.org/1999/xlink" x="0px" y="0px"
	 viewBox="0 0 150 150" style="enable-background:new 0 0 150 150;" xml:space="preserve">
<style type="text/css">
	.st0{fill:#F29F5C;}
	.st1{fill:#D37D42;}
	.st2{fill:#F9C295;}
	.st3{fill:#E59F6A;}
	.st4{fill:#5C9CEE;}
	.st5{fill:#3580D3;}
	.st6{fill:#ED5575;}
	.st7{fill:#CC3A60;}
	.st8{fill:#EBEEF2;}
	.st9{fill:#54E360;}
	.st10{fill:#E7F0EF;}
</style>
<g>
	<g>
		<g>
			<g>
				<path class="st0" d="M113.8,93.8l-3.1-25.2l-5.8,0.7l0,0l-11.3-6.4c-1.2-0.7-2.6-1-4-0.8l-17.8,1.6c-2.2,0.2-4.1,1.5-5.3,3.4
					L53.9,88.7c-0.9,1.6-0.2,3.6,1.5,4.3l0.5,0.2c1,0.4,2,0.6,3,0.7l-1.6,1.4L54.2,98l-9.1,7.7c-1.6,1.4-1.8,3.8-0.4,5.5l0.9,1.1
					c1.8,2.1,4.9,2.3,7,0.5l3.5,4c1.1,1.3,2.8,1.9,4.4,1.7c1-0.1,1.9-0.5,2.7-1.2l3.5,4c1.1,1.3,2.8,1.9,4.4,1.7
					c1-0.1,1.9-0.5,2.7-1.2l1.9,1.6c1.8,2.1,4.9,2.3,7,0.5l2.6-2.2l21.5-16.7l0,0l8.5,0L113.8,93.8z"/>
				<path class="st1" d="M104.6,98.3L104.6,98.3L83.1,115l-2.6,2.2c-2.1,1.8-5.2,1.6-7-0.5l-1.9-1.6c-0.8,0.7-1.7,1.1-2.7,1.2
					c-1.6,0.2-3.2-0.4-4.4-1.7l-3.5-4c-0.8,0.7-1.7,1.1-2.7,1.2c-1.6,0.2-3.2-0.4-4.4-1.7l-3.5-4c-1.8,1.5-4.3,1.6-6.2,0.3
					c-0.9,1.4-0.9,3.3,0.3,4.7l0.9,1.1c1.8,2.1,4.9,2.3,7,0.5l3.5,4c1.1,1.3,2.8,1.9,4.4,1.7c1-0.1,1.9-0.5,2.7-1.2l3.5,4
					c1.1,1.3,2.8,1.9,4.4,1.7c1-0.1,1.9-0.5,2.7-1.2l1.9,1.6c1.8,2.1,4.9,2.3,7,0.5l2.6-2.2l21.5-16.7l0,0l8.5,0l-0.9-7.6
					L104.6,98.3z"/>
			</g>
			<g>
				<path class="st2" d="M108.5,109.2L97,99.3l-3.2-2.8l-2.3-2l-9.8-8.5l1.1-9.7c0.4-3.3-1.7-6.3-4.9-7.2l-21.5-5.9
					c-2.3-0.6-4.7,0.4-5.7,2.5L48,71l-11.6-0.8l-3,25.3l-1.3,11l11.3,0.8l0,0L67,127.6l2.6,2.2c2.1,1.8,5.2,1.6,7-0.5l3.4-4
					c0.8,0.7,1.7,1.1,2.7,1.2c1.6,0.2,3.2-0.4,4.4-1.7l3.4-4c0.8,0.7,1.7,1.1,2.7,1.2c1.6,0.2,3.2-0.4,4.3-1.7l3.4-4
					c2.1,1.8,5.2,1.6,7-0.5l0.9-1.1C110.3,113,110.1,110.6,108.5,109.2z"/>
				<path class="st3" d="M108.5,109.2l-3.5-3c1.1,1.5,1.1,3.7-0.2,5.2l-1,1.1c-1.9,2.2-5.2,2.5-7.4,0.5l-3.7,4.2
					c-1.2,1.4-2.9,2-4.6,1.8c-1-0.1-2-0.5-2.8-1.2l-3.6,4.2c-1.2,1.4-2.9,2-4.6,1.8c-1-0.1-2-0.5-2.8-1.2l-3.6,4.2
					c-0.7,0.8-1.6,1.3-2.5,1.6l1.6,1.3c2.1,1.8,5.2,1.6,7-0.5l3.4-4c0.8,0.7,1.7,1.1,2.7,1.2c1.6,0.2,3.2-0.4,4.4-1.7l3.4-4
					c0.8,0.7,1.7,1.1,2.7,1.2c1.6,0.2,3.2-0.4,4.3-1.7l3.4-4c2.1,1.8,5.2,1.6,7-0.5l0.9-1.1C110.3,113,110.1,110.6,108.5,109.2z"/>
			</g>
			<g>
				<g>
					<path class="st0" d="M44,107.2l-1.4,1.8c-1.5,2-1.1,4.8,0.9,6.2l0,0c2,1.5,4.8,1.1,6.2-0.9l1.4-1.8c1.5-2,1.1-4.8-0.9-6.2l0,0
						C48.3,104.8,45.5,105.2,44,107.2z"/>
					<path class="st0" d="M52.3,111l-2.6,3.4c-1.5,2-1.1,4.8,0.9,6.2l0,0c2,1.5,4.8,1.1,6.2-0.9l2.6-3.4c1.5-2,1.1-4.8-0.9-6.2l0,0
						C56.6,108.6,53.8,109,52.3,111z"/>
					<path class="st0" d="M60.4,115.1l-3.5,4.6c-1.5,2-1.1,4.8,0.9,6.2l0,0c2,1.5,4.8,1.1,6.2-0.9l3.5-4.6c1.5-2,1.1-4.8-0.9-6.2
						l0,0C64.7,112.8,61.9,113.2,60.4,115.1z"/>
					<path class="st0" d="M67.7,120.3l-3.7,4.9c-1.5,2-1.1,4.8,0.9,6.2l0,0c2,1.5,4.8,1.1,6.2-0.9l3.7-4.9c1.5-2,1.1-4.8-0.9-6.2
						l0,0C72,117.9,69.2,118.3,67.7,120.3z"/>
				</g>
			</g>
			<path class="st0" d="M104.8,69.3l-11.3-6.4c-1.2-0.7-2.6-1-4-0.8l-17.8,1.6c-2.2,0.2-4.1,1.5-5.3,3.4L53.9,88.7
				c-0.9,1.6-0.2,3.6,1.5,4.3l0.5,0.2c4.6,1.7,9.8,0.3,12.8-3.6l4.8-6.3c0,0,11.6,13.4,24.3-2.2"/>
			<path class="st4" d="M128.5,60.4l5.9,48l-13.8,1.7c-2.6,0.3-5-1.5-5.3-4.1l-4.7-38.5c-0.3-2.6,1.5-5,4.1-5.3L128.5,60.4z"/>
			<path class="st5" d="M120.3,104.7c-2.7,0.3-5.1-1.4-5.7-4l0.7,5.3c0.3,2.6,2.7,4.5,5.3,4.1l13.8-1.7l-0.7-5.4L120.3,104.7z"/>
			<path class="st6" d="M21.5,60.4l-5.9,48l13.8,1.7c2.6,0.3,5-1.5,5.3-4.1l4.7-38.5c0.3-2.6-1.5-5-4.1-5.3L21.5,60.4z"/>
			<path class="st7" d="M29.8,104.5l-13.5-1.7l-0.7,5.5l13.8,1.7c2.6,0.3,5-1.5,5.3-4.1l0.5-4.1C34.1,103.7,32,104.8,29.8,104.5z"/>
			<g>
				<circle class="st8" cx="124.7" cy="100.5" r="3.5"/>
				<circle class="st8" cx="25.1" cy="100.5" r="3.5"/>
			</g>
		</g>
		<g>
			<path d="M75,118c-1.5-1.1-3.3-1.5-4.9-1.2c-0.3-1.6-1.1-3-2.4-4c-1.3-1-3-1.4-4.6-1.2c-0.4,0.1-0.8,0.2-1.2,0.3
				c-0.4-1.2-1.1-2.4-2.2-3.2c-1.8-1.4-4.2-1.6-6.2-0.8c-0.4-1.2-1.1-2.2-2.2-3c-1.3-1-3-1.4-4.6-1.2c-1.3,0.2-2.6,0.8-3.5,1.7
				l-6.6-0.4l4-32.7l7.2,0.5c0,0,0.1,0,0.1,0c0.7,0,1.3-0.4,1.6-1l2.7-5.3c0.7-1.3,2.2-2,3.7-1.6l4,1.1c1,0.3,1.9-0.3,2.2-1.2
				c0.3-1-0.3-1.9-1.2-2.2l-4-1.1c-3.1-0.9-6.4,0.6-7.8,3.4L47,69.1l-5.8-0.4l0.1-1.1c0.4-3.6-2.1-6.9-5.7-7.3l-13.8-1.7
				c-1-0.1-1.9,0.6-2,1.6c-0.1,1,0.6,1.9,1.6,2l13.8,1.7c0.8,0.1,1.5,0.5,2,1.1c0.5,0.6,0.7,1.4,0.6,2.2L33,105.7
				c-0.2,1.6-1.7,2.8-3.3,2.6l-13.8-1.7c-1-0.1-1.9,0.6-2,1.6c-0.1,1,0.6,1.9,1.6,2l13.8,1.7c0.3,0,0.5,0,0.8,0
				c2.4,0,4.6-1.3,5.7-3.4l4.9,0.3c-0.6,1.1-0.8,2.4-0.6,3.7c0.2,1.7,1.1,3.1,2.4,4.1c1.1,0.8,2.4,1.3,3.8,1.3c0.3,0,0.6,0,0.9-0.1
				c0,0,0,0,0.1,0c0,0,0,0,0,0.1c0.2,1.7,1.1,3.1,2.4,4.1c1.1,0.9,2.5,1.3,3.8,1.3c0.3,0,0.6,0,0.9-0.1c0.2,1.6,1,3.1,2.4,4.2
				c1.1,0.9,2.5,1.3,3.8,1.3c0.3,0,0.6,0,0.9-0.1c0,0,0,0,0,0.1c0.2,1.7,1.1,3.1,2.4,4.1c1.1,0.8,2.4,1.3,3.8,1.3
				c0.3,0,0.6,0,0.9-0.1c1.7-0.2,3.1-1.1,4.1-2.4l3.7-4.9C78.3,124,77.8,120,75,118z M46.6,114.3c-0.7,0.1-1.4-0.1-2-0.5
				c-0.6-0.4-0.9-1.1-1-1.8c-0.1-0.7,0.1-1.4,0.5-2l1.4-1.8c0.4-0.6,1.1-0.9,1.8-1c0.7-0.1,1.4,0.1,2,0.5c0.6,0.4,0.9,1.1,1,1.8
				s-0.1,1.4-0.5,2l-1.4,1.8C47.9,113.9,47.3,114.2,46.6,114.3z M51.7,119.2c-0.6-0.4-0.9-1.1-1-1.8c-0.1-0.7,0.1-1.4,0.5-2l1.4-1.8
				c0,0,0,0,0,0l1.2-1.6c0.5-0.7,1.3-1.1,2.1-1.1c0.6,0,1.1,0.2,1.6,0.5c1.2,0.9,1.4,2.6,0.5,3.7l-2.6,3.4
				C54.6,119.9,52.9,120.1,51.7,119.2z M58.8,124.6c-0.6-0.4-0.9-1.1-1-1.8c-0.1-0.7,0.1-1.4,0.5-2c0,0,0,0,0,0l2.6-3.4l0,0l0.9-1.2
				c0.4-0.6,1.1-0.9,1.8-1c0.7-0.1,1.4,0.1,2,0.5c1.2,0.9,1.4,2.6,0.5,3.7l-3.5,4.6c0,0,0,0,0,0C61.7,125.2,60,125.5,58.8,124.6z
				 M73.4,124.6l-3.7,4.9c-0.4,0.6-1.1,0.9-1.8,1c-0.7,0.1-1.4-0.1-2-0.5c-0.6-0.4-0.9-1.1-1-1.8c-0.1-0.7,0.1-1.4,0.5-2l3.5-4.6
				c0,0,0,0,0,0l0.2-0.3c0.4-0.6,1.1-0.9,1.8-1c0.7-0.1,1.4,0.1,2,0.5C74,121.7,74.3,123.4,73.4,124.6z"/>
			<path d="M136.2,108.2c-0.1-1-1-1.7-2-1.6l-13.8,1.7c-1.6,0.2-3.1-1-3.3-2.6l-0.1-1.1l0,0l0-0.3l-4.6-37.1
				c-0.1-0.8,0.1-1.6,0.6-2.2c0.5-0.6,1.2-1,2-1.1l13.8-1.7c1-0.1,1.7-1,1.6-2c-0.1-1-1-1.7-2-1.6l-13.8,1.7
				c-3.4,0.4-5.8,3.3-5.7,6.7l-3.5,0.4l-10.8-6.1c-1.5-0.9-3.3-1.2-5-1.1c0,0,0,0,0,0l-3.2,0.3c-1,0.1-1.7,1-1.6,1.9
				c0.1,1,1,1.7,1.9,1.6l3.3-0.3c1-0.1,2,0.1,2.9,0.6l11.2,6.3c0.3,0.2,0.8,0.3,1.2,0.3l4-0.5l3,24.1l1,8.3l-6.5,0
				c-0.4,0-0.8,0.2-1.2,0.4l-0.5,0.4l-16.2-14c3.7-1.1,7.2-3.6,10.5-7.7c0.6-0.8,0.5-1.9-0.3-2.5c-0.8-0.6-1.9-0.5-2.5,0.3
				c-3.7,4.5-7.6,6.9-11.5,6.9c-5.8,0.1-10-4.7-10-4.7c-0.4-0.4-0.9-0.6-1.4-0.6c-0.5,0-1,0.3-1.4,0.7l-4.8,6.3
				c-2.5,3.3-6.9,4.5-10.8,3.1l-0.5-0.2c-0.5-0.2-0.6-0.5-0.7-0.7c-0.1-0.2-0.1-0.6,0.1-1L68.1,68c0.8-1.4,2.3-2.3,3.9-2.5l7.4-0.7
				c1-0.1,1.7-1,1.6-1.9c-0.1-1-1-1.7-1.9-1.6l-7.4,0.7c-2.8,0.3-5.2,1.8-6.6,4.2L52.4,87.8c-0.7,1.2-0.8,2.7-0.4,4
				c0.5,1.3,1.5,2.4,2.8,2.9l0.5,0.2c1.5,0.6,3.1,0.8,4.6,0.8c3.9,0,7.7-1.8,10.2-5.1l3.6-4.7c1.9,1.7,5.5,4.1,10.1,4.4l23.4,20.2
				c0.4,0.4,0.7,0.9,0.7,1.4c0,0.6-0.1,1.1-0.5,1.5l-0.9,1.1c-1.1,1.3-3.2,1.5-4.5,0.3c-0.1-0.1-0.2-0.1-0.2-0.2l-6.1-5.2
				c-0.7-0.6-1.9-0.6-2.5,0.2c-0.6,0.7-0.6,1.9,0.2,2.5l4.9,4.3l-2.3,2.6c-0.7,0.8-1.7,1.2-2.8,1.1c-0.6-0.1-1.2-0.3-1.7-0.8
				c0,0,0,0,0,0l-5.6-4.9c-0.7-0.6-1.9-0.6-2.5,0.2c-0.6,0.7-0.6,1.9,0.2,2.5l4.3,3.7l-2.3,2.6c-0.7,0.8-1.7,1.2-2.8,1.1
				c-1-0.1-1.9,0.6-2,1.6c-0.1,1,0.6,1.9,1.6,2c0.3,0,0.5,0,0.8,0c2,0,3.8-0.8,5.1-2.4l2.4-2.8c0.7,0.3,1.4,0.5,2.1,0.6
				c2.2,0.3,4.4-0.6,5.9-2.3l2.4-2.8c2.7,1.3,6,0.7,8-1.7l0.9-1.1c1-1.1,1.5-2.6,1.4-4.1c-0.1-1.5-0.8-2.9-2-3.9l-1.5-1.3l5.4,0
				c0.6,3.1,3.3,5.3,6.4,5.3c0.3,0,0.5,0,0.8,0l13.8-1.7C135.6,110,136.3,109.1,136.2,108.2z"/>
			<path d="M124.7,95.2c-2.9,0-5.3,2.4-5.3,5.3c0,2.9,2.4,5.3,5.3,5.3s5.3-2.4,5.3-5.3C130,97.6,127.6,95.2,124.7,95.2z
				 M124.7,102.1c-0.9,0-1.7-0.8-1.7-1.7c0-0.9,0.8-1.7,1.7-1.7c0.9,0,1.7,0.8,1.7,1.7C126.4,101.4,125.6,102.1,124.7,102.1z"/>
			<path d="M30.4,100.5c0-2.9-2.4-5.3-5.3-5.3s-5.3,2.4-5.3,5.3c0,2.9,2.4,5.3,5.3,5.3S30.4,103.4,30.4,100.5z M23.4,100.5
				c0-0.9,0.8-1.7,1.7-1.7c0.9,0,1.7,0.8,1.7,1.7c0,0.9-0.8,1.7-1.7,1.7C24.2,102.1,23.4,101.4,23.4,100.5z"/>
		</g>
	</g>
	<g>
		<g>
			<g>
				<path class="st9" d="M99.9,43.6c0,14.4-11.7,26.1-26.1,26.1c-14.4,0-26.1-11.7-26.1-26.1c0-14.4,11.7-26.1,26.1-26.1
					C88.2,17.5,99.9,29.2,99.9,43.6z"/>
			</g>
			<g>
				<path class="st10" d="M87.3,33.8c-1.4-1.4-3.6-1.4-4.9,0L70.1,46.1l-4.9-4.9c-1.4-1.4-3.6-1.4-4.9,0s-1.4,3.6,0,4.9l7.4,7.4
					c1.4,1.4,3.6,1.4,4.9,0l14.8-14.8C88.7,37.4,88.7,35.2,87.3,33.8z"/>
			</g>
		</g>
		<g>
			<path d="M93.4,24c-5.2-5.2-12.2-8.1-19.6-8.1c-7.4,0-14.4,2.9-19.6,8.1c-5.2,5.2-8.1,12.2-8.1,19.6c0,7.4,2.9,14.4,8.1,19.6
				s12.2,8.1,19.6,8.1c7.4,0,14.4-2.9,19.6-8.1c5.2-5.2,8.1-12.2,8.1-19.6C101.5,36.2,98.6,29.3,93.4,24L93.4,24z M73.8,68.1
				c-13.5,0-24.5-11-24.5-24.5s11-24.5,24.5-24.5s24.5,11,24.5,24.5S87.3,68.1,73.8,68.1L73.8,68.1z"/>
			<path d="M84.9,31.1c-1.4,0-2.6,0.5-3.6,1.5L70.1,43.8L66.3,40c-1-1-2.2-1.5-3.6-1.5c-1.4,0-2.6,0.5-3.6,1.5c-2,2-2,5.2,0,7.2
				l7.4,7.4c1,1,2.2,1.5,3.6,1.5c1.4,0,2.6-0.5,3.6-1.5l14.8-14.8c2-2,2-5.2,0-7.2C87.5,31.7,86.2,31.1,84.9,31.1L84.9,31.1z
				 M86.2,37.6L71.4,52.3c-0.4,0.4-0.8,0.5-1.3,0.5s-1-0.2-1.3-0.5L61.4,45c-0.7-0.7-0.7-1.9,0-2.6c0.4-0.4,0.8-0.5,1.3-0.5
				c0.5,0,1,0.2,1.3,0.5l4.9,4.9c0.3,0.3,0.7,0.5,1.1,0.5c0.4,0,0.8-0.2,1.1-0.5l12.3-12.3c0.4-0.4,0.8-0.5,1.3-0.5s1,0.2,1.3,0.5
				C86.9,35.7,86.9,36.8,86.2,37.6L86.2,37.6z"/>
		</g>
	</g>
</g>
</svg>
