<?xml version="1.0" encoding="utf-8"?>
<!-- Generator: Adobe Illustrator 26.4.1, SVG Export Plug-In . SVG Version: 6.00 Build 0)  -->
<svg version="1.1" id="Capa_1" xmlns="http://www.w3.org/2000/svg" xmlns:xlink="http://www.w3.org/1999/xlink" x="0px" y="0px"
	 viewBox="0 0 310.4 310.4" style="enable-background:new 0 0 310.4 310.4;" xml:space="preserve">
<style type="text/css">
	.st0{fill:#B3BEC6;}
</style>
<g>
	<g>
		<path class="st0" d="M273.6,36.8c-49.1-49.1-129-49.1-178.1,0c-41.7,41.7-48,103.6-18.9,152c0,0,2.1,3.5-0.7,6.3
			c-16.1,16.1-64.3,64.3-64.3,64.3c-12.8,12.8-15.8,30.7-4.5,42l2,2c11.3,11.3,29.2,8.3,42-4.5c0,0,48.1-48.1,64.1-64.1
			c3-3,6.4-0.9,6.4-0.9c48.4,29,110.4,22.7,152-18.9C322.7,165.9,322.7,85.9,273.6,36.8z M250.3,191.7C214,228,155,228,118.7,191.7
			c-36.3-36.3-36.3-95.3,0-131.6c36.3-36.3,95.3-36.3,131.6,0C286.6,96.4,286.6,155.4,250.3,191.7z"/>
		<path class="st0" d="M213.2,82.8c-16.1,0-26.2,17.9-28.6,17.9c-2.1,0-11.9-17.9-28.7-17.9c-16.3,0-29.6,13.5-30.5,29.8
			c-0.5,9.2,2.5,16.2,6.7,22.6c8.4,12.7,44.9,43.2,52.6,43.2c7.8,0,44-30.4,52.5-43.2c4.2-6.4,7.1-13.3,6.7-22.6
			C242.8,96.3,229.5,82.8,213.2,82.8z"/>
	</g>
</g>
</svg>
