<?xml version="1.0" encoding="utf-8"?>
<!-- Generator: Adobe Illustrator 27.7.0, SVG Export Plug-In . SVG Version: 6.00 Build 0)  -->
<svg version="1.1" id="Layer_1" xmlns="http://www.w3.org/2000/svg" xmlns:xlink="http://www.w3.org/1999/xlink" x="0px" y="0px"
	 viewBox="0 0 150 150" style="enable-background:new 0 0 150 150;" xml:space="preserve">
<style type="text/css">
	.st0{fill-rule:evenodd;clip-rule:evenodd;fill:#27336E;}
</style>
<g>
	<path class="st0" d="M137.6,116.7c0,13.7-11.1,24.7-24.7,24.7s-24.7-11.1-24.7-24.7S99.2,92,112.9,92S137.6,103.1,137.6,116.7z
		 M112.9,101.3c1.3,0,2.3,1,2.3,2.3v13.9c0,1.3-1,2.3-2.3,2.3s-2.3-1-2.3-2.3v-13.9C110.5,102.3,111.6,101.3,112.9,101.3z
		 M112.9,132.2c1.7,0,3.1-1.4,3.1-3.1s-1.4-3.1-3.1-3.1s-3.1,1.4-3.1,3.1S111.2,132.2,112.9,132.2z"/>
	<path class="st0" d="M63.4,8.5C48,8.5,35.6,21,35.6,36.4S48,64.2,63.4,64.2s27.8-12.5,27.8-27.8S78.8,8.5,63.4,8.5z M63.4,73.5
		c-27.9,0-50.5,22.4-51,50.1c0,1.8,1,3.5,2.7,4.3c14.7,6.8,31.1,10.5,48.3,10.5c8.6,0,17-0.9,25-2.7c-4.1-5.2-6.5-11.8-6.5-18.9
		c0-12.4,7.3-23.1,17.8-28C90.5,79.3,77.7,73.5,63.4,73.5z"/>
</g>
</svg>
