<?xml version="1.0" encoding="utf-8"?>
<!-- Generator: Adobe Illustrator 27.2.0, SVG Export Plug-In . SVG Version: 6.00 Build 0)  -->
<svg version="1.1" id="svg8" xmlns:svg="http://www.w3.org/2000/svg"
	 xmlns="http://www.w3.org/2000/svg" xmlns:xlink="http://www.w3.org/1999/xlink" x="0px" y="0px" viewBox="0 0 700 700"
	 style="enable-background:new 0 0 700 700;" xml:space="preserve">
<style type="text/css">
	.st0{fill:#27336E;}
	.st1{fill:none;stroke:#27336E;stroke-width:40;stroke-linecap:round;stroke-linejoin:round;stroke-miterlimit:10;}
	.st2{fill-rule:evenodd;clip-rule:evenodd;fill:#27336E;}
</style>
<path class="st0" d="M379.3,537.1c-12.5-26.7-39.1-42.1-66.6-42.1v0c-10.3,0-21.1,2.1-31,6.9c-18.1,8.2-31.4,22.8-38.3,41.3
	c-6.4,18.5-5.6,38.3,2.6,56.3c8.2,17.6,23.2,31.4,41.3,37.8c18.5,6.9,38.7,6,56.3-2.1C380.6,617.9,396.5,574.1,379.3,537.1z
	 M325.8,596.7c-7.5,3.5-16.1,3.8-23.9,0.9c-7.7-2.7-14.1-8.6-17.5-16.1c-3.5-7.7-3.8-16.1-1.1-23.9c2.9-7.9,8.6-14.1,16.3-17.5
	c4.2-2,8.8-2.9,13.1-2.9v0c11.7,0,23,6.6,28.3,17.9C348.3,570.8,341.5,589.4,325.8,596.7z"/>
<polyline class="st1" points="77.8,169.6 150.2,136.3 307.7,504.6 "/>
<line class="st1" x1="372.9" y1="566" x2="620.5" y2="458.5"/>
<path class="st2" d="M295,231.5c-24.4,10.3-35.8,38.5-25.5,62.9l74.8,176.8c10.3,24.4,38.5,35.8,62.9,25.5L584,422
	c24.4-10.3,35.8-38.5,25.5-62.9l-74.8-176.8c-10.3-24.4-38.5-35.8-62.9-25.5L295,231.5z M354.2,209.3c-3.1,1.3-4.6,4.9-3.3,8
	l35.8,84.8c0.8,2,2.6,3.3,4.7,3.7c2.1,0.3,4.2-0.5,5.6-2.1l24.7-29l38,2.4c2.1,0.1,4.2-0.8,5.4-2.6c1.2-1.7,1.5-4,0.6-5.9
	l-35.8-84.8c-1.3-3.1-4.9-4.6-8-3.3L354.2,209.3z"/>
</svg>
