<?xml version="1.0" encoding="utf-8"?>
<!-- Generator: Adobe Illustrator 26.5.0, SVG Export Plug-In . SVG Version: 6.00 Build 0)  -->
<svg version="1.1" id="Layer_1" xmlns="http://www.w3.org/2000/svg" xmlns:xlink="http://www.w3.org/1999/xlink" x="0px" y="0px"
	 viewBox="0 0 100 100" style="enable-background:new 0 0 100 100;" xml:space="preserve">
<style type="text/css">
	.st0{fill:#FFFFFF;}
</style>
<path id="Linkedin-2" class="st0" d="M61.46,69.56V56.85c0-3.04-0.05-6.93-4.21-6.93c-4.22,0-4.86,3.31-4.86,6.71v12.93h-8.1V43.42
	h7.75V47h0.11c1.59-2.71,4.54-4.33,7.68-4.22c8.21,0,9.73,5.41,9.73,12.45v14.32H61.46z M39.18,69.56h-8.11V43.42h8.11L39.18,69.56
	L39.18,69.56L39.18,69.56z M44.28,43.42h0.01H44.28z M30.43,35.14c0-2.6,2.11-4.7,4.71-4.7c2.6,0,4.7,2.11,4.7,4.71
	c0,2.6-2.11,4.7-4.71,4.7C32.54,39.85,30.44,37.74,30.43,35.14z"/>
</svg>
