<?xml version="1.0" encoding="utf-8"?>
<!-- Generator: Adobe Illustrator 26.5.0, SVG Export Plug-In . SVG Version: 6.00 Build 0)  -->
<svg version="1.1" id="Layer_1" xmlns="http://www.w3.org/2000/svg" xmlns:xlink="http://www.w3.org/1999/xlink" x="0px" y="0px"
	 viewBox="0 0 100 100" style="enable-background:new 0 0 100 100;" xml:space="preserve">
<style type="text/css">
	.st0{fill:#FFFFFF;}
</style>
<path id="Twitter-2" class="st0" d="M72.36,36.13c-1.67,0.74-3.45,1.23-5.27,1.45c1.92-1.15,3.35-2.95,4.03-5.07
	c-1.8,1.07-3.77,1.82-5.83,2.23c-3.47-3.7-9.28-3.88-12.97-0.41c-1.85,1.73-2.89,4.15-2.9,6.68c0,0.7,0.08,1.41,0.24,2.09
	c-7.38-0.37-14.25-3.85-18.91-9.59c-2.43,4.19-1.19,9.55,2.84,12.25c-1.46-0.04-2.88-0.44-4.15-1.15v0.12
	c0,4.37,3.08,8.13,7.36,8.99c-0.79,0.21-1.6,0.32-2.42,0.32c-0.58,0-1.16-0.06-1.73-0.17c1.2,3.74,4.65,6.3,8.57,6.37
	c-3.25,2.55-7.27,3.93-11.4,3.92c-0.73,0-1.46-0.04-2.19-0.13c4.19,2.7,9.08,4.13,14.06,4.12c16.87,0,26.1-13.98,26.1-26.1
	c0-0.4-0.01-0.79-0.03-1.19C69.58,39.58,71.13,37.97,72.36,36.13L72.36,36.13z"/>
</svg>
