<?xml version="1.0" encoding="utf-8"?>
<!-- Generator: Adobe Illustrator 26.5.0, SVG Export Plug-In . SVG Version: 6.00 Build 0)  -->
<svg version="1.1" id="Layer_1" xmlns="http://www.w3.org/2000/svg" xmlns:xlink="http://www.w3.org/1999/xlink" x="0px" y="0px"
	 viewBox="0 0 100 100" style="enable-background:new 0 0 100 100;" xml:space="preserve">
<style type="text/css">
	.st0{fill:#FFFFFF;}
</style>
<path id="Youtube-2" class="st0" d="M50,69.56L50,69.56c-0.13,0-13.15-0.1-17.09-0.53c-0.21-0.05-0.47-0.09-0.77-0.13
	c-1.83-0.11-3.54-0.92-4.78-2.27c-1.46-1.67-1.99-5.48-1.99-5.51c-0.32-2.98-0.5-5.98-0.52-8.98v-4.18c0-4.47,0.51-9.02,0.52-9.07
	c0.01-0.05,0.45-3.85,1.99-5.51c1.25-1.4,3.01-2.23,4.88-2.3h0.01l0.14-0.01c6.94-0.52,17.5-0.62,17.6-0.62s10.67,0.1,17.61,0.62
	l0.24,0.02c1.85,0.03,3.6,0.87,4.79,2.29c1.46,1.67,1.99,5.48,2,5.51c0,0.04,0.52,4.59,0.52,9.07v4.18c0,4.39-0.51,8.94-0.52,8.98
	c-0.01,0.04-0.54,3.84-2,5.51c-1.24,1.4-3.01,2.23-4.88,2.3h-0.01l-0.14,0.01C60.66,69.56,50.11,69.56,50,69.56z M43.93,41.02v19.3
	l16.48-9.43L43.93,41.02z"/>
</svg>
