<?xml version="1.0" encoding="utf-8"?>
<!-- Generator: Adobe Illustrator 26.5.0, SVG Export Plug-In . SVG Version: 6.00 Build 0)  -->
<svg version="1.1" id="Layer_1" xmlns="http://www.w3.org/2000/svg" xmlns:xlink="http://www.w3.org/1999/xlink" x="0px" y="0px"
	 viewBox="0 0 100 100" style="enable-background:new 0 0 100 100;" xml:space="preserve">
<style type="text/css">
	.st0{fill:#FFFFFF;}
</style>
<path id="Instagram-2" class="st0" d="M59.6,73.76H40.4c-7.81-0.01-14.15-6.34-14.15-14.16V40.4c0.01-7.81,6.34-14.15,14.15-14.15
	H59.6c7.81,0.01,14.15,6.34,14.16,14.15V59.6C73.75,67.42,67.42,73.75,59.6,73.76z M40.4,31.02c-5.18,0.01-9.37,4.2-9.38,9.38V59.6
	c0.01,5.17,4.2,9.37,9.38,9.37H59.6c5.17-0.01,9.37-4.2,9.37-9.37V40.4c-0.01-5.17-4.2-9.37-9.37-9.38H40.4z M50,62.29
	c-6.79,0-12.29-5.51-12.28-12.29c0-6.79,5.51-12.29,12.29-12.28c6.79,0,12.28,5.5,12.28,12.29C62.28,56.78,56.78,62.28,50,62.29
	L50,62.29z M50,42.49c-4.15,0-7.51,3.36-7.51,7.51s3.36,7.51,7.51,7.51c4.15,0,7.51-3.36,7.51-7.51l0,0
	C57.5,45.85,54.14,42.5,50,42.49L50,42.49z M62.31,40.74c-1.63,0-2.94-1.32-2.94-2.95c0-1.63,1.32-2.94,2.95-2.94
	c1.63,0,2.94,1.32,2.94,2.95C65.25,39.43,63.94,40.75,62.31,40.74L62.31,40.74z"/>
</svg>
