<?xml version="1.0" encoding="utf-8"?>
<!-- Generator: Adobe Illustrator 26.5.0, SVG Export Plug-In . SVG Version: 6.00 Build 0)  -->
<svg version="1.1" id="Layer_1" xmlns="http://www.w3.org/2000/svg" xmlns:xlink="http://www.w3.org/1999/xlink" x="0px" y="0px"
	 viewBox="0 0 62 62" style="enable-background:new 0 0 62 62;" xml:space="preserve">
<style type="text/css">
	.st0{fill:#243271;}
</style>
<path class="st0" d="M34.9,2.53l6.21,13.13c0.63,1.34,1.86,2.27,3.28,2.49l13.88,2.11c3.57,0.54,5,5.12,2.41,7.75L50.64,38.22
	c-1.03,1.04-1.49,2.55-1.25,4.02l2.37,14.43c0.61,3.71-3.12,6.55-6.32,4.79l-12.41-6.81c-1.27-0.7-2.78-0.7-4.05,0l-12.41,6.81
	c-3.19,1.75-6.93-1.08-6.32-4.79l2.37-14.43c0.24-1.47-0.23-2.98-1.25-4.02L1.32,28.01c-2.58-2.63-1.16-7.21,2.41-7.75l13.88-2.11
	c1.42-0.22,2.64-1.15,3.28-2.49L27.1,2.53C28.69-0.84,33.31-0.84,34.9,2.53z"/>
</svg>
