<?xml version="1.0" encoding="utf-8"?>
<!-- Generator: Adobe Illustrator 26.4.1, SVG Export Plug-In . SVG Version: 6.00 Build 0)  -->
<svg version="1.1" id="Layer_1" xmlns="http://www.w3.org/2000/svg" xmlns:xlink="http://www.w3.org/1999/xlink" x="0px" y="0px"
	 viewBox="0 0 50 50" style="enable-background:new 0 0 50 50;" xml:space="preserve">
<style type="text/css">
	.st0{fill:#353635;}
</style>
<g>
	<path class="st0" d="M17.58,21.76L7.03,11.21c-1.14-1.14-2.99-1.14-4.13,0l-0.04,0.04c-1.14,1.14-1.14,2.99,0,4.13l9.04,9.04
		c0.32,0.32,0.32,0.84,0,1.16l-9.04,9.04c-1.14,1.14-1.14,2.99,0,4.13l0.04,0.04c1.14,1.14,2.99,1.14,4.13,0l10.56-10.57
		C19.37,26.44,19.37,23.55,17.58,21.76z"/>
	<path class="st0" d="M32.19,21.76L21.64,11.21c-1.14-1.14-2.99-1.14-4.13,0l-0.04,0.04c-1.14,1.14-1.14,2.99,0,4.13l9.04,9.04
		c0.32,0.32,0.32,0.84,0,1.16l-9.04,9.04c-1.14,1.14-1.14,2.99,0,4.13l0.04,0.04c1.14,1.14,2.99,1.14,4.13,0L32.2,28.22
		C33.98,26.44,33.98,23.55,32.19,21.76z"/>
	<path class="st0" d="M46.66,21.76L36.11,11.21c-1.14-1.14-2.99-1.14-4.13,0l-0.04,0.04c-1.14,1.14-1.14,2.99,0,4.13l9.04,9.04
		c0.32,0.32,0.32,0.84,0,1.16l-9.04,9.04c-1.14,1.14-1.14,2.99,0,4.13l0.04,0.04c1.14,1.14,2.99,1.14,4.13,0l10.56-10.57
		C48.45,26.44,48.44,23.55,46.66,21.76z"/>
</g>
</svg>
